M48
; DRILL file {KiCad (5.1.6-0-10_14)} date Friday, August 14, 2020 at 04:39:27 PM
; FORMAT={-:-/ absolute / inch / decimal}
; #@! TF.CreationDate,2020-08-14T16:39:27-05:00
; #@! TF.GenerationSoftware,Kicad,Pcbnew,(5.1.6-0-10_14)
FMAT,2
INCH
T1C0.0157
T2C0.0400
%
G90
G05
T1
X4.0787Y-3.3858
X4.1024Y-2.6457
X4.1496Y-3.248
X4.1654Y-2.9173
X4.185Y-2.8701
X4.2126Y-3.1772
X4.2126Y-3.3858
X4.2244Y-2.6457
X4.2441Y-3.0236
X4.2874Y-2.7047
X4.3032Y-3.248
X4.3346Y-2.7047
X4.3386Y-3.3858
X4.3504Y-3.0157
X4.3858Y-2.7008
X4.4016Y-3.248
X4.4055Y-2.6457
X4.4528Y-3.0315
X4.4646Y-3.3858
X4.4803Y-2.7126
X4.5157Y-2.8228
X4.5276Y-2.7244
X4.5551Y-2.9961
X4.6024Y-3.2717
X4.6024Y-3.4134
T2
X3.987Y-2.667
X3.987Y-2.767
X3.987Y-2.867
X3.987Y-2.967
X3.987Y-3.067
X3.987Y-3.167
X3.987Y-3.267
X3.987Y-3.367
X3.987Y-3.467
X3.987Y-3.567
X3.987Y-3.667
X3.987Y-3.767
X4.687Y-2.667
X4.687Y-2.767
X4.687Y-2.867
X4.687Y-2.967
X4.687Y-3.067
X4.687Y-3.167
X4.687Y-3.267
X4.687Y-3.367
X4.687Y-3.467
X4.687Y-3.567
X4.687Y-3.667
X4.687Y-3.767
T0
M30
