G04 #@! TF.GenerationSoftware,KiCad,Pcbnew,(5.1.6-0-10_14)*
G04 #@! TF.CreationDate,2020-08-29T20:41:38-05:00*
G04 #@! TF.ProjectId,gen2-jtag-adapter,67656e32-2d6a-4746-9167-2d6164617074,rev?*
G04 #@! TF.SameCoordinates,Original*
G04 #@! TF.FileFunction,Copper,L1,Top*
G04 #@! TF.FilePolarity,Positive*
%FSLAX46Y46*%
G04 Gerber Fmt 4.6, Leading zero omitted, Abs format (unit mm)*
G04 Created by KiCad (PCBNEW (5.1.6-0-10_14)) date 2020-08-29 20:41:38*
%MOMM*%
%LPD*%
G01*
G04 APERTURE LIST*
G04 #@! TA.AperFunction,ComponentPad*
%ADD10C,1.879600*%
G04 #@! TD*
G04 #@! TA.AperFunction,SMDPad,CuDef*
%ADD11R,0.700000X2.100000*%
G04 #@! TD*
G04 #@! TA.AperFunction,ViaPad*
%ADD12C,0.800000*%
G04 #@! TD*
G04 #@! TA.AperFunction,Conductor*
%ADD13C,0.250000*%
G04 #@! TD*
G04 #@! TA.AperFunction,Conductor*
%ADD14C,0.150000*%
G04 #@! TD*
G04 APERTURE END LIST*
D10*
X119050000Y-67742000D03*
X119050000Y-70282000D03*
X119050000Y-72822000D03*
X119050000Y-75362000D03*
X119050000Y-77902000D03*
X119050000Y-80442000D03*
X119050000Y-82982000D03*
X119050000Y-85522000D03*
X119050000Y-88062000D03*
X119050000Y-90602000D03*
X119050000Y-93142000D03*
X119050000Y-95682000D03*
X101270000Y-95682000D03*
X101270000Y-93142000D03*
X101270000Y-90602000D03*
X101270000Y-88062000D03*
X101270000Y-85522000D03*
X101270000Y-82982000D03*
X101270000Y-80442000D03*
X101270000Y-77902000D03*
X101270000Y-75362000D03*
X101270000Y-72822000D03*
X101270000Y-70282000D03*
X101270000Y-67742000D03*
D11*
X112740000Y-70700000D03*
X112740000Y-74700000D03*
X111470000Y-70700000D03*
X111470000Y-74700000D03*
X110200000Y-70700000D03*
X110200000Y-74700000D03*
X108930000Y-70700000D03*
X108930000Y-74700000D03*
X107660000Y-70700000D03*
X107660000Y-74700000D03*
G04 #@! TA.AperFunction,SMDPad,CuDef*
G36*
G01*
X114549999Y-85525000D02*
X115450001Y-85525000D01*
G75*
G02*
X115700000Y-85774999I0J-249999D01*
G01*
X115700000Y-86425001D01*
G75*
G02*
X115450001Y-86675000I-249999J0D01*
G01*
X114549999Y-86675000D01*
G75*
G02*
X114300000Y-86425001I0J249999D01*
G01*
X114300000Y-85774999D01*
G75*
G02*
X114549999Y-85525000I249999J0D01*
G01*
G37*
G04 #@! TD.AperFunction*
G04 #@! TA.AperFunction,SMDPad,CuDef*
G36*
G01*
X114549999Y-83475000D02*
X115450001Y-83475000D01*
G75*
G02*
X115700000Y-83724999I0J-249999D01*
G01*
X115700000Y-84375001D01*
G75*
G02*
X115450001Y-84625000I-249999J0D01*
G01*
X114549999Y-84625000D01*
G75*
G02*
X114300000Y-84375001I0J249999D01*
G01*
X114300000Y-83724999D01*
G75*
G02*
X114549999Y-83475000I249999J0D01*
G01*
G37*
G04 #@! TD.AperFunction*
G04 #@! TA.AperFunction,SMDPad,CuDef*
G36*
G01*
X114549999Y-80425000D02*
X115450001Y-80425000D01*
G75*
G02*
X115700000Y-80674999I0J-249999D01*
G01*
X115700000Y-81325001D01*
G75*
G02*
X115450001Y-81575000I-249999J0D01*
G01*
X114549999Y-81575000D01*
G75*
G02*
X114300000Y-81325001I0J249999D01*
G01*
X114300000Y-80674999D01*
G75*
G02*
X114549999Y-80425000I249999J0D01*
G01*
G37*
G04 #@! TD.AperFunction*
G04 #@! TA.AperFunction,SMDPad,CuDef*
G36*
G01*
X114549999Y-78375000D02*
X115450001Y-78375000D01*
G75*
G02*
X115700000Y-78624999I0J-249999D01*
G01*
X115700000Y-79275001D01*
G75*
G02*
X115450001Y-79525000I-249999J0D01*
G01*
X114549999Y-79525000D01*
G75*
G02*
X114300000Y-79275001I0J249999D01*
G01*
X114300000Y-78624999D01*
G75*
G02*
X114549999Y-78375000I249999J0D01*
G01*
G37*
G04 #@! TD.AperFunction*
G04 #@! TA.AperFunction,SMDPad,CuDef*
G36*
G01*
X111349999Y-85525000D02*
X112250001Y-85525000D01*
G75*
G02*
X112500000Y-85774999I0J-249999D01*
G01*
X112500000Y-86425001D01*
G75*
G02*
X112250001Y-86675000I-249999J0D01*
G01*
X111349999Y-86675000D01*
G75*
G02*
X111100000Y-86425001I0J249999D01*
G01*
X111100000Y-85774999D01*
G75*
G02*
X111349999Y-85525000I249999J0D01*
G01*
G37*
G04 #@! TD.AperFunction*
G04 #@! TA.AperFunction,SMDPad,CuDef*
G36*
G01*
X111349999Y-83475000D02*
X112250001Y-83475000D01*
G75*
G02*
X112500000Y-83724999I0J-249999D01*
G01*
X112500000Y-84375001D01*
G75*
G02*
X112250001Y-84625000I-249999J0D01*
G01*
X111349999Y-84625000D01*
G75*
G02*
X111100000Y-84375001I0J249999D01*
G01*
X111100000Y-83724999D01*
G75*
G02*
X111349999Y-83475000I249999J0D01*
G01*
G37*
G04 #@! TD.AperFunction*
G04 #@! TA.AperFunction,SMDPad,CuDef*
G36*
G01*
X111349999Y-80425000D02*
X112250001Y-80425000D01*
G75*
G02*
X112500000Y-80674999I0J-249999D01*
G01*
X112500000Y-81325001D01*
G75*
G02*
X112250001Y-81575000I-249999J0D01*
G01*
X111349999Y-81575000D01*
G75*
G02*
X111100000Y-81325001I0J249999D01*
G01*
X111100000Y-80674999D01*
G75*
G02*
X111349999Y-80425000I249999J0D01*
G01*
G37*
G04 #@! TD.AperFunction*
G04 #@! TA.AperFunction,SMDPad,CuDef*
G36*
G01*
X111349999Y-78375000D02*
X112250001Y-78375000D01*
G75*
G02*
X112500000Y-78624999I0J-249999D01*
G01*
X112500000Y-79275001D01*
G75*
G02*
X112250001Y-79525000I-249999J0D01*
G01*
X111349999Y-79525000D01*
G75*
G02*
X111100000Y-79275001I0J249999D01*
G01*
X111100000Y-78624999D01*
G75*
G02*
X111349999Y-78375000I249999J0D01*
G01*
G37*
G04 #@! TD.AperFunction*
G04 #@! TA.AperFunction,SMDPad,CuDef*
G36*
G01*
X108149999Y-85525000D02*
X109050001Y-85525000D01*
G75*
G02*
X109300000Y-85774999I0J-249999D01*
G01*
X109300000Y-86425001D01*
G75*
G02*
X109050001Y-86675000I-249999J0D01*
G01*
X108149999Y-86675000D01*
G75*
G02*
X107900000Y-86425001I0J249999D01*
G01*
X107900000Y-85774999D01*
G75*
G02*
X108149999Y-85525000I249999J0D01*
G01*
G37*
G04 #@! TD.AperFunction*
G04 #@! TA.AperFunction,SMDPad,CuDef*
G36*
G01*
X108149999Y-83475000D02*
X109050001Y-83475000D01*
G75*
G02*
X109300000Y-83724999I0J-249999D01*
G01*
X109300000Y-84375001D01*
G75*
G02*
X109050001Y-84625000I-249999J0D01*
G01*
X108149999Y-84625000D01*
G75*
G02*
X107900000Y-84375001I0J249999D01*
G01*
X107900000Y-83724999D01*
G75*
G02*
X108149999Y-83475000I249999J0D01*
G01*
G37*
G04 #@! TD.AperFunction*
G04 #@! TA.AperFunction,SMDPad,CuDef*
G36*
G01*
X108149999Y-80425000D02*
X109050001Y-80425000D01*
G75*
G02*
X109300000Y-80674999I0J-249999D01*
G01*
X109300000Y-81325001D01*
G75*
G02*
X109050001Y-81575000I-249999J0D01*
G01*
X108149999Y-81575000D01*
G75*
G02*
X107900000Y-81325001I0J249999D01*
G01*
X107900000Y-80674999D01*
G75*
G02*
X108149999Y-80425000I249999J0D01*
G01*
G37*
G04 #@! TD.AperFunction*
G04 #@! TA.AperFunction,SMDPad,CuDef*
G36*
G01*
X108149999Y-78375000D02*
X109050001Y-78375000D01*
G75*
G02*
X109300000Y-78624999I0J-249999D01*
G01*
X109300000Y-79275001D01*
G75*
G02*
X109050001Y-79525000I-249999J0D01*
G01*
X108149999Y-79525000D01*
G75*
G02*
X107900000Y-79275001I0J249999D01*
G01*
X107900000Y-78624999D01*
G75*
G02*
X108149999Y-78375000I249999J0D01*
G01*
G37*
G04 #@! TD.AperFunction*
G04 #@! TA.AperFunction,SMDPad,CuDef*
G36*
G01*
X104949999Y-85525000D02*
X105850001Y-85525000D01*
G75*
G02*
X106100000Y-85774999I0J-249999D01*
G01*
X106100000Y-86425001D01*
G75*
G02*
X105850001Y-86675000I-249999J0D01*
G01*
X104949999Y-86675000D01*
G75*
G02*
X104700000Y-86425001I0J249999D01*
G01*
X104700000Y-85774999D01*
G75*
G02*
X104949999Y-85525000I249999J0D01*
G01*
G37*
G04 #@! TD.AperFunction*
G04 #@! TA.AperFunction,SMDPad,CuDef*
G36*
G01*
X104949999Y-83475000D02*
X105850001Y-83475000D01*
G75*
G02*
X106100000Y-83724999I0J-249999D01*
G01*
X106100000Y-84375001D01*
G75*
G02*
X105850001Y-84625000I-249999J0D01*
G01*
X104949999Y-84625000D01*
G75*
G02*
X104700000Y-84375001I0J249999D01*
G01*
X104700000Y-83724999D01*
G75*
G02*
X104949999Y-83475000I249999J0D01*
G01*
G37*
G04 #@! TD.AperFunction*
G04 #@! TA.AperFunction,SMDPad,CuDef*
G36*
G01*
X104949999Y-80425000D02*
X105850001Y-80425000D01*
G75*
G02*
X106100000Y-80674999I0J-249999D01*
G01*
X106100000Y-81325001D01*
G75*
G02*
X105850001Y-81575000I-249999J0D01*
G01*
X104949999Y-81575000D01*
G75*
G02*
X104700000Y-81325001I0J249999D01*
G01*
X104700000Y-80674999D01*
G75*
G02*
X104949999Y-80425000I249999J0D01*
G01*
G37*
G04 #@! TD.AperFunction*
G04 #@! TA.AperFunction,SMDPad,CuDef*
G36*
G01*
X104949999Y-78375000D02*
X105850001Y-78375000D01*
G75*
G02*
X106100000Y-78624999I0J-249999D01*
G01*
X106100000Y-79275001D01*
G75*
G02*
X105850001Y-79525000I-249999J0D01*
G01*
X104949999Y-79525000D01*
G75*
G02*
X104700000Y-79275001I0J249999D01*
G01*
X104700000Y-78624999D01*
G75*
G02*
X104949999Y-78375000I249999J0D01*
G01*
G37*
G04 #@! TD.AperFunction*
D12*
X113800000Y-68900000D03*
X110200000Y-86000000D03*
X107000000Y-86000000D03*
X113400000Y-86000000D03*
X116900000Y-83100000D03*
X115000000Y-69200000D03*
X104200000Y-67200000D03*
X111900000Y-67200000D03*
X110500000Y-76600000D03*
X110100000Y-68700000D03*
X114700000Y-71700000D03*
X105800000Y-74100000D03*
X107300000Y-67200000D03*
X103600000Y-86000000D03*
X116900000Y-86700000D03*
X111400000Y-68599992D03*
X106300004Y-72900000D03*
X111800000Y-82500000D03*
X108900000Y-68700000D03*
X107000000Y-80700004D03*
X109300012Y-82500000D03*
X105400000Y-82500000D03*
X107799994Y-76800000D03*
X113100000Y-77000000D03*
X115700000Y-76100000D03*
D13*
X115000000Y-81000000D02*
X115000000Y-82500000D01*
X115000000Y-84050000D02*
X115000000Y-82500000D01*
X116000000Y-82500000D02*
X115000000Y-82500000D01*
X116818000Y-81682000D02*
X116000000Y-82500000D01*
X116818000Y-71182000D02*
X116818000Y-81682000D01*
X117718000Y-70282000D02*
X116818000Y-71182000D01*
X119050000Y-70282000D02*
X117718000Y-70282000D01*
X113000000Y-68900000D02*
X113800000Y-68900000D01*
X112740000Y-69160000D02*
X113000000Y-68900000D01*
X112740000Y-70700000D02*
X112740000Y-69160000D01*
X111470000Y-70700000D02*
X111470000Y-68669992D01*
X111470000Y-68669992D02*
X111400000Y-68599992D01*
X109200000Y-72800000D02*
X106400004Y-72800000D01*
X111300000Y-73200000D02*
X109600000Y-73200000D01*
X111470000Y-73370000D02*
X111300000Y-73200000D01*
X106400004Y-72800000D02*
X106300004Y-72900000D01*
X109600000Y-73200000D02*
X109200000Y-72800000D01*
X111470000Y-74700000D02*
X111470000Y-73370000D01*
X111800000Y-81000000D02*
X111800000Y-82500000D01*
X111800000Y-84050000D02*
X111800000Y-82500000D01*
X112700000Y-82500000D02*
X111800000Y-82500000D01*
X113400000Y-81800000D02*
X112700000Y-82500000D01*
X113400000Y-78200000D02*
X113400000Y-81800000D01*
X114000000Y-77600000D02*
X113400000Y-78200000D01*
X114000000Y-72700000D02*
X114000000Y-77600000D01*
X110300000Y-72300000D02*
X113600000Y-72300000D01*
X110200000Y-72200000D02*
X110300000Y-72300000D01*
X113600000Y-72300000D02*
X114000000Y-72700000D01*
X110200000Y-70700000D02*
X110200000Y-72200000D01*
X108930000Y-68730000D02*
X108900000Y-68700000D01*
X108930000Y-70700000D02*
X108930000Y-68730000D01*
X108799996Y-82500000D02*
X109300012Y-82500000D01*
X107000000Y-81700000D02*
X107800000Y-82500000D01*
X107800000Y-82500000D02*
X108799996Y-82500000D01*
X107000000Y-80700004D02*
X107000000Y-81700000D01*
X108600000Y-82500000D02*
X108799996Y-82500000D01*
X108600000Y-81000000D02*
X108600000Y-82500000D01*
X108600000Y-84050000D02*
X108600000Y-82500000D01*
X105400000Y-81000000D02*
X105400000Y-82500000D01*
X105400000Y-84050000D02*
X105400000Y-82500000D01*
X103500000Y-73800000D02*
X103500000Y-81400000D01*
X104600000Y-82500000D02*
X105400000Y-82500000D01*
X106600000Y-70700000D02*
X103500000Y-73800000D01*
X103500000Y-81400000D02*
X104600000Y-82500000D01*
X107660000Y-70700000D02*
X106600000Y-70700000D01*
X107660000Y-76660006D02*
X107799994Y-76800000D01*
X107660000Y-74700000D02*
X107660000Y-76660006D01*
X105400000Y-78950000D02*
X108600000Y-78950000D01*
X111800000Y-78950000D02*
X108600000Y-78950000D01*
X117720923Y-67742000D02*
X119050000Y-67742000D01*
X115700000Y-69762923D02*
X117720923Y-67742000D01*
X115700000Y-76100000D02*
X115700000Y-69762923D01*
X115000000Y-77900000D02*
X115700000Y-77200000D01*
X115700000Y-77200000D02*
X115700000Y-76100000D01*
X115000000Y-78950000D02*
X115000000Y-77900000D01*
X112600000Y-77000000D02*
X113100000Y-77000000D01*
X111800000Y-77800000D02*
X112600000Y-77000000D01*
X111800000Y-78950000D02*
X111800000Y-77800000D01*
D14*
G36*
X118275610Y-66798403D02*
G01*
X118106403Y-66967610D01*
X117973458Y-67166576D01*
X117900795Y-67342000D01*
X117740570Y-67342000D01*
X117720923Y-67340065D01*
X117701276Y-67342000D01*
X117642509Y-67347788D01*
X117567109Y-67370660D01*
X117497620Y-67407803D01*
X117436712Y-67457789D01*
X117424186Y-67473052D01*
X115431048Y-69466190D01*
X115415790Y-69478712D01*
X115403268Y-69493970D01*
X115403265Y-69493973D01*
X115365803Y-69539621D01*
X115328661Y-69609109D01*
X115305788Y-69684510D01*
X115298065Y-69762923D01*
X115300001Y-69782579D01*
X115300000Y-75555456D01*
X115269713Y-75575693D01*
X115175693Y-75669713D01*
X115101823Y-75780268D01*
X115050940Y-75903110D01*
X115025000Y-76033518D01*
X115025000Y-76166482D01*
X115050940Y-76296890D01*
X115101823Y-76419732D01*
X115175693Y-76530287D01*
X115269713Y-76624307D01*
X115300001Y-76644544D01*
X115300000Y-77034315D01*
X114731048Y-77603267D01*
X114715790Y-77615789D01*
X114703268Y-77631047D01*
X114703265Y-77631050D01*
X114665803Y-77676698D01*
X114628661Y-77746186D01*
X114605788Y-77821587D01*
X114598065Y-77900000D01*
X114600001Y-77919656D01*
X114600001Y-78098670D01*
X114549999Y-78098670D01*
X114447317Y-78108783D01*
X114348582Y-78138734D01*
X114257586Y-78187372D01*
X114177828Y-78252828D01*
X114112372Y-78332586D01*
X114063734Y-78423582D01*
X114033783Y-78522317D01*
X114023670Y-78624999D01*
X114023670Y-79275001D01*
X114033783Y-79377683D01*
X114063734Y-79476418D01*
X114112372Y-79567414D01*
X114177828Y-79647172D01*
X114257586Y-79712628D01*
X114348582Y-79761266D01*
X114447317Y-79791217D01*
X114549999Y-79801330D01*
X115450001Y-79801330D01*
X115552683Y-79791217D01*
X115651418Y-79761266D01*
X115742414Y-79712628D01*
X115822172Y-79647172D01*
X115887628Y-79567414D01*
X115936266Y-79476418D01*
X115966217Y-79377683D01*
X115976330Y-79275001D01*
X115976330Y-78624999D01*
X115966217Y-78522317D01*
X115936266Y-78423582D01*
X115887628Y-78332586D01*
X115822172Y-78252828D01*
X115742414Y-78187372D01*
X115651418Y-78138734D01*
X115552683Y-78108783D01*
X115450001Y-78098670D01*
X115400000Y-78098670D01*
X115400000Y-78065685D01*
X115968949Y-77496736D01*
X115984211Y-77484211D01*
X116034197Y-77423303D01*
X116071340Y-77353814D01*
X116094212Y-77278414D01*
X116100000Y-77219647D01*
X116100000Y-77219637D01*
X116101934Y-77200001D01*
X116100000Y-77180365D01*
X116100000Y-76644544D01*
X116130287Y-76624307D01*
X116224307Y-76530287D01*
X116298177Y-76419732D01*
X116349060Y-76296890D01*
X116375000Y-76166482D01*
X116375000Y-76033518D01*
X116349060Y-75903110D01*
X116298177Y-75780268D01*
X116224307Y-75669713D01*
X116130287Y-75575693D01*
X116100000Y-75555456D01*
X116100000Y-69928608D01*
X117886608Y-68142000D01*
X117900795Y-68142000D01*
X117973458Y-68317424D01*
X118106403Y-68516390D01*
X118275610Y-68685597D01*
X118474576Y-68818542D01*
X118695656Y-68910116D01*
X118930353Y-68956800D01*
X119169647Y-68956800D01*
X119404344Y-68910116D01*
X119625424Y-68818542D01*
X119824390Y-68685597D01*
X119993597Y-68516390D01*
X120100000Y-68357147D01*
X120100000Y-69666853D01*
X119993597Y-69507610D01*
X119824390Y-69338403D01*
X119625424Y-69205458D01*
X119404344Y-69113884D01*
X119169647Y-69067200D01*
X118930353Y-69067200D01*
X118695656Y-69113884D01*
X118474576Y-69205458D01*
X118275610Y-69338403D01*
X118106403Y-69507610D01*
X117973458Y-69706576D01*
X117900795Y-69882000D01*
X117737635Y-69882000D01*
X117717999Y-69880066D01*
X117698363Y-69882000D01*
X117698353Y-69882000D01*
X117639586Y-69887788D01*
X117564186Y-69910660D01*
X117494697Y-69947803D01*
X117494695Y-69947804D01*
X117494696Y-69947804D01*
X117449049Y-69985265D01*
X117449047Y-69985267D01*
X117433789Y-69997789D01*
X117421267Y-70013047D01*
X116549052Y-70885263D01*
X116533789Y-70897789D01*
X116483803Y-70958698D01*
X116446660Y-71028187D01*
X116438105Y-71056390D01*
X116423788Y-71103587D01*
X116416065Y-71182000D01*
X116418000Y-71201646D01*
X116418001Y-81516314D01*
X115834315Y-82100000D01*
X115400000Y-82100000D01*
X115400000Y-81851330D01*
X115450001Y-81851330D01*
X115552683Y-81841217D01*
X115651418Y-81811266D01*
X115742414Y-81762628D01*
X115822172Y-81697172D01*
X115887628Y-81617414D01*
X115936266Y-81526418D01*
X115966217Y-81427683D01*
X115976330Y-81325001D01*
X115976330Y-80674999D01*
X115966217Y-80572317D01*
X115936266Y-80473582D01*
X115887628Y-80382586D01*
X115822172Y-80302828D01*
X115742414Y-80237372D01*
X115651418Y-80188734D01*
X115552683Y-80158783D01*
X115450001Y-80148670D01*
X114549999Y-80148670D01*
X114447317Y-80158783D01*
X114348582Y-80188734D01*
X114257586Y-80237372D01*
X114177828Y-80302828D01*
X114112372Y-80382586D01*
X114063734Y-80473582D01*
X114033783Y-80572317D01*
X114023670Y-80674999D01*
X114023670Y-81325001D01*
X114033783Y-81427683D01*
X114063734Y-81526418D01*
X114112372Y-81617414D01*
X114177828Y-81697172D01*
X114257586Y-81762628D01*
X114348582Y-81811266D01*
X114447317Y-81841217D01*
X114549999Y-81851330D01*
X114600001Y-81851330D01*
X114600001Y-82480343D01*
X114598065Y-82500000D01*
X114600001Y-82519657D01*
X114600001Y-83198670D01*
X114549999Y-83198670D01*
X114447317Y-83208783D01*
X114348582Y-83238734D01*
X114257586Y-83287372D01*
X114177828Y-83352828D01*
X114112372Y-83432586D01*
X114063734Y-83523582D01*
X114033783Y-83622317D01*
X114023670Y-83724999D01*
X114023670Y-84375001D01*
X114033783Y-84477683D01*
X114063734Y-84576418D01*
X114112372Y-84667414D01*
X114177828Y-84747172D01*
X114257586Y-84812628D01*
X114348582Y-84861266D01*
X114447317Y-84891217D01*
X114549999Y-84901330D01*
X115450001Y-84901330D01*
X115552683Y-84891217D01*
X115651418Y-84861266D01*
X115742414Y-84812628D01*
X115822172Y-84747172D01*
X115887628Y-84667414D01*
X115936266Y-84576418D01*
X115966217Y-84477683D01*
X115976330Y-84375001D01*
X115976330Y-83724999D01*
X115966217Y-83622317D01*
X115936266Y-83523582D01*
X115887628Y-83432586D01*
X115822172Y-83352828D01*
X115742414Y-83287372D01*
X115651418Y-83238734D01*
X115552683Y-83208783D01*
X115450001Y-83198670D01*
X115400000Y-83198670D01*
X115400000Y-82900000D01*
X115980354Y-82900000D01*
X116000000Y-82901935D01*
X116019646Y-82900000D01*
X116019647Y-82900000D01*
X116078414Y-82894212D01*
X116153814Y-82871340D01*
X116223303Y-82834197D01*
X116284211Y-82784211D01*
X116296737Y-82768948D01*
X117086948Y-81978737D01*
X117102211Y-81966211D01*
X117152197Y-81905303D01*
X117189340Y-81835814D01*
X117212212Y-81760414D01*
X117218000Y-81701647D01*
X117219935Y-81682000D01*
X117218000Y-81662353D01*
X117218000Y-76241326D01*
X118244213Y-76241326D01*
X118343302Y-76423154D01*
X118563902Y-76540634D01*
X118803183Y-76612820D01*
X119051948Y-76636937D01*
X119300639Y-76612059D01*
X119539698Y-76539143D01*
X119756698Y-76423154D01*
X119855787Y-76241326D01*
X119050000Y-75435539D01*
X118244213Y-76241326D01*
X117218000Y-76241326D01*
X117218000Y-75363948D01*
X117775063Y-75363948D01*
X117799941Y-75612639D01*
X117872857Y-75851698D01*
X117988846Y-76068698D01*
X118170674Y-76167787D01*
X118976461Y-75362000D01*
X118170674Y-74556213D01*
X117988846Y-74655302D01*
X117871366Y-74875902D01*
X117799180Y-75115183D01*
X117775063Y-75363948D01*
X117218000Y-75363948D01*
X117218000Y-74482674D01*
X118244213Y-74482674D01*
X119050000Y-75288461D01*
X119855787Y-74482674D01*
X119756698Y-74300846D01*
X119536098Y-74183366D01*
X119296817Y-74111180D01*
X119048052Y-74087063D01*
X118799361Y-74111941D01*
X118560302Y-74184857D01*
X118343302Y-74300846D01*
X118244213Y-74482674D01*
X117218000Y-74482674D01*
X117218000Y-71347685D01*
X117883686Y-70682000D01*
X117900795Y-70682000D01*
X117973458Y-70857424D01*
X118106403Y-71056390D01*
X118275610Y-71225597D01*
X118474576Y-71358542D01*
X118695656Y-71450116D01*
X118930353Y-71496800D01*
X119169647Y-71496800D01*
X119404344Y-71450116D01*
X119625424Y-71358542D01*
X119824390Y-71225597D01*
X119993597Y-71056390D01*
X120100000Y-70897147D01*
X120100000Y-72206853D01*
X119993597Y-72047610D01*
X119824390Y-71878403D01*
X119625424Y-71745458D01*
X119404344Y-71653884D01*
X119169647Y-71607200D01*
X118930353Y-71607200D01*
X118695656Y-71653884D01*
X118474576Y-71745458D01*
X118275610Y-71878403D01*
X118106403Y-72047610D01*
X117973458Y-72246576D01*
X117881884Y-72467656D01*
X117835200Y-72702353D01*
X117835200Y-72941647D01*
X117881884Y-73176344D01*
X117973458Y-73397424D01*
X118106403Y-73596390D01*
X118275610Y-73765597D01*
X118474576Y-73898542D01*
X118695656Y-73990116D01*
X118930353Y-74036800D01*
X119169647Y-74036800D01*
X119404344Y-73990116D01*
X119625424Y-73898542D01*
X119824390Y-73765597D01*
X119993597Y-73596390D01*
X120100000Y-73437147D01*
X120100000Y-74649224D01*
X119929326Y-74556213D01*
X119123539Y-75362000D01*
X119929326Y-76167787D01*
X120100000Y-76074776D01*
X120100000Y-77286854D01*
X119993597Y-77127610D01*
X119824390Y-76958403D01*
X119625424Y-76825458D01*
X119404344Y-76733884D01*
X119169647Y-76687200D01*
X118930353Y-76687200D01*
X118695656Y-76733884D01*
X118474576Y-76825458D01*
X118275610Y-76958403D01*
X118106403Y-77127610D01*
X117973458Y-77326576D01*
X117881884Y-77547656D01*
X117835200Y-77782353D01*
X117835200Y-78021647D01*
X117881884Y-78256344D01*
X117973458Y-78477424D01*
X118106403Y-78676390D01*
X118275610Y-78845597D01*
X118474576Y-78978542D01*
X118695656Y-79070116D01*
X118930353Y-79116800D01*
X119169647Y-79116800D01*
X119404344Y-79070116D01*
X119625424Y-78978542D01*
X119824390Y-78845597D01*
X119993597Y-78676390D01*
X120100000Y-78517146D01*
X120100000Y-79826854D01*
X119993597Y-79667610D01*
X119824390Y-79498403D01*
X119625424Y-79365458D01*
X119404344Y-79273884D01*
X119169647Y-79227200D01*
X118930353Y-79227200D01*
X118695656Y-79273884D01*
X118474576Y-79365458D01*
X118275610Y-79498403D01*
X118106403Y-79667610D01*
X117973458Y-79866576D01*
X117881884Y-80087656D01*
X117835200Y-80322353D01*
X117835200Y-80561647D01*
X117881884Y-80796344D01*
X117973458Y-81017424D01*
X118106403Y-81216390D01*
X118275610Y-81385597D01*
X118474576Y-81518542D01*
X118695656Y-81610116D01*
X118930353Y-81656800D01*
X119169647Y-81656800D01*
X119404344Y-81610116D01*
X119625424Y-81518542D01*
X119824390Y-81385597D01*
X119993597Y-81216390D01*
X120100000Y-81057146D01*
X120100001Y-82366854D01*
X119993597Y-82207610D01*
X119824390Y-82038403D01*
X119625424Y-81905458D01*
X119404344Y-81813884D01*
X119169647Y-81767200D01*
X118930353Y-81767200D01*
X118695656Y-81813884D01*
X118474576Y-81905458D01*
X118275610Y-82038403D01*
X118106403Y-82207610D01*
X117973458Y-82406576D01*
X117881884Y-82627656D01*
X117835200Y-82862353D01*
X117835200Y-83101647D01*
X117881884Y-83336344D01*
X117973458Y-83557424D01*
X118106403Y-83756390D01*
X118275610Y-83925597D01*
X118474576Y-84058542D01*
X118695656Y-84150116D01*
X118930353Y-84196800D01*
X119169647Y-84196800D01*
X119404344Y-84150116D01*
X119625424Y-84058542D01*
X119824390Y-83925597D01*
X119993597Y-83756390D01*
X120100001Y-83597146D01*
X120100001Y-84906854D01*
X119993597Y-84747610D01*
X119824390Y-84578403D01*
X119625424Y-84445458D01*
X119404344Y-84353884D01*
X119169647Y-84307200D01*
X118930353Y-84307200D01*
X118695656Y-84353884D01*
X118474576Y-84445458D01*
X118275610Y-84578403D01*
X118106403Y-84747610D01*
X117973458Y-84946576D01*
X117881884Y-85167656D01*
X117835200Y-85402353D01*
X117835200Y-85641647D01*
X117881884Y-85876344D01*
X117973458Y-86097424D01*
X118106403Y-86296390D01*
X118275610Y-86465597D01*
X118474576Y-86598542D01*
X118695656Y-86690116D01*
X118930353Y-86736800D01*
X119169647Y-86736800D01*
X119404344Y-86690116D01*
X119625424Y-86598542D01*
X119824390Y-86465597D01*
X119993597Y-86296390D01*
X120100001Y-86137146D01*
X120100001Y-87446854D01*
X119993597Y-87287610D01*
X119824390Y-87118403D01*
X119625424Y-86985458D01*
X119404344Y-86893884D01*
X119169647Y-86847200D01*
X118930353Y-86847200D01*
X118695656Y-86893884D01*
X118474576Y-86985458D01*
X118275610Y-87118403D01*
X118106403Y-87287610D01*
X117973458Y-87486576D01*
X117881884Y-87707656D01*
X117835200Y-87942353D01*
X117835200Y-88181647D01*
X117881884Y-88416344D01*
X117973458Y-88637424D01*
X118106403Y-88836390D01*
X118275610Y-89005597D01*
X118474576Y-89138542D01*
X118695656Y-89230116D01*
X118930353Y-89276800D01*
X119169647Y-89276800D01*
X119404344Y-89230116D01*
X119625424Y-89138542D01*
X119824390Y-89005597D01*
X119993597Y-88836390D01*
X120100001Y-88677146D01*
X120100001Y-89986854D01*
X119993597Y-89827610D01*
X119824390Y-89658403D01*
X119625424Y-89525458D01*
X119404344Y-89433884D01*
X119169647Y-89387200D01*
X118930353Y-89387200D01*
X118695656Y-89433884D01*
X118474576Y-89525458D01*
X118275610Y-89658403D01*
X118106403Y-89827610D01*
X117973458Y-90026576D01*
X117881884Y-90247656D01*
X117835200Y-90482353D01*
X117835200Y-90721647D01*
X117881884Y-90956344D01*
X117973458Y-91177424D01*
X118106403Y-91376390D01*
X118275610Y-91545597D01*
X118474576Y-91678542D01*
X118695656Y-91770116D01*
X118930353Y-91816800D01*
X119169647Y-91816800D01*
X119404344Y-91770116D01*
X119625424Y-91678542D01*
X119824390Y-91545597D01*
X119993597Y-91376390D01*
X120100001Y-91217146D01*
X120100001Y-92526854D01*
X119993597Y-92367610D01*
X119824390Y-92198403D01*
X119625424Y-92065458D01*
X119404344Y-91973884D01*
X119169647Y-91927200D01*
X118930353Y-91927200D01*
X118695656Y-91973884D01*
X118474576Y-92065458D01*
X118275610Y-92198403D01*
X118106403Y-92367610D01*
X117973458Y-92566576D01*
X117881884Y-92787656D01*
X117835200Y-93022353D01*
X117835200Y-93261647D01*
X117881884Y-93496344D01*
X117973458Y-93717424D01*
X118106403Y-93916390D01*
X118275610Y-94085597D01*
X118474576Y-94218542D01*
X118695656Y-94310116D01*
X118930353Y-94356800D01*
X119169647Y-94356800D01*
X119404344Y-94310116D01*
X119625424Y-94218542D01*
X119824390Y-94085597D01*
X119993597Y-93916390D01*
X120100001Y-93757146D01*
X120100001Y-95066855D01*
X119993597Y-94907610D01*
X119824390Y-94738403D01*
X119625424Y-94605458D01*
X119404344Y-94513884D01*
X119169647Y-94467200D01*
X118930353Y-94467200D01*
X118695656Y-94513884D01*
X118474576Y-94605458D01*
X118275610Y-94738403D01*
X118106403Y-94907610D01*
X117973458Y-95106576D01*
X117881884Y-95327656D01*
X117835200Y-95562353D01*
X117835200Y-95801647D01*
X117881884Y-96036344D01*
X117973458Y-96257424D01*
X118106403Y-96456390D01*
X118250013Y-96600000D01*
X102069987Y-96600000D01*
X102213597Y-96456390D01*
X102346542Y-96257424D01*
X102438116Y-96036344D01*
X102484800Y-95801647D01*
X102484800Y-95562353D01*
X102438116Y-95327656D01*
X102346542Y-95106576D01*
X102213597Y-94907610D01*
X102044390Y-94738403D01*
X101845424Y-94605458D01*
X101624344Y-94513884D01*
X101389647Y-94467200D01*
X101150353Y-94467200D01*
X100915656Y-94513884D01*
X100694576Y-94605458D01*
X100495610Y-94738403D01*
X100326403Y-94907610D01*
X100200000Y-95096785D01*
X100200000Y-93727215D01*
X100326403Y-93916390D01*
X100495610Y-94085597D01*
X100694576Y-94218542D01*
X100915656Y-94310116D01*
X101150353Y-94356800D01*
X101389647Y-94356800D01*
X101624344Y-94310116D01*
X101845424Y-94218542D01*
X102044390Y-94085597D01*
X102213597Y-93916390D01*
X102346542Y-93717424D01*
X102438116Y-93496344D01*
X102484800Y-93261647D01*
X102484800Y-93022353D01*
X102438116Y-92787656D01*
X102346542Y-92566576D01*
X102213597Y-92367610D01*
X102044390Y-92198403D01*
X101845424Y-92065458D01*
X101624344Y-91973884D01*
X101389647Y-91927200D01*
X101150353Y-91927200D01*
X100915656Y-91973884D01*
X100694576Y-92065458D01*
X100495610Y-92198403D01*
X100326403Y-92367610D01*
X100200000Y-92556785D01*
X100200000Y-91187215D01*
X100326403Y-91376390D01*
X100495610Y-91545597D01*
X100694576Y-91678542D01*
X100915656Y-91770116D01*
X101150353Y-91816800D01*
X101389647Y-91816800D01*
X101624344Y-91770116D01*
X101845424Y-91678542D01*
X102044390Y-91545597D01*
X102213597Y-91376390D01*
X102346542Y-91177424D01*
X102438116Y-90956344D01*
X102484800Y-90721647D01*
X102484800Y-90482353D01*
X102438116Y-90247656D01*
X102346542Y-90026576D01*
X102213597Y-89827610D01*
X102044390Y-89658403D01*
X101845424Y-89525458D01*
X101624344Y-89433884D01*
X101389647Y-89387200D01*
X101150353Y-89387200D01*
X100915656Y-89433884D01*
X100694576Y-89525458D01*
X100495610Y-89658403D01*
X100326403Y-89827610D01*
X100200000Y-90016785D01*
X100200000Y-88647215D01*
X100326403Y-88836390D01*
X100495610Y-89005597D01*
X100694576Y-89138542D01*
X100915656Y-89230116D01*
X101150353Y-89276800D01*
X101389647Y-89276800D01*
X101624344Y-89230116D01*
X101845424Y-89138542D01*
X102044390Y-89005597D01*
X102213597Y-88836390D01*
X102346542Y-88637424D01*
X102438116Y-88416344D01*
X102484800Y-88181647D01*
X102484800Y-87942353D01*
X102438116Y-87707656D01*
X102346542Y-87486576D01*
X102213597Y-87287610D01*
X102044390Y-87118403D01*
X101845424Y-86985458D01*
X101624344Y-86893884D01*
X101389647Y-86847200D01*
X101150353Y-86847200D01*
X100915656Y-86893884D01*
X100694576Y-86985458D01*
X100495610Y-87118403D01*
X100326403Y-87287610D01*
X100200000Y-87476785D01*
X100200000Y-86107215D01*
X100326403Y-86296390D01*
X100495610Y-86465597D01*
X100694576Y-86598542D01*
X100915656Y-86690116D01*
X101150353Y-86736800D01*
X101389647Y-86736800D01*
X101624344Y-86690116D01*
X101660837Y-86675000D01*
X104369408Y-86675000D01*
X104375760Y-86739495D01*
X104394573Y-86801512D01*
X104425123Y-86858667D01*
X104466236Y-86908764D01*
X104516333Y-86949877D01*
X104573488Y-86980427D01*
X104635505Y-86999240D01*
X104700000Y-87005592D01*
X105265750Y-87004000D01*
X105348000Y-86921750D01*
X105348000Y-86152000D01*
X105452000Y-86152000D01*
X105452000Y-86921750D01*
X105534250Y-87004000D01*
X106100000Y-87005592D01*
X106164495Y-86999240D01*
X106226512Y-86980427D01*
X106283667Y-86949877D01*
X106333764Y-86908764D01*
X106374877Y-86858667D01*
X106405427Y-86801512D01*
X106424240Y-86739495D01*
X106430592Y-86675000D01*
X107569408Y-86675000D01*
X107575760Y-86739495D01*
X107594573Y-86801512D01*
X107625123Y-86858667D01*
X107666236Y-86908764D01*
X107716333Y-86949877D01*
X107773488Y-86980427D01*
X107835505Y-86999240D01*
X107900000Y-87005592D01*
X108465750Y-87004000D01*
X108548000Y-86921750D01*
X108548000Y-86152000D01*
X108652000Y-86152000D01*
X108652000Y-86921750D01*
X108734250Y-87004000D01*
X109300000Y-87005592D01*
X109364495Y-86999240D01*
X109426512Y-86980427D01*
X109483667Y-86949877D01*
X109533764Y-86908764D01*
X109574877Y-86858667D01*
X109605427Y-86801512D01*
X109624240Y-86739495D01*
X109630592Y-86675000D01*
X110769408Y-86675000D01*
X110775760Y-86739495D01*
X110794573Y-86801512D01*
X110825123Y-86858667D01*
X110866236Y-86908764D01*
X110916333Y-86949877D01*
X110973488Y-86980427D01*
X111035505Y-86999240D01*
X111100000Y-87005592D01*
X111665750Y-87004000D01*
X111748000Y-86921750D01*
X111748000Y-86152000D01*
X111852000Y-86152000D01*
X111852000Y-86921750D01*
X111934250Y-87004000D01*
X112500000Y-87005592D01*
X112564495Y-86999240D01*
X112626512Y-86980427D01*
X112683667Y-86949877D01*
X112733764Y-86908764D01*
X112774877Y-86858667D01*
X112805427Y-86801512D01*
X112824240Y-86739495D01*
X112830592Y-86675000D01*
X113969408Y-86675000D01*
X113975760Y-86739495D01*
X113994573Y-86801512D01*
X114025123Y-86858667D01*
X114066236Y-86908764D01*
X114116333Y-86949877D01*
X114173488Y-86980427D01*
X114235505Y-86999240D01*
X114300000Y-87005592D01*
X114865750Y-87004000D01*
X114948000Y-86921750D01*
X114948000Y-86152000D01*
X115052000Y-86152000D01*
X115052000Y-86921750D01*
X115134250Y-87004000D01*
X115700000Y-87005592D01*
X115764495Y-86999240D01*
X115826512Y-86980427D01*
X115883667Y-86949877D01*
X115933764Y-86908764D01*
X115974877Y-86858667D01*
X116005427Y-86801512D01*
X116024240Y-86739495D01*
X116030592Y-86675000D01*
X116029000Y-86234250D01*
X115946750Y-86152000D01*
X115052000Y-86152000D01*
X114948000Y-86152000D01*
X114053250Y-86152000D01*
X113971000Y-86234250D01*
X113969408Y-86675000D01*
X112830592Y-86675000D01*
X112829000Y-86234250D01*
X112746750Y-86152000D01*
X111852000Y-86152000D01*
X111748000Y-86152000D01*
X110853250Y-86152000D01*
X110771000Y-86234250D01*
X110769408Y-86675000D01*
X109630592Y-86675000D01*
X109629000Y-86234250D01*
X109546750Y-86152000D01*
X108652000Y-86152000D01*
X108548000Y-86152000D01*
X107653250Y-86152000D01*
X107571000Y-86234250D01*
X107569408Y-86675000D01*
X106430592Y-86675000D01*
X106429000Y-86234250D01*
X106346750Y-86152000D01*
X105452000Y-86152000D01*
X105348000Y-86152000D01*
X104453250Y-86152000D01*
X104371000Y-86234250D01*
X104369408Y-86675000D01*
X101660837Y-86675000D01*
X101845424Y-86598542D01*
X102044390Y-86465597D01*
X102213597Y-86296390D01*
X102346542Y-86097424D01*
X102438116Y-85876344D01*
X102484800Y-85641647D01*
X102484800Y-85525000D01*
X104369408Y-85525000D01*
X104371000Y-85965750D01*
X104453250Y-86048000D01*
X105348000Y-86048000D01*
X105348000Y-85278250D01*
X105452000Y-85278250D01*
X105452000Y-86048000D01*
X106346750Y-86048000D01*
X106429000Y-85965750D01*
X106430592Y-85525000D01*
X107569408Y-85525000D01*
X107571000Y-85965750D01*
X107653250Y-86048000D01*
X108548000Y-86048000D01*
X108548000Y-85278250D01*
X108652000Y-85278250D01*
X108652000Y-86048000D01*
X109546750Y-86048000D01*
X109629000Y-85965750D01*
X109630592Y-85525000D01*
X110769408Y-85525000D01*
X110771000Y-85965750D01*
X110853250Y-86048000D01*
X111748000Y-86048000D01*
X111748000Y-85278250D01*
X111852000Y-85278250D01*
X111852000Y-86048000D01*
X112746750Y-86048000D01*
X112829000Y-85965750D01*
X112830592Y-85525000D01*
X113969408Y-85525000D01*
X113971000Y-85965750D01*
X114053250Y-86048000D01*
X114948000Y-86048000D01*
X114948000Y-85278250D01*
X115052000Y-85278250D01*
X115052000Y-86048000D01*
X115946750Y-86048000D01*
X116029000Y-85965750D01*
X116030592Y-85525000D01*
X116024240Y-85460505D01*
X116005427Y-85398488D01*
X115974877Y-85341333D01*
X115933764Y-85291236D01*
X115883667Y-85250123D01*
X115826512Y-85219573D01*
X115764495Y-85200760D01*
X115700000Y-85194408D01*
X115134250Y-85196000D01*
X115052000Y-85278250D01*
X114948000Y-85278250D01*
X114865750Y-85196000D01*
X114300000Y-85194408D01*
X114235505Y-85200760D01*
X114173488Y-85219573D01*
X114116333Y-85250123D01*
X114066236Y-85291236D01*
X114025123Y-85341333D01*
X113994573Y-85398488D01*
X113975760Y-85460505D01*
X113969408Y-85525000D01*
X112830592Y-85525000D01*
X112824240Y-85460505D01*
X112805427Y-85398488D01*
X112774877Y-85341333D01*
X112733764Y-85291236D01*
X112683667Y-85250123D01*
X112626512Y-85219573D01*
X112564495Y-85200760D01*
X112500000Y-85194408D01*
X111934250Y-85196000D01*
X111852000Y-85278250D01*
X111748000Y-85278250D01*
X111665750Y-85196000D01*
X111100000Y-85194408D01*
X111035505Y-85200760D01*
X110973488Y-85219573D01*
X110916333Y-85250123D01*
X110866236Y-85291236D01*
X110825123Y-85341333D01*
X110794573Y-85398488D01*
X110775760Y-85460505D01*
X110769408Y-85525000D01*
X109630592Y-85525000D01*
X109624240Y-85460505D01*
X109605427Y-85398488D01*
X109574877Y-85341333D01*
X109533764Y-85291236D01*
X109483667Y-85250123D01*
X109426512Y-85219573D01*
X109364495Y-85200760D01*
X109300000Y-85194408D01*
X108734250Y-85196000D01*
X108652000Y-85278250D01*
X108548000Y-85278250D01*
X108465750Y-85196000D01*
X107900000Y-85194408D01*
X107835505Y-85200760D01*
X107773488Y-85219573D01*
X107716333Y-85250123D01*
X107666236Y-85291236D01*
X107625123Y-85341333D01*
X107594573Y-85398488D01*
X107575760Y-85460505D01*
X107569408Y-85525000D01*
X106430592Y-85525000D01*
X106424240Y-85460505D01*
X106405427Y-85398488D01*
X106374877Y-85341333D01*
X106333764Y-85291236D01*
X106283667Y-85250123D01*
X106226512Y-85219573D01*
X106164495Y-85200760D01*
X106100000Y-85194408D01*
X105534250Y-85196000D01*
X105452000Y-85278250D01*
X105348000Y-85278250D01*
X105265750Y-85196000D01*
X104700000Y-85194408D01*
X104635505Y-85200760D01*
X104573488Y-85219573D01*
X104516333Y-85250123D01*
X104466236Y-85291236D01*
X104425123Y-85341333D01*
X104394573Y-85398488D01*
X104375760Y-85460505D01*
X104369408Y-85525000D01*
X102484800Y-85525000D01*
X102484800Y-85402353D01*
X102438116Y-85167656D01*
X102346542Y-84946576D01*
X102213597Y-84747610D01*
X102044390Y-84578403D01*
X101845424Y-84445458D01*
X101624344Y-84353884D01*
X101389647Y-84307200D01*
X101150353Y-84307200D01*
X100915656Y-84353884D01*
X100694576Y-84445458D01*
X100495610Y-84578403D01*
X100326403Y-84747610D01*
X100200000Y-84936785D01*
X100200000Y-83567215D01*
X100326403Y-83756390D01*
X100495610Y-83925597D01*
X100694576Y-84058542D01*
X100915656Y-84150116D01*
X101150353Y-84196800D01*
X101389647Y-84196800D01*
X101624344Y-84150116D01*
X101845424Y-84058542D01*
X102044390Y-83925597D01*
X102213597Y-83756390D01*
X102346542Y-83557424D01*
X102438116Y-83336344D01*
X102484800Y-83101647D01*
X102484800Y-82862353D01*
X102438116Y-82627656D01*
X102346542Y-82406576D01*
X102213597Y-82207610D01*
X102044390Y-82038403D01*
X101845424Y-81905458D01*
X101624344Y-81813884D01*
X101389647Y-81767200D01*
X101150353Y-81767200D01*
X100915656Y-81813884D01*
X100694576Y-81905458D01*
X100495610Y-82038403D01*
X100326403Y-82207610D01*
X100200000Y-82396785D01*
X100200000Y-81027215D01*
X100326403Y-81216390D01*
X100495610Y-81385597D01*
X100694576Y-81518542D01*
X100915656Y-81610116D01*
X101150353Y-81656800D01*
X101389647Y-81656800D01*
X101624344Y-81610116D01*
X101845424Y-81518542D01*
X102044390Y-81385597D01*
X102213597Y-81216390D01*
X102346542Y-81017424D01*
X102438116Y-80796344D01*
X102484800Y-80561647D01*
X102484800Y-80322353D01*
X102438116Y-80087656D01*
X102346542Y-79866576D01*
X102213597Y-79667610D01*
X102044390Y-79498403D01*
X101845424Y-79365458D01*
X101624344Y-79273884D01*
X101389647Y-79227200D01*
X101150353Y-79227200D01*
X100915656Y-79273884D01*
X100694576Y-79365458D01*
X100495610Y-79498403D01*
X100326403Y-79667610D01*
X100200000Y-79856785D01*
X100200000Y-78487215D01*
X100326403Y-78676390D01*
X100495610Y-78845597D01*
X100694576Y-78978542D01*
X100915656Y-79070116D01*
X101150353Y-79116800D01*
X101389647Y-79116800D01*
X101624344Y-79070116D01*
X101845424Y-78978542D01*
X102044390Y-78845597D01*
X102213597Y-78676390D01*
X102346542Y-78477424D01*
X102438116Y-78256344D01*
X102484800Y-78021647D01*
X102484800Y-77782353D01*
X102438116Y-77547656D01*
X102346542Y-77326576D01*
X102213597Y-77127610D01*
X102044390Y-76958403D01*
X101845424Y-76825458D01*
X101624344Y-76733884D01*
X101389647Y-76687200D01*
X101150353Y-76687200D01*
X100915656Y-76733884D01*
X100694576Y-76825458D01*
X100495610Y-76958403D01*
X100326403Y-77127610D01*
X100200000Y-77316785D01*
X100200000Y-75947215D01*
X100326403Y-76136390D01*
X100495610Y-76305597D01*
X100694576Y-76438542D01*
X100915656Y-76530116D01*
X101150353Y-76576800D01*
X101389647Y-76576800D01*
X101624344Y-76530116D01*
X101845424Y-76438542D01*
X102044390Y-76305597D01*
X102213597Y-76136390D01*
X102346542Y-75937424D01*
X102438116Y-75716344D01*
X102484800Y-75481647D01*
X102484800Y-75242353D01*
X102438116Y-75007656D01*
X102346542Y-74786576D01*
X102213597Y-74587610D01*
X102044390Y-74418403D01*
X101845424Y-74285458D01*
X101624344Y-74193884D01*
X101389647Y-74147200D01*
X101150353Y-74147200D01*
X100915656Y-74193884D01*
X100694576Y-74285458D01*
X100495610Y-74418403D01*
X100326403Y-74587610D01*
X100200000Y-74776785D01*
X100200000Y-73407215D01*
X100326403Y-73596390D01*
X100495610Y-73765597D01*
X100694576Y-73898542D01*
X100915656Y-73990116D01*
X101150353Y-74036800D01*
X101389647Y-74036800D01*
X101624344Y-73990116D01*
X101845424Y-73898542D01*
X101992902Y-73800000D01*
X103098065Y-73800000D01*
X103100000Y-73819646D01*
X103100001Y-81380343D01*
X103098065Y-81400000D01*
X103105788Y-81478413D01*
X103128661Y-81553814D01*
X103165803Y-81623302D01*
X103203265Y-81668950D01*
X103203268Y-81668953D01*
X103215790Y-81684211D01*
X103231048Y-81696733D01*
X104303267Y-82768953D01*
X104315789Y-82784211D01*
X104331047Y-82796733D01*
X104331049Y-82796735D01*
X104376697Y-82834197D01*
X104446185Y-82871340D01*
X104521586Y-82894212D01*
X104600000Y-82901935D01*
X104619646Y-82900000D01*
X104855456Y-82900000D01*
X104875693Y-82930287D01*
X104969713Y-83024307D01*
X105000001Y-83044544D01*
X105000001Y-83198670D01*
X104949999Y-83198670D01*
X104847317Y-83208783D01*
X104748582Y-83238734D01*
X104657586Y-83287372D01*
X104577828Y-83352828D01*
X104512372Y-83432586D01*
X104463734Y-83523582D01*
X104433783Y-83622317D01*
X104423670Y-83724999D01*
X104423670Y-84375001D01*
X104433783Y-84477683D01*
X104463734Y-84576418D01*
X104512372Y-84667414D01*
X104577828Y-84747172D01*
X104657586Y-84812628D01*
X104748582Y-84861266D01*
X104847317Y-84891217D01*
X104949999Y-84901330D01*
X105850001Y-84901330D01*
X105952683Y-84891217D01*
X106051418Y-84861266D01*
X106142414Y-84812628D01*
X106222172Y-84747172D01*
X106287628Y-84667414D01*
X106336266Y-84576418D01*
X106366217Y-84477683D01*
X106376330Y-84375001D01*
X106376330Y-83724999D01*
X106366217Y-83622317D01*
X106336266Y-83523582D01*
X106287628Y-83432586D01*
X106222172Y-83352828D01*
X106142414Y-83287372D01*
X106051418Y-83238734D01*
X105952683Y-83208783D01*
X105850001Y-83198670D01*
X105800000Y-83198670D01*
X105800000Y-83044544D01*
X105830287Y-83024307D01*
X105924307Y-82930287D01*
X105998177Y-82819732D01*
X106049060Y-82696890D01*
X106075000Y-82566482D01*
X106075000Y-82433518D01*
X106049060Y-82303110D01*
X105998177Y-82180268D01*
X105924307Y-82069713D01*
X105830287Y-81975693D01*
X105800000Y-81955456D01*
X105800000Y-81851330D01*
X105850001Y-81851330D01*
X105952683Y-81841217D01*
X106051418Y-81811266D01*
X106142414Y-81762628D01*
X106222172Y-81697172D01*
X106287628Y-81617414D01*
X106336266Y-81526418D01*
X106366217Y-81427683D01*
X106376330Y-81325001D01*
X106376330Y-80958191D01*
X106401823Y-81019736D01*
X106475693Y-81130291D01*
X106569713Y-81224311D01*
X106600001Y-81244548D01*
X106600001Y-81680344D01*
X106598065Y-81700000D01*
X106605788Y-81778413D01*
X106628661Y-81853814D01*
X106665803Y-81923302D01*
X106703265Y-81968950D01*
X106703268Y-81968953D01*
X106715790Y-81984211D01*
X106731047Y-81996733D01*
X107503267Y-82768953D01*
X107515789Y-82784211D01*
X107531047Y-82796733D01*
X107531049Y-82796735D01*
X107576697Y-82834197D01*
X107646185Y-82871340D01*
X107721586Y-82894212D01*
X107800000Y-82901935D01*
X107819647Y-82900000D01*
X108200001Y-82900000D01*
X108200001Y-83198670D01*
X108149999Y-83198670D01*
X108047317Y-83208783D01*
X107948582Y-83238734D01*
X107857586Y-83287372D01*
X107777828Y-83352828D01*
X107712372Y-83432586D01*
X107663734Y-83523582D01*
X107633783Y-83622317D01*
X107623670Y-83724999D01*
X107623670Y-84375001D01*
X107633783Y-84477683D01*
X107663734Y-84576418D01*
X107712372Y-84667414D01*
X107777828Y-84747172D01*
X107857586Y-84812628D01*
X107948582Y-84861266D01*
X108047317Y-84891217D01*
X108149999Y-84901330D01*
X109050001Y-84901330D01*
X109152683Y-84891217D01*
X109251418Y-84861266D01*
X109342414Y-84812628D01*
X109422172Y-84747172D01*
X109487628Y-84667414D01*
X109536266Y-84576418D01*
X109566217Y-84477683D01*
X109576330Y-84375001D01*
X109576330Y-83724999D01*
X109566217Y-83622317D01*
X109536266Y-83523582D01*
X109487628Y-83432586D01*
X109422172Y-83352828D01*
X109342414Y-83287372D01*
X109251418Y-83238734D01*
X109152683Y-83208783D01*
X109050001Y-83198670D01*
X109000000Y-83198670D01*
X109000000Y-83106345D01*
X109103122Y-83149060D01*
X109233530Y-83175000D01*
X109366494Y-83175000D01*
X109496902Y-83149060D01*
X109619744Y-83098177D01*
X109730299Y-83024307D01*
X109824319Y-82930287D01*
X109898189Y-82819732D01*
X109949072Y-82696890D01*
X109975012Y-82566482D01*
X109975012Y-82433518D01*
X109949072Y-82303110D01*
X109898189Y-82180268D01*
X109824319Y-82069713D01*
X109730299Y-81975693D01*
X109619744Y-81901823D01*
X109496902Y-81850940D01*
X109366494Y-81825000D01*
X109233530Y-81825000D01*
X109153979Y-81840824D01*
X109251418Y-81811266D01*
X109342414Y-81762628D01*
X109422172Y-81697172D01*
X109487628Y-81617414D01*
X109536266Y-81526418D01*
X109566217Y-81427683D01*
X109576330Y-81325001D01*
X109576330Y-80674999D01*
X109566217Y-80572317D01*
X109536266Y-80473582D01*
X109487628Y-80382586D01*
X109422172Y-80302828D01*
X109342414Y-80237372D01*
X109251418Y-80188734D01*
X109152683Y-80158783D01*
X109050001Y-80148670D01*
X108149999Y-80148670D01*
X108047317Y-80158783D01*
X107948582Y-80188734D01*
X107857586Y-80237372D01*
X107777828Y-80302828D01*
X107712372Y-80382586D01*
X107663734Y-80473582D01*
X107651324Y-80514494D01*
X107649060Y-80503114D01*
X107598177Y-80380272D01*
X107524307Y-80269717D01*
X107430287Y-80175697D01*
X107319732Y-80101827D01*
X107196890Y-80050944D01*
X107066482Y-80025004D01*
X106933518Y-80025004D01*
X106803110Y-80050944D01*
X106680268Y-80101827D01*
X106569713Y-80175697D01*
X106475693Y-80269717D01*
X106401823Y-80380272D01*
X106350940Y-80503114D01*
X106348676Y-80514494D01*
X106336266Y-80473582D01*
X106287628Y-80382586D01*
X106222172Y-80302828D01*
X106142414Y-80237372D01*
X106051418Y-80188734D01*
X105952683Y-80158783D01*
X105850001Y-80148670D01*
X104949999Y-80148670D01*
X104847317Y-80158783D01*
X104748582Y-80188734D01*
X104657586Y-80237372D01*
X104577828Y-80302828D01*
X104512372Y-80382586D01*
X104463734Y-80473582D01*
X104433783Y-80572317D01*
X104423670Y-80674999D01*
X104423670Y-81325001D01*
X104433783Y-81427683D01*
X104463734Y-81526418D01*
X104512372Y-81617414D01*
X104577828Y-81697172D01*
X104657586Y-81762628D01*
X104748582Y-81811266D01*
X104847317Y-81841217D01*
X104949999Y-81851330D01*
X105000001Y-81851330D01*
X105000001Y-81955456D01*
X104969713Y-81975693D01*
X104875693Y-82069713D01*
X104855456Y-82100000D01*
X104765686Y-82100000D01*
X103900000Y-81234315D01*
X103900000Y-78624999D01*
X104423670Y-78624999D01*
X104423670Y-79275001D01*
X104433783Y-79377683D01*
X104463734Y-79476418D01*
X104512372Y-79567414D01*
X104577828Y-79647172D01*
X104657586Y-79712628D01*
X104748582Y-79761266D01*
X104847317Y-79791217D01*
X104949999Y-79801330D01*
X105850001Y-79801330D01*
X105952683Y-79791217D01*
X106051418Y-79761266D01*
X106142414Y-79712628D01*
X106222172Y-79647172D01*
X106287628Y-79567414D01*
X106336266Y-79476418D01*
X106366217Y-79377683D01*
X106368943Y-79350000D01*
X107631057Y-79350000D01*
X107633783Y-79377683D01*
X107663734Y-79476418D01*
X107712372Y-79567414D01*
X107777828Y-79647172D01*
X107857586Y-79712628D01*
X107948582Y-79761266D01*
X108047317Y-79791217D01*
X108149999Y-79801330D01*
X109050001Y-79801330D01*
X109152683Y-79791217D01*
X109251418Y-79761266D01*
X109342414Y-79712628D01*
X109422172Y-79647172D01*
X109487628Y-79567414D01*
X109536266Y-79476418D01*
X109566217Y-79377683D01*
X109568943Y-79350000D01*
X110831057Y-79350000D01*
X110833783Y-79377683D01*
X110863734Y-79476418D01*
X110912372Y-79567414D01*
X110977828Y-79647172D01*
X111057586Y-79712628D01*
X111148582Y-79761266D01*
X111247317Y-79791217D01*
X111349999Y-79801330D01*
X112250001Y-79801330D01*
X112352683Y-79791217D01*
X112451418Y-79761266D01*
X112542414Y-79712628D01*
X112622172Y-79647172D01*
X112687628Y-79567414D01*
X112736266Y-79476418D01*
X112766217Y-79377683D01*
X112776330Y-79275001D01*
X112776330Y-78624999D01*
X112766217Y-78522317D01*
X112736266Y-78423582D01*
X112687628Y-78332586D01*
X112622172Y-78252828D01*
X112542414Y-78187372D01*
X112451418Y-78138734D01*
X112352683Y-78108783D01*
X112250001Y-78098670D01*
X112200000Y-78098670D01*
X112200000Y-77965685D01*
X112655546Y-77510140D01*
X112669713Y-77524307D01*
X112780268Y-77598177D01*
X112903110Y-77649060D01*
X113033518Y-77675000D01*
X113166482Y-77675000D01*
X113296890Y-77649060D01*
X113419732Y-77598177D01*
X113469172Y-77565143D01*
X113131052Y-77903263D01*
X113115789Y-77915789D01*
X113065803Y-77976698D01*
X113028660Y-78046187D01*
X113017126Y-78084210D01*
X113005788Y-78121587D01*
X112998065Y-78200000D01*
X113000000Y-78219647D01*
X113000001Y-81634314D01*
X112534315Y-82100000D01*
X112344544Y-82100000D01*
X112324307Y-82069713D01*
X112230287Y-81975693D01*
X112200000Y-81955456D01*
X112200000Y-81851330D01*
X112250001Y-81851330D01*
X112352683Y-81841217D01*
X112451418Y-81811266D01*
X112542414Y-81762628D01*
X112622172Y-81697172D01*
X112687628Y-81617414D01*
X112736266Y-81526418D01*
X112766217Y-81427683D01*
X112776330Y-81325001D01*
X112776330Y-80674999D01*
X112766217Y-80572317D01*
X112736266Y-80473582D01*
X112687628Y-80382586D01*
X112622172Y-80302828D01*
X112542414Y-80237372D01*
X112451418Y-80188734D01*
X112352683Y-80158783D01*
X112250001Y-80148670D01*
X111349999Y-80148670D01*
X111247317Y-80158783D01*
X111148582Y-80188734D01*
X111057586Y-80237372D01*
X110977828Y-80302828D01*
X110912372Y-80382586D01*
X110863734Y-80473582D01*
X110833783Y-80572317D01*
X110823670Y-80674999D01*
X110823670Y-81325001D01*
X110833783Y-81427683D01*
X110863734Y-81526418D01*
X110912372Y-81617414D01*
X110977828Y-81697172D01*
X111057586Y-81762628D01*
X111148582Y-81811266D01*
X111247317Y-81841217D01*
X111349999Y-81851330D01*
X111400001Y-81851330D01*
X111400001Y-81955456D01*
X111369713Y-81975693D01*
X111275693Y-82069713D01*
X111201823Y-82180268D01*
X111150940Y-82303110D01*
X111125000Y-82433518D01*
X111125000Y-82566482D01*
X111150940Y-82696890D01*
X111201823Y-82819732D01*
X111275693Y-82930287D01*
X111369713Y-83024307D01*
X111400001Y-83044544D01*
X111400001Y-83198670D01*
X111349999Y-83198670D01*
X111247317Y-83208783D01*
X111148582Y-83238734D01*
X111057586Y-83287372D01*
X110977828Y-83352828D01*
X110912372Y-83432586D01*
X110863734Y-83523582D01*
X110833783Y-83622317D01*
X110823670Y-83724999D01*
X110823670Y-84375001D01*
X110833783Y-84477683D01*
X110863734Y-84576418D01*
X110912372Y-84667414D01*
X110977828Y-84747172D01*
X111057586Y-84812628D01*
X111148582Y-84861266D01*
X111247317Y-84891217D01*
X111349999Y-84901330D01*
X112250001Y-84901330D01*
X112352683Y-84891217D01*
X112451418Y-84861266D01*
X112542414Y-84812628D01*
X112622172Y-84747172D01*
X112687628Y-84667414D01*
X112736266Y-84576418D01*
X112766217Y-84477683D01*
X112776330Y-84375001D01*
X112776330Y-83724999D01*
X112766217Y-83622317D01*
X112736266Y-83523582D01*
X112687628Y-83432586D01*
X112622172Y-83352828D01*
X112542414Y-83287372D01*
X112451418Y-83238734D01*
X112352683Y-83208783D01*
X112250001Y-83198670D01*
X112200000Y-83198670D01*
X112200000Y-83044544D01*
X112230287Y-83024307D01*
X112324307Y-82930287D01*
X112344544Y-82900000D01*
X112680354Y-82900000D01*
X112700000Y-82901935D01*
X112719646Y-82900000D01*
X112719647Y-82900000D01*
X112778414Y-82894212D01*
X112853814Y-82871340D01*
X112923303Y-82834197D01*
X112984211Y-82784211D01*
X112996737Y-82768948D01*
X113668948Y-82096737D01*
X113684211Y-82084211D01*
X113734197Y-82023303D01*
X113771340Y-81953814D01*
X113794212Y-81878414D01*
X113800000Y-81819647D01*
X113800000Y-81819637D01*
X113801934Y-81800001D01*
X113800000Y-81780365D01*
X113800000Y-78365685D01*
X114268953Y-77896733D01*
X114284211Y-77884211D01*
X114334197Y-77823303D01*
X114371340Y-77753814D01*
X114394212Y-77678414D01*
X114400000Y-77619647D01*
X114400000Y-77619637D01*
X114401934Y-77600001D01*
X114400000Y-77580365D01*
X114400000Y-72719635D01*
X114401934Y-72699999D01*
X114400000Y-72680363D01*
X114400000Y-72680353D01*
X114394212Y-72621586D01*
X114371340Y-72546186D01*
X114334197Y-72476697D01*
X114284211Y-72415789D01*
X114268949Y-72403264D01*
X113896735Y-72031050D01*
X113884211Y-72015789D01*
X113823303Y-71965803D01*
X113753814Y-71928660D01*
X113678414Y-71905788D01*
X113619647Y-71900000D01*
X113619646Y-71900000D01*
X113600000Y-71898065D01*
X113580354Y-71900000D01*
X113321642Y-71900000D01*
X113345296Y-71855747D01*
X113361020Y-71803909D01*
X113366330Y-71750000D01*
X113366330Y-69650000D01*
X113361020Y-69596091D01*
X113345296Y-69544253D01*
X113319760Y-69496479D01*
X113285395Y-69454605D01*
X113243521Y-69420240D01*
X113195747Y-69394704D01*
X113143909Y-69378980D01*
X113140000Y-69378595D01*
X113140000Y-69325685D01*
X113165684Y-69300000D01*
X113255456Y-69300000D01*
X113275693Y-69330287D01*
X113369713Y-69424307D01*
X113480268Y-69498177D01*
X113603110Y-69549060D01*
X113733518Y-69575000D01*
X113866482Y-69575000D01*
X113996890Y-69549060D01*
X114119732Y-69498177D01*
X114230287Y-69424307D01*
X114324307Y-69330287D01*
X114398177Y-69219732D01*
X114449060Y-69096890D01*
X114475000Y-68966482D01*
X114475000Y-68833518D01*
X114449060Y-68703110D01*
X114398177Y-68580268D01*
X114324307Y-68469713D01*
X114230287Y-68375693D01*
X114119732Y-68301823D01*
X113996890Y-68250940D01*
X113866482Y-68225000D01*
X113733518Y-68225000D01*
X113603110Y-68250940D01*
X113480268Y-68301823D01*
X113369713Y-68375693D01*
X113275693Y-68469713D01*
X113255456Y-68500000D01*
X113019647Y-68500000D01*
X113000000Y-68498065D01*
X112980353Y-68500000D01*
X112921586Y-68505788D01*
X112846186Y-68528660D01*
X112776697Y-68565803D01*
X112715789Y-68615789D01*
X112703259Y-68631057D01*
X112471048Y-68863267D01*
X112455790Y-68875789D01*
X112443268Y-68891047D01*
X112443265Y-68891050D01*
X112405803Y-68936698D01*
X112368661Y-69006186D01*
X112345788Y-69081587D01*
X112338065Y-69160000D01*
X112340001Y-69179656D01*
X112340001Y-69378595D01*
X112336091Y-69378980D01*
X112284253Y-69394704D01*
X112236479Y-69420240D01*
X112194605Y-69454605D01*
X112160240Y-69496479D01*
X112134704Y-69544253D01*
X112118980Y-69596091D01*
X112113670Y-69650000D01*
X112113670Y-71750000D01*
X112118980Y-71803909D01*
X112134704Y-71855747D01*
X112158358Y-71900000D01*
X112051642Y-71900000D01*
X112075296Y-71855747D01*
X112091020Y-71803909D01*
X112096330Y-71750000D01*
X112096330Y-69650000D01*
X112091020Y-69596091D01*
X112075296Y-69544253D01*
X112049760Y-69496479D01*
X112015395Y-69454605D01*
X111973521Y-69420240D01*
X111925747Y-69394704D01*
X111873909Y-69378980D01*
X111870000Y-69378595D01*
X111870000Y-69084586D01*
X111924307Y-69030279D01*
X111998177Y-68919724D01*
X112049060Y-68796882D01*
X112075000Y-68666474D01*
X112075000Y-68533510D01*
X112049060Y-68403102D01*
X111998177Y-68280260D01*
X111924307Y-68169705D01*
X111830287Y-68075685D01*
X111719732Y-68001815D01*
X111596890Y-67950932D01*
X111466482Y-67924992D01*
X111333518Y-67924992D01*
X111203110Y-67950932D01*
X111080268Y-68001815D01*
X110969713Y-68075685D01*
X110875693Y-68169705D01*
X110801823Y-68280260D01*
X110750940Y-68403102D01*
X110725000Y-68533510D01*
X110725000Y-68666474D01*
X110750940Y-68796882D01*
X110801823Y-68919724D01*
X110875693Y-69030279D01*
X110969713Y-69124299D01*
X111070001Y-69191309D01*
X111070001Y-69378595D01*
X111066091Y-69378980D01*
X111014253Y-69394704D01*
X110966479Y-69420240D01*
X110924605Y-69454605D01*
X110890240Y-69496479D01*
X110864704Y-69544253D01*
X110848980Y-69596091D01*
X110843670Y-69650000D01*
X110843670Y-71750000D01*
X110848980Y-71803909D01*
X110864704Y-71855747D01*
X110888358Y-71900000D01*
X110781642Y-71900000D01*
X110805296Y-71855747D01*
X110821020Y-71803909D01*
X110826330Y-71750000D01*
X110826330Y-69650000D01*
X110821020Y-69596091D01*
X110805296Y-69544253D01*
X110779760Y-69496479D01*
X110745395Y-69454605D01*
X110703521Y-69420240D01*
X110655747Y-69394704D01*
X110603909Y-69378980D01*
X110550000Y-69373670D01*
X109850000Y-69373670D01*
X109796091Y-69378980D01*
X109744253Y-69394704D01*
X109696479Y-69420240D01*
X109654605Y-69454605D01*
X109620240Y-69496479D01*
X109594704Y-69544253D01*
X109578980Y-69596091D01*
X109573670Y-69650000D01*
X109573670Y-71750000D01*
X109578980Y-71803909D01*
X109594704Y-71855747D01*
X109620240Y-71903521D01*
X109654605Y-71945395D01*
X109696479Y-71979760D01*
X109744253Y-72005296D01*
X109796091Y-72021020D01*
X109800001Y-72021405D01*
X109800001Y-72180344D01*
X109798065Y-72200000D01*
X109805788Y-72278413D01*
X109828661Y-72353814D01*
X109865803Y-72423302D01*
X109903265Y-72468950D01*
X109903268Y-72468953D01*
X109915790Y-72484211D01*
X109931049Y-72496734D01*
X110003259Y-72568943D01*
X110015789Y-72584211D01*
X110076697Y-72634197D01*
X110146186Y-72671340D01*
X110221586Y-72694212D01*
X110280353Y-72700000D01*
X110280363Y-72700000D01*
X110299999Y-72701934D01*
X110319635Y-72700000D01*
X113434315Y-72700000D01*
X113600000Y-72865685D01*
X113600001Y-76545407D01*
X113530287Y-76475693D01*
X113419732Y-76401823D01*
X113296890Y-76350940D01*
X113166482Y-76325000D01*
X113033518Y-76325000D01*
X112903110Y-76350940D01*
X112780268Y-76401823D01*
X112669713Y-76475693D01*
X112575693Y-76569713D01*
X112553702Y-76602625D01*
X112521586Y-76605788D01*
X112446185Y-76628660D01*
X112376697Y-76665803D01*
X112331049Y-76703265D01*
X112331047Y-76703267D01*
X112315789Y-76715789D01*
X112303267Y-76731047D01*
X111531047Y-77503267D01*
X111515790Y-77515789D01*
X111503268Y-77531047D01*
X111503265Y-77531050D01*
X111465803Y-77576698D01*
X111428661Y-77646186D01*
X111405788Y-77721587D01*
X111398065Y-77800000D01*
X111400001Y-77819656D01*
X111400001Y-78098670D01*
X111349999Y-78098670D01*
X111247317Y-78108783D01*
X111148582Y-78138734D01*
X111057586Y-78187372D01*
X110977828Y-78252828D01*
X110912372Y-78332586D01*
X110863734Y-78423582D01*
X110833783Y-78522317D01*
X110831057Y-78550000D01*
X109568943Y-78550000D01*
X109566217Y-78522317D01*
X109536266Y-78423582D01*
X109487628Y-78332586D01*
X109422172Y-78252828D01*
X109342414Y-78187372D01*
X109251418Y-78138734D01*
X109152683Y-78108783D01*
X109050001Y-78098670D01*
X108149999Y-78098670D01*
X108047317Y-78108783D01*
X107948582Y-78138734D01*
X107857586Y-78187372D01*
X107777828Y-78252828D01*
X107712372Y-78332586D01*
X107663734Y-78423582D01*
X107633783Y-78522317D01*
X107631057Y-78550000D01*
X106368943Y-78550000D01*
X106366217Y-78522317D01*
X106336266Y-78423582D01*
X106287628Y-78332586D01*
X106222172Y-78252828D01*
X106142414Y-78187372D01*
X106051418Y-78138734D01*
X105952683Y-78108783D01*
X105850001Y-78098670D01*
X104949999Y-78098670D01*
X104847317Y-78108783D01*
X104748582Y-78138734D01*
X104657586Y-78187372D01*
X104577828Y-78252828D01*
X104512372Y-78332586D01*
X104463734Y-78423582D01*
X104433783Y-78522317D01*
X104423670Y-78624999D01*
X103900000Y-78624999D01*
X103900000Y-73965685D01*
X104215685Y-73650000D01*
X107033670Y-73650000D01*
X107033670Y-75750000D01*
X107038980Y-75803909D01*
X107054704Y-75855747D01*
X107080240Y-75903521D01*
X107114605Y-75945395D01*
X107156479Y-75979760D01*
X107204253Y-76005296D01*
X107256091Y-76021020D01*
X107260001Y-76021405D01*
X107260001Y-76393189D01*
X107201817Y-76480268D01*
X107150934Y-76603110D01*
X107124994Y-76733518D01*
X107124994Y-76866482D01*
X107150934Y-76996890D01*
X107201817Y-77119732D01*
X107275687Y-77230287D01*
X107369707Y-77324307D01*
X107480262Y-77398177D01*
X107603104Y-77449060D01*
X107733512Y-77475000D01*
X107866476Y-77475000D01*
X107996884Y-77449060D01*
X108119726Y-77398177D01*
X108230281Y-77324307D01*
X108324301Y-77230287D01*
X108398171Y-77119732D01*
X108449054Y-76996890D01*
X108474994Y-76866482D01*
X108474994Y-76733518D01*
X108449054Y-76603110D01*
X108398171Y-76480268D01*
X108324301Y-76369713D01*
X108230281Y-76275693D01*
X108119726Y-76201823D01*
X108060000Y-76177084D01*
X108060000Y-76021405D01*
X108063909Y-76021020D01*
X108115747Y-76005296D01*
X108163521Y-75979760D01*
X108205395Y-75945395D01*
X108239760Y-75903521D01*
X108265296Y-75855747D01*
X108266785Y-75850839D01*
X108274573Y-75876512D01*
X108305123Y-75933667D01*
X108346236Y-75983764D01*
X108396333Y-76024877D01*
X108453488Y-76055427D01*
X108515505Y-76074240D01*
X108580000Y-76080592D01*
X108795750Y-76079000D01*
X108878000Y-75996750D01*
X108878000Y-74752000D01*
X108982000Y-74752000D01*
X108982000Y-75996750D01*
X109064250Y-76079000D01*
X109280000Y-76080592D01*
X109344495Y-76074240D01*
X109406512Y-76055427D01*
X109463667Y-76024877D01*
X109513764Y-75983764D01*
X109554877Y-75933667D01*
X109565000Y-75914728D01*
X109575123Y-75933667D01*
X109616236Y-75983764D01*
X109666333Y-76024877D01*
X109723488Y-76055427D01*
X109785505Y-76074240D01*
X109850000Y-76080592D01*
X110065750Y-76079000D01*
X110148000Y-75996750D01*
X110148000Y-74752000D01*
X109603250Y-74752000D01*
X109565000Y-74790250D01*
X109526750Y-74752000D01*
X108982000Y-74752000D01*
X108878000Y-74752000D01*
X108858000Y-74752000D01*
X108858000Y-74648000D01*
X108878000Y-74648000D01*
X108878000Y-73403250D01*
X108795750Y-73321000D01*
X108580000Y-73319408D01*
X108515505Y-73325760D01*
X108453488Y-73344573D01*
X108396333Y-73375123D01*
X108346236Y-73416236D01*
X108305123Y-73466333D01*
X108274573Y-73523488D01*
X108266785Y-73549161D01*
X108265296Y-73544253D01*
X108239760Y-73496479D01*
X108205395Y-73454605D01*
X108163521Y-73420240D01*
X108115747Y-73394704D01*
X108063909Y-73378980D01*
X108010000Y-73373670D01*
X107310000Y-73373670D01*
X107256091Y-73378980D01*
X107204253Y-73394704D01*
X107156479Y-73420240D01*
X107114605Y-73454605D01*
X107080240Y-73496479D01*
X107054704Y-73544253D01*
X107038980Y-73596091D01*
X107033670Y-73650000D01*
X104215685Y-73650000D01*
X105032167Y-72833518D01*
X105625004Y-72833518D01*
X105625004Y-72966482D01*
X105650944Y-73096890D01*
X105701827Y-73219732D01*
X105775697Y-73330287D01*
X105869717Y-73424307D01*
X105980272Y-73498177D01*
X106103114Y-73549060D01*
X106233522Y-73575000D01*
X106366486Y-73575000D01*
X106496894Y-73549060D01*
X106619736Y-73498177D01*
X106730291Y-73424307D01*
X106824311Y-73330287D01*
X106898181Y-73219732D01*
X106906354Y-73200000D01*
X109034315Y-73200000D01*
X109154648Y-73320333D01*
X109064250Y-73321000D01*
X108982000Y-73403250D01*
X108982000Y-74648000D01*
X109526750Y-74648000D01*
X109565000Y-74609750D01*
X109603250Y-74648000D01*
X110148000Y-74648000D01*
X110148000Y-74628000D01*
X110252000Y-74628000D01*
X110252000Y-74648000D01*
X110272000Y-74648000D01*
X110272000Y-74752000D01*
X110252000Y-74752000D01*
X110252000Y-75996750D01*
X110334250Y-76079000D01*
X110550000Y-76080592D01*
X110614495Y-76074240D01*
X110676512Y-76055427D01*
X110733667Y-76024877D01*
X110783764Y-75983764D01*
X110824877Y-75933667D01*
X110855427Y-75876512D01*
X110863215Y-75850839D01*
X110864704Y-75855747D01*
X110890240Y-75903521D01*
X110924605Y-75945395D01*
X110966479Y-75979760D01*
X111014253Y-76005296D01*
X111066091Y-76021020D01*
X111120000Y-76026330D01*
X111820000Y-76026330D01*
X111873909Y-76021020D01*
X111925747Y-76005296D01*
X111973521Y-75979760D01*
X112015395Y-75945395D01*
X112049760Y-75903521D01*
X112075296Y-75855747D01*
X112076785Y-75850839D01*
X112084573Y-75876512D01*
X112115123Y-75933667D01*
X112156236Y-75983764D01*
X112206333Y-76024877D01*
X112263488Y-76055427D01*
X112325505Y-76074240D01*
X112390000Y-76080592D01*
X112605750Y-76079000D01*
X112688000Y-75996750D01*
X112688000Y-74752000D01*
X112792000Y-74752000D01*
X112792000Y-75996750D01*
X112874250Y-76079000D01*
X113090000Y-76080592D01*
X113154495Y-76074240D01*
X113216512Y-76055427D01*
X113273667Y-76024877D01*
X113323764Y-75983764D01*
X113364877Y-75933667D01*
X113395427Y-75876512D01*
X113414240Y-75814495D01*
X113420592Y-75750000D01*
X113419000Y-74834250D01*
X113336750Y-74752000D01*
X112792000Y-74752000D01*
X112688000Y-74752000D01*
X112668000Y-74752000D01*
X112668000Y-74648000D01*
X112688000Y-74648000D01*
X112688000Y-73403250D01*
X112792000Y-73403250D01*
X112792000Y-74648000D01*
X113336750Y-74648000D01*
X113419000Y-74565750D01*
X113420592Y-73650000D01*
X113414240Y-73585505D01*
X113395427Y-73523488D01*
X113364877Y-73466333D01*
X113323764Y-73416236D01*
X113273667Y-73375123D01*
X113216512Y-73344573D01*
X113154495Y-73325760D01*
X113090000Y-73319408D01*
X112874250Y-73321000D01*
X112792000Y-73403250D01*
X112688000Y-73403250D01*
X112605750Y-73321000D01*
X112390000Y-73319408D01*
X112325505Y-73325760D01*
X112263488Y-73344573D01*
X112206333Y-73375123D01*
X112156236Y-73416236D01*
X112115123Y-73466333D01*
X112084573Y-73523488D01*
X112076785Y-73549161D01*
X112075296Y-73544253D01*
X112049760Y-73496479D01*
X112015395Y-73454605D01*
X111973521Y-73420240D01*
X111925747Y-73394704D01*
X111873909Y-73378980D01*
X111871077Y-73378701D01*
X111871934Y-73369999D01*
X111870000Y-73350363D01*
X111870000Y-73350353D01*
X111864212Y-73291586D01*
X111841340Y-73216186D01*
X111804197Y-73146697D01*
X111754211Y-73085789D01*
X111738948Y-73073263D01*
X111596737Y-72931052D01*
X111584211Y-72915789D01*
X111523303Y-72865803D01*
X111453814Y-72828660D01*
X111378414Y-72805788D01*
X111319647Y-72800000D01*
X111319646Y-72800000D01*
X111300000Y-72798065D01*
X111280354Y-72800000D01*
X109765685Y-72800000D01*
X109496737Y-72531052D01*
X109484211Y-72515789D01*
X109423303Y-72465803D01*
X109353814Y-72428660D01*
X109278414Y-72405788D01*
X109219647Y-72400000D01*
X109219646Y-72400000D01*
X109200000Y-72398065D01*
X109180354Y-72400000D01*
X106754598Y-72400000D01*
X106730291Y-72375693D01*
X106619736Y-72301823D01*
X106496894Y-72250940D01*
X106366486Y-72225000D01*
X106233522Y-72225000D01*
X106103114Y-72250940D01*
X105980272Y-72301823D01*
X105869717Y-72375693D01*
X105775697Y-72469713D01*
X105701827Y-72580268D01*
X105650944Y-72703110D01*
X105625004Y-72833518D01*
X105032167Y-72833518D01*
X106765686Y-71100000D01*
X107033670Y-71100000D01*
X107033670Y-71750000D01*
X107038980Y-71803909D01*
X107054704Y-71855747D01*
X107080240Y-71903521D01*
X107114605Y-71945395D01*
X107156479Y-71979760D01*
X107204253Y-72005296D01*
X107256091Y-72021020D01*
X107310000Y-72026330D01*
X108010000Y-72026330D01*
X108063909Y-72021020D01*
X108115747Y-72005296D01*
X108163521Y-71979760D01*
X108205395Y-71945395D01*
X108239760Y-71903521D01*
X108265296Y-71855747D01*
X108281020Y-71803909D01*
X108286330Y-71750000D01*
X108286330Y-69650000D01*
X108281020Y-69596091D01*
X108265296Y-69544253D01*
X108239760Y-69496479D01*
X108205395Y-69454605D01*
X108163521Y-69420240D01*
X108115747Y-69394704D01*
X108063909Y-69378980D01*
X108010000Y-69373670D01*
X107310000Y-69373670D01*
X107256091Y-69378980D01*
X107204253Y-69394704D01*
X107156479Y-69420240D01*
X107114605Y-69454605D01*
X107080240Y-69496479D01*
X107054704Y-69544253D01*
X107038980Y-69596091D01*
X107033670Y-69650000D01*
X107033670Y-70300000D01*
X106619643Y-70300000D01*
X106599999Y-70298065D01*
X106580355Y-70300000D01*
X106580353Y-70300000D01*
X106521586Y-70305788D01*
X106446186Y-70328660D01*
X106386779Y-70360414D01*
X106376697Y-70365803D01*
X106331049Y-70403265D01*
X106331047Y-70403267D01*
X106315789Y-70415789D01*
X106303267Y-70431047D01*
X103231052Y-73503263D01*
X103215789Y-73515789D01*
X103165803Y-73576698D01*
X103128660Y-73646187D01*
X103105788Y-73721586D01*
X103105788Y-73721587D01*
X103098065Y-73800000D01*
X101992902Y-73800000D01*
X102044390Y-73765597D01*
X102213597Y-73596390D01*
X102346542Y-73397424D01*
X102438116Y-73176344D01*
X102484800Y-72941647D01*
X102484800Y-72702353D01*
X102438116Y-72467656D01*
X102346542Y-72246576D01*
X102213597Y-72047610D01*
X102044390Y-71878403D01*
X101845424Y-71745458D01*
X101624344Y-71653884D01*
X101389647Y-71607200D01*
X101150353Y-71607200D01*
X100915656Y-71653884D01*
X100694576Y-71745458D01*
X100495610Y-71878403D01*
X100326403Y-72047610D01*
X100200000Y-72236785D01*
X100200000Y-71161326D01*
X100464213Y-71161326D01*
X100563302Y-71343154D01*
X100783902Y-71460634D01*
X101023183Y-71532820D01*
X101271948Y-71556937D01*
X101520639Y-71532059D01*
X101759698Y-71459143D01*
X101976698Y-71343154D01*
X102075787Y-71161326D01*
X101270000Y-70355539D01*
X100464213Y-71161326D01*
X100200000Y-71161326D01*
X100200000Y-70972148D01*
X100208846Y-70988698D01*
X100390674Y-71087787D01*
X101196461Y-70282000D01*
X101343539Y-70282000D01*
X102149326Y-71087787D01*
X102331154Y-70988698D01*
X102448634Y-70768098D01*
X102520820Y-70528817D01*
X102544937Y-70280052D01*
X102520059Y-70031361D01*
X102447143Y-69792302D01*
X102331154Y-69575302D01*
X102149326Y-69476213D01*
X101343539Y-70282000D01*
X101196461Y-70282000D01*
X100390674Y-69476213D01*
X100208846Y-69575302D01*
X100200000Y-69591913D01*
X100200000Y-69402674D01*
X100464213Y-69402674D01*
X101270000Y-70208461D01*
X102075787Y-69402674D01*
X101976698Y-69220846D01*
X101756098Y-69103366D01*
X101516817Y-69031180D01*
X101268052Y-69007063D01*
X101019361Y-69031941D01*
X100780302Y-69104857D01*
X100563302Y-69220846D01*
X100464213Y-69402674D01*
X100200000Y-69402674D01*
X100200000Y-68327215D01*
X100326403Y-68516390D01*
X100495610Y-68685597D01*
X100694576Y-68818542D01*
X100915656Y-68910116D01*
X101150353Y-68956800D01*
X101389647Y-68956800D01*
X101624344Y-68910116D01*
X101845424Y-68818542D01*
X102044390Y-68685597D01*
X102096469Y-68633518D01*
X108225000Y-68633518D01*
X108225000Y-68766482D01*
X108250940Y-68896890D01*
X108301823Y-69019732D01*
X108375693Y-69130287D01*
X108469713Y-69224307D01*
X108530001Y-69264590D01*
X108530001Y-69378595D01*
X108526091Y-69378980D01*
X108474253Y-69394704D01*
X108426479Y-69420240D01*
X108384605Y-69454605D01*
X108350240Y-69496479D01*
X108324704Y-69544253D01*
X108308980Y-69596091D01*
X108303670Y-69650000D01*
X108303670Y-71750000D01*
X108308980Y-71803909D01*
X108324704Y-71855747D01*
X108350240Y-71903521D01*
X108384605Y-71945395D01*
X108426479Y-71979760D01*
X108474253Y-72005296D01*
X108526091Y-72021020D01*
X108580000Y-72026330D01*
X109280000Y-72026330D01*
X109333909Y-72021020D01*
X109385747Y-72005296D01*
X109433521Y-71979760D01*
X109475395Y-71945395D01*
X109509760Y-71903521D01*
X109535296Y-71855747D01*
X109551020Y-71803909D01*
X109556330Y-71750000D01*
X109556330Y-69650000D01*
X109551020Y-69596091D01*
X109535296Y-69544253D01*
X109509760Y-69496479D01*
X109475395Y-69454605D01*
X109433521Y-69420240D01*
X109385747Y-69394704D01*
X109333909Y-69378980D01*
X109330000Y-69378595D01*
X109330000Y-69224499D01*
X109330287Y-69224307D01*
X109424307Y-69130287D01*
X109498177Y-69019732D01*
X109549060Y-68896890D01*
X109575000Y-68766482D01*
X109575000Y-68633518D01*
X109549060Y-68503110D01*
X109498177Y-68380268D01*
X109424307Y-68269713D01*
X109330287Y-68175693D01*
X109219732Y-68101823D01*
X109096890Y-68050940D01*
X108966482Y-68025000D01*
X108833518Y-68025000D01*
X108703110Y-68050940D01*
X108580268Y-68101823D01*
X108469713Y-68175693D01*
X108375693Y-68269713D01*
X108301823Y-68380268D01*
X108250940Y-68503110D01*
X108225000Y-68633518D01*
X102096469Y-68633518D01*
X102213597Y-68516390D01*
X102346542Y-68317424D01*
X102438116Y-68096344D01*
X102484800Y-67861647D01*
X102484800Y-67622353D01*
X102438116Y-67387656D01*
X102346542Y-67166576D01*
X102213597Y-66967610D01*
X102044390Y-66798403D01*
X101897120Y-66700000D01*
X118422880Y-66700000D01*
X118275610Y-66798403D01*
G37*
X118275610Y-66798403D02*
X118106403Y-66967610D01*
X117973458Y-67166576D01*
X117900795Y-67342000D01*
X117740570Y-67342000D01*
X117720923Y-67340065D01*
X117701276Y-67342000D01*
X117642509Y-67347788D01*
X117567109Y-67370660D01*
X117497620Y-67407803D01*
X117436712Y-67457789D01*
X117424186Y-67473052D01*
X115431048Y-69466190D01*
X115415790Y-69478712D01*
X115403268Y-69493970D01*
X115403265Y-69493973D01*
X115365803Y-69539621D01*
X115328661Y-69609109D01*
X115305788Y-69684510D01*
X115298065Y-69762923D01*
X115300001Y-69782579D01*
X115300000Y-75555456D01*
X115269713Y-75575693D01*
X115175693Y-75669713D01*
X115101823Y-75780268D01*
X115050940Y-75903110D01*
X115025000Y-76033518D01*
X115025000Y-76166482D01*
X115050940Y-76296890D01*
X115101823Y-76419732D01*
X115175693Y-76530287D01*
X115269713Y-76624307D01*
X115300001Y-76644544D01*
X115300000Y-77034315D01*
X114731048Y-77603267D01*
X114715790Y-77615789D01*
X114703268Y-77631047D01*
X114703265Y-77631050D01*
X114665803Y-77676698D01*
X114628661Y-77746186D01*
X114605788Y-77821587D01*
X114598065Y-77900000D01*
X114600001Y-77919656D01*
X114600001Y-78098670D01*
X114549999Y-78098670D01*
X114447317Y-78108783D01*
X114348582Y-78138734D01*
X114257586Y-78187372D01*
X114177828Y-78252828D01*
X114112372Y-78332586D01*
X114063734Y-78423582D01*
X114033783Y-78522317D01*
X114023670Y-78624999D01*
X114023670Y-79275001D01*
X114033783Y-79377683D01*
X114063734Y-79476418D01*
X114112372Y-79567414D01*
X114177828Y-79647172D01*
X114257586Y-79712628D01*
X114348582Y-79761266D01*
X114447317Y-79791217D01*
X114549999Y-79801330D01*
X115450001Y-79801330D01*
X115552683Y-79791217D01*
X115651418Y-79761266D01*
X115742414Y-79712628D01*
X115822172Y-79647172D01*
X115887628Y-79567414D01*
X115936266Y-79476418D01*
X115966217Y-79377683D01*
X115976330Y-79275001D01*
X115976330Y-78624999D01*
X115966217Y-78522317D01*
X115936266Y-78423582D01*
X115887628Y-78332586D01*
X115822172Y-78252828D01*
X115742414Y-78187372D01*
X115651418Y-78138734D01*
X115552683Y-78108783D01*
X115450001Y-78098670D01*
X115400000Y-78098670D01*
X115400000Y-78065685D01*
X115968949Y-77496736D01*
X115984211Y-77484211D01*
X116034197Y-77423303D01*
X116071340Y-77353814D01*
X116094212Y-77278414D01*
X116100000Y-77219647D01*
X116100000Y-77219637D01*
X116101934Y-77200001D01*
X116100000Y-77180365D01*
X116100000Y-76644544D01*
X116130287Y-76624307D01*
X116224307Y-76530287D01*
X116298177Y-76419732D01*
X116349060Y-76296890D01*
X116375000Y-76166482D01*
X116375000Y-76033518D01*
X116349060Y-75903110D01*
X116298177Y-75780268D01*
X116224307Y-75669713D01*
X116130287Y-75575693D01*
X116100000Y-75555456D01*
X116100000Y-69928608D01*
X117886608Y-68142000D01*
X117900795Y-68142000D01*
X117973458Y-68317424D01*
X118106403Y-68516390D01*
X118275610Y-68685597D01*
X118474576Y-68818542D01*
X118695656Y-68910116D01*
X118930353Y-68956800D01*
X119169647Y-68956800D01*
X119404344Y-68910116D01*
X119625424Y-68818542D01*
X119824390Y-68685597D01*
X119993597Y-68516390D01*
X120100000Y-68357147D01*
X120100000Y-69666853D01*
X119993597Y-69507610D01*
X119824390Y-69338403D01*
X119625424Y-69205458D01*
X119404344Y-69113884D01*
X119169647Y-69067200D01*
X118930353Y-69067200D01*
X118695656Y-69113884D01*
X118474576Y-69205458D01*
X118275610Y-69338403D01*
X118106403Y-69507610D01*
X117973458Y-69706576D01*
X117900795Y-69882000D01*
X117737635Y-69882000D01*
X117717999Y-69880066D01*
X117698363Y-69882000D01*
X117698353Y-69882000D01*
X117639586Y-69887788D01*
X117564186Y-69910660D01*
X117494697Y-69947803D01*
X117494695Y-69947804D01*
X117494696Y-69947804D01*
X117449049Y-69985265D01*
X117449047Y-69985267D01*
X117433789Y-69997789D01*
X117421267Y-70013047D01*
X116549052Y-70885263D01*
X116533789Y-70897789D01*
X116483803Y-70958698D01*
X116446660Y-71028187D01*
X116438105Y-71056390D01*
X116423788Y-71103587D01*
X116416065Y-71182000D01*
X116418000Y-71201646D01*
X116418001Y-81516314D01*
X115834315Y-82100000D01*
X115400000Y-82100000D01*
X115400000Y-81851330D01*
X115450001Y-81851330D01*
X115552683Y-81841217D01*
X115651418Y-81811266D01*
X115742414Y-81762628D01*
X115822172Y-81697172D01*
X115887628Y-81617414D01*
X115936266Y-81526418D01*
X115966217Y-81427683D01*
X115976330Y-81325001D01*
X115976330Y-80674999D01*
X115966217Y-80572317D01*
X115936266Y-80473582D01*
X115887628Y-80382586D01*
X115822172Y-80302828D01*
X115742414Y-80237372D01*
X115651418Y-80188734D01*
X115552683Y-80158783D01*
X115450001Y-80148670D01*
X114549999Y-80148670D01*
X114447317Y-80158783D01*
X114348582Y-80188734D01*
X114257586Y-80237372D01*
X114177828Y-80302828D01*
X114112372Y-80382586D01*
X114063734Y-80473582D01*
X114033783Y-80572317D01*
X114023670Y-80674999D01*
X114023670Y-81325001D01*
X114033783Y-81427683D01*
X114063734Y-81526418D01*
X114112372Y-81617414D01*
X114177828Y-81697172D01*
X114257586Y-81762628D01*
X114348582Y-81811266D01*
X114447317Y-81841217D01*
X114549999Y-81851330D01*
X114600001Y-81851330D01*
X114600001Y-82480343D01*
X114598065Y-82500000D01*
X114600001Y-82519657D01*
X114600001Y-83198670D01*
X114549999Y-83198670D01*
X114447317Y-83208783D01*
X114348582Y-83238734D01*
X114257586Y-83287372D01*
X114177828Y-83352828D01*
X114112372Y-83432586D01*
X114063734Y-83523582D01*
X114033783Y-83622317D01*
X114023670Y-83724999D01*
X114023670Y-84375001D01*
X114033783Y-84477683D01*
X114063734Y-84576418D01*
X114112372Y-84667414D01*
X114177828Y-84747172D01*
X114257586Y-84812628D01*
X114348582Y-84861266D01*
X114447317Y-84891217D01*
X114549999Y-84901330D01*
X115450001Y-84901330D01*
X115552683Y-84891217D01*
X115651418Y-84861266D01*
X115742414Y-84812628D01*
X115822172Y-84747172D01*
X115887628Y-84667414D01*
X115936266Y-84576418D01*
X115966217Y-84477683D01*
X115976330Y-84375001D01*
X115976330Y-83724999D01*
X115966217Y-83622317D01*
X115936266Y-83523582D01*
X115887628Y-83432586D01*
X115822172Y-83352828D01*
X115742414Y-83287372D01*
X115651418Y-83238734D01*
X115552683Y-83208783D01*
X115450001Y-83198670D01*
X115400000Y-83198670D01*
X115400000Y-82900000D01*
X115980354Y-82900000D01*
X116000000Y-82901935D01*
X116019646Y-82900000D01*
X116019647Y-82900000D01*
X116078414Y-82894212D01*
X116153814Y-82871340D01*
X116223303Y-82834197D01*
X116284211Y-82784211D01*
X116296737Y-82768948D01*
X117086948Y-81978737D01*
X117102211Y-81966211D01*
X117152197Y-81905303D01*
X117189340Y-81835814D01*
X117212212Y-81760414D01*
X117218000Y-81701647D01*
X117219935Y-81682000D01*
X117218000Y-81662353D01*
X117218000Y-76241326D01*
X118244213Y-76241326D01*
X118343302Y-76423154D01*
X118563902Y-76540634D01*
X118803183Y-76612820D01*
X119051948Y-76636937D01*
X119300639Y-76612059D01*
X119539698Y-76539143D01*
X119756698Y-76423154D01*
X119855787Y-76241326D01*
X119050000Y-75435539D01*
X118244213Y-76241326D01*
X117218000Y-76241326D01*
X117218000Y-75363948D01*
X117775063Y-75363948D01*
X117799941Y-75612639D01*
X117872857Y-75851698D01*
X117988846Y-76068698D01*
X118170674Y-76167787D01*
X118976461Y-75362000D01*
X118170674Y-74556213D01*
X117988846Y-74655302D01*
X117871366Y-74875902D01*
X117799180Y-75115183D01*
X117775063Y-75363948D01*
X117218000Y-75363948D01*
X117218000Y-74482674D01*
X118244213Y-74482674D01*
X119050000Y-75288461D01*
X119855787Y-74482674D01*
X119756698Y-74300846D01*
X119536098Y-74183366D01*
X119296817Y-74111180D01*
X119048052Y-74087063D01*
X118799361Y-74111941D01*
X118560302Y-74184857D01*
X118343302Y-74300846D01*
X118244213Y-74482674D01*
X117218000Y-74482674D01*
X117218000Y-71347685D01*
X117883686Y-70682000D01*
X117900795Y-70682000D01*
X117973458Y-70857424D01*
X118106403Y-71056390D01*
X118275610Y-71225597D01*
X118474576Y-71358542D01*
X118695656Y-71450116D01*
X118930353Y-71496800D01*
X119169647Y-71496800D01*
X119404344Y-71450116D01*
X119625424Y-71358542D01*
X119824390Y-71225597D01*
X119993597Y-71056390D01*
X120100000Y-70897147D01*
X120100000Y-72206853D01*
X119993597Y-72047610D01*
X119824390Y-71878403D01*
X119625424Y-71745458D01*
X119404344Y-71653884D01*
X119169647Y-71607200D01*
X118930353Y-71607200D01*
X118695656Y-71653884D01*
X118474576Y-71745458D01*
X118275610Y-71878403D01*
X118106403Y-72047610D01*
X117973458Y-72246576D01*
X117881884Y-72467656D01*
X117835200Y-72702353D01*
X117835200Y-72941647D01*
X117881884Y-73176344D01*
X117973458Y-73397424D01*
X118106403Y-73596390D01*
X118275610Y-73765597D01*
X118474576Y-73898542D01*
X118695656Y-73990116D01*
X118930353Y-74036800D01*
X119169647Y-74036800D01*
X119404344Y-73990116D01*
X119625424Y-73898542D01*
X119824390Y-73765597D01*
X119993597Y-73596390D01*
X120100000Y-73437147D01*
X120100000Y-74649224D01*
X119929326Y-74556213D01*
X119123539Y-75362000D01*
X119929326Y-76167787D01*
X120100000Y-76074776D01*
X120100000Y-77286854D01*
X119993597Y-77127610D01*
X119824390Y-76958403D01*
X119625424Y-76825458D01*
X119404344Y-76733884D01*
X119169647Y-76687200D01*
X118930353Y-76687200D01*
X118695656Y-76733884D01*
X118474576Y-76825458D01*
X118275610Y-76958403D01*
X118106403Y-77127610D01*
X117973458Y-77326576D01*
X117881884Y-77547656D01*
X117835200Y-77782353D01*
X117835200Y-78021647D01*
X117881884Y-78256344D01*
X117973458Y-78477424D01*
X118106403Y-78676390D01*
X118275610Y-78845597D01*
X118474576Y-78978542D01*
X118695656Y-79070116D01*
X118930353Y-79116800D01*
X119169647Y-79116800D01*
X119404344Y-79070116D01*
X119625424Y-78978542D01*
X119824390Y-78845597D01*
X119993597Y-78676390D01*
X120100000Y-78517146D01*
X120100000Y-79826854D01*
X119993597Y-79667610D01*
X119824390Y-79498403D01*
X119625424Y-79365458D01*
X119404344Y-79273884D01*
X119169647Y-79227200D01*
X118930353Y-79227200D01*
X118695656Y-79273884D01*
X118474576Y-79365458D01*
X118275610Y-79498403D01*
X118106403Y-79667610D01*
X117973458Y-79866576D01*
X117881884Y-80087656D01*
X117835200Y-80322353D01*
X117835200Y-80561647D01*
X117881884Y-80796344D01*
X117973458Y-81017424D01*
X118106403Y-81216390D01*
X118275610Y-81385597D01*
X118474576Y-81518542D01*
X118695656Y-81610116D01*
X118930353Y-81656800D01*
X119169647Y-81656800D01*
X119404344Y-81610116D01*
X119625424Y-81518542D01*
X119824390Y-81385597D01*
X119993597Y-81216390D01*
X120100000Y-81057146D01*
X120100001Y-82366854D01*
X119993597Y-82207610D01*
X119824390Y-82038403D01*
X119625424Y-81905458D01*
X119404344Y-81813884D01*
X119169647Y-81767200D01*
X118930353Y-81767200D01*
X118695656Y-81813884D01*
X118474576Y-81905458D01*
X118275610Y-82038403D01*
X118106403Y-82207610D01*
X117973458Y-82406576D01*
X117881884Y-82627656D01*
X117835200Y-82862353D01*
X117835200Y-83101647D01*
X117881884Y-83336344D01*
X117973458Y-83557424D01*
X118106403Y-83756390D01*
X118275610Y-83925597D01*
X118474576Y-84058542D01*
X118695656Y-84150116D01*
X118930353Y-84196800D01*
X119169647Y-84196800D01*
X119404344Y-84150116D01*
X119625424Y-84058542D01*
X119824390Y-83925597D01*
X119993597Y-83756390D01*
X120100001Y-83597146D01*
X120100001Y-84906854D01*
X119993597Y-84747610D01*
X119824390Y-84578403D01*
X119625424Y-84445458D01*
X119404344Y-84353884D01*
X119169647Y-84307200D01*
X118930353Y-84307200D01*
X118695656Y-84353884D01*
X118474576Y-84445458D01*
X118275610Y-84578403D01*
X118106403Y-84747610D01*
X117973458Y-84946576D01*
X117881884Y-85167656D01*
X117835200Y-85402353D01*
X117835200Y-85641647D01*
X117881884Y-85876344D01*
X117973458Y-86097424D01*
X118106403Y-86296390D01*
X118275610Y-86465597D01*
X118474576Y-86598542D01*
X118695656Y-86690116D01*
X118930353Y-86736800D01*
X119169647Y-86736800D01*
X119404344Y-86690116D01*
X119625424Y-86598542D01*
X119824390Y-86465597D01*
X119993597Y-86296390D01*
X120100001Y-86137146D01*
X120100001Y-87446854D01*
X119993597Y-87287610D01*
X119824390Y-87118403D01*
X119625424Y-86985458D01*
X119404344Y-86893884D01*
X119169647Y-86847200D01*
X118930353Y-86847200D01*
X118695656Y-86893884D01*
X118474576Y-86985458D01*
X118275610Y-87118403D01*
X118106403Y-87287610D01*
X117973458Y-87486576D01*
X117881884Y-87707656D01*
X117835200Y-87942353D01*
X117835200Y-88181647D01*
X117881884Y-88416344D01*
X117973458Y-88637424D01*
X118106403Y-88836390D01*
X118275610Y-89005597D01*
X118474576Y-89138542D01*
X118695656Y-89230116D01*
X118930353Y-89276800D01*
X119169647Y-89276800D01*
X119404344Y-89230116D01*
X119625424Y-89138542D01*
X119824390Y-89005597D01*
X119993597Y-88836390D01*
X120100001Y-88677146D01*
X120100001Y-89986854D01*
X119993597Y-89827610D01*
X119824390Y-89658403D01*
X119625424Y-89525458D01*
X119404344Y-89433884D01*
X119169647Y-89387200D01*
X118930353Y-89387200D01*
X118695656Y-89433884D01*
X118474576Y-89525458D01*
X118275610Y-89658403D01*
X118106403Y-89827610D01*
X117973458Y-90026576D01*
X117881884Y-90247656D01*
X117835200Y-90482353D01*
X117835200Y-90721647D01*
X117881884Y-90956344D01*
X117973458Y-91177424D01*
X118106403Y-91376390D01*
X118275610Y-91545597D01*
X118474576Y-91678542D01*
X118695656Y-91770116D01*
X118930353Y-91816800D01*
X119169647Y-91816800D01*
X119404344Y-91770116D01*
X119625424Y-91678542D01*
X119824390Y-91545597D01*
X119993597Y-91376390D01*
X120100001Y-91217146D01*
X120100001Y-92526854D01*
X119993597Y-92367610D01*
X119824390Y-92198403D01*
X119625424Y-92065458D01*
X119404344Y-91973884D01*
X119169647Y-91927200D01*
X118930353Y-91927200D01*
X118695656Y-91973884D01*
X118474576Y-92065458D01*
X118275610Y-92198403D01*
X118106403Y-92367610D01*
X117973458Y-92566576D01*
X117881884Y-92787656D01*
X117835200Y-93022353D01*
X117835200Y-93261647D01*
X117881884Y-93496344D01*
X117973458Y-93717424D01*
X118106403Y-93916390D01*
X118275610Y-94085597D01*
X118474576Y-94218542D01*
X118695656Y-94310116D01*
X118930353Y-94356800D01*
X119169647Y-94356800D01*
X119404344Y-94310116D01*
X119625424Y-94218542D01*
X119824390Y-94085597D01*
X119993597Y-93916390D01*
X120100001Y-93757146D01*
X120100001Y-95066855D01*
X119993597Y-94907610D01*
X119824390Y-94738403D01*
X119625424Y-94605458D01*
X119404344Y-94513884D01*
X119169647Y-94467200D01*
X118930353Y-94467200D01*
X118695656Y-94513884D01*
X118474576Y-94605458D01*
X118275610Y-94738403D01*
X118106403Y-94907610D01*
X117973458Y-95106576D01*
X117881884Y-95327656D01*
X117835200Y-95562353D01*
X117835200Y-95801647D01*
X117881884Y-96036344D01*
X117973458Y-96257424D01*
X118106403Y-96456390D01*
X118250013Y-96600000D01*
X102069987Y-96600000D01*
X102213597Y-96456390D01*
X102346542Y-96257424D01*
X102438116Y-96036344D01*
X102484800Y-95801647D01*
X102484800Y-95562353D01*
X102438116Y-95327656D01*
X102346542Y-95106576D01*
X102213597Y-94907610D01*
X102044390Y-94738403D01*
X101845424Y-94605458D01*
X101624344Y-94513884D01*
X101389647Y-94467200D01*
X101150353Y-94467200D01*
X100915656Y-94513884D01*
X100694576Y-94605458D01*
X100495610Y-94738403D01*
X100326403Y-94907610D01*
X100200000Y-95096785D01*
X100200000Y-93727215D01*
X100326403Y-93916390D01*
X100495610Y-94085597D01*
X100694576Y-94218542D01*
X100915656Y-94310116D01*
X101150353Y-94356800D01*
X101389647Y-94356800D01*
X101624344Y-94310116D01*
X101845424Y-94218542D01*
X102044390Y-94085597D01*
X102213597Y-93916390D01*
X102346542Y-93717424D01*
X102438116Y-93496344D01*
X102484800Y-93261647D01*
X102484800Y-93022353D01*
X102438116Y-92787656D01*
X102346542Y-92566576D01*
X102213597Y-92367610D01*
X102044390Y-92198403D01*
X101845424Y-92065458D01*
X101624344Y-91973884D01*
X101389647Y-91927200D01*
X101150353Y-91927200D01*
X100915656Y-91973884D01*
X100694576Y-92065458D01*
X100495610Y-92198403D01*
X100326403Y-92367610D01*
X100200000Y-92556785D01*
X100200000Y-91187215D01*
X100326403Y-91376390D01*
X100495610Y-91545597D01*
X100694576Y-91678542D01*
X100915656Y-91770116D01*
X101150353Y-91816800D01*
X101389647Y-91816800D01*
X101624344Y-91770116D01*
X101845424Y-91678542D01*
X102044390Y-91545597D01*
X102213597Y-91376390D01*
X102346542Y-91177424D01*
X102438116Y-90956344D01*
X102484800Y-90721647D01*
X102484800Y-90482353D01*
X102438116Y-90247656D01*
X102346542Y-90026576D01*
X102213597Y-89827610D01*
X102044390Y-89658403D01*
X101845424Y-89525458D01*
X101624344Y-89433884D01*
X101389647Y-89387200D01*
X101150353Y-89387200D01*
X100915656Y-89433884D01*
X100694576Y-89525458D01*
X100495610Y-89658403D01*
X100326403Y-89827610D01*
X100200000Y-90016785D01*
X100200000Y-88647215D01*
X100326403Y-88836390D01*
X100495610Y-89005597D01*
X100694576Y-89138542D01*
X100915656Y-89230116D01*
X101150353Y-89276800D01*
X101389647Y-89276800D01*
X101624344Y-89230116D01*
X101845424Y-89138542D01*
X102044390Y-89005597D01*
X102213597Y-88836390D01*
X102346542Y-88637424D01*
X102438116Y-88416344D01*
X102484800Y-88181647D01*
X102484800Y-87942353D01*
X102438116Y-87707656D01*
X102346542Y-87486576D01*
X102213597Y-87287610D01*
X102044390Y-87118403D01*
X101845424Y-86985458D01*
X101624344Y-86893884D01*
X101389647Y-86847200D01*
X101150353Y-86847200D01*
X100915656Y-86893884D01*
X100694576Y-86985458D01*
X100495610Y-87118403D01*
X100326403Y-87287610D01*
X100200000Y-87476785D01*
X100200000Y-86107215D01*
X100326403Y-86296390D01*
X100495610Y-86465597D01*
X100694576Y-86598542D01*
X100915656Y-86690116D01*
X101150353Y-86736800D01*
X101389647Y-86736800D01*
X101624344Y-86690116D01*
X101660837Y-86675000D01*
X104369408Y-86675000D01*
X104375760Y-86739495D01*
X104394573Y-86801512D01*
X104425123Y-86858667D01*
X104466236Y-86908764D01*
X104516333Y-86949877D01*
X104573488Y-86980427D01*
X104635505Y-86999240D01*
X104700000Y-87005592D01*
X105265750Y-87004000D01*
X105348000Y-86921750D01*
X105348000Y-86152000D01*
X105452000Y-86152000D01*
X105452000Y-86921750D01*
X105534250Y-87004000D01*
X106100000Y-87005592D01*
X106164495Y-86999240D01*
X106226512Y-86980427D01*
X106283667Y-86949877D01*
X106333764Y-86908764D01*
X106374877Y-86858667D01*
X106405427Y-86801512D01*
X106424240Y-86739495D01*
X106430592Y-86675000D01*
X107569408Y-86675000D01*
X107575760Y-86739495D01*
X107594573Y-86801512D01*
X107625123Y-86858667D01*
X107666236Y-86908764D01*
X107716333Y-86949877D01*
X107773488Y-86980427D01*
X107835505Y-86999240D01*
X107900000Y-87005592D01*
X108465750Y-87004000D01*
X108548000Y-86921750D01*
X108548000Y-86152000D01*
X108652000Y-86152000D01*
X108652000Y-86921750D01*
X108734250Y-87004000D01*
X109300000Y-87005592D01*
X109364495Y-86999240D01*
X109426512Y-86980427D01*
X109483667Y-86949877D01*
X109533764Y-86908764D01*
X109574877Y-86858667D01*
X109605427Y-86801512D01*
X109624240Y-86739495D01*
X109630592Y-86675000D01*
X110769408Y-86675000D01*
X110775760Y-86739495D01*
X110794573Y-86801512D01*
X110825123Y-86858667D01*
X110866236Y-86908764D01*
X110916333Y-86949877D01*
X110973488Y-86980427D01*
X111035505Y-86999240D01*
X111100000Y-87005592D01*
X111665750Y-87004000D01*
X111748000Y-86921750D01*
X111748000Y-86152000D01*
X111852000Y-86152000D01*
X111852000Y-86921750D01*
X111934250Y-87004000D01*
X112500000Y-87005592D01*
X112564495Y-86999240D01*
X112626512Y-86980427D01*
X112683667Y-86949877D01*
X112733764Y-86908764D01*
X112774877Y-86858667D01*
X112805427Y-86801512D01*
X112824240Y-86739495D01*
X112830592Y-86675000D01*
X113969408Y-86675000D01*
X113975760Y-86739495D01*
X113994573Y-86801512D01*
X114025123Y-86858667D01*
X114066236Y-86908764D01*
X114116333Y-86949877D01*
X114173488Y-86980427D01*
X114235505Y-86999240D01*
X114300000Y-87005592D01*
X114865750Y-87004000D01*
X114948000Y-86921750D01*
X114948000Y-86152000D01*
X115052000Y-86152000D01*
X115052000Y-86921750D01*
X115134250Y-87004000D01*
X115700000Y-87005592D01*
X115764495Y-86999240D01*
X115826512Y-86980427D01*
X115883667Y-86949877D01*
X115933764Y-86908764D01*
X115974877Y-86858667D01*
X116005427Y-86801512D01*
X116024240Y-86739495D01*
X116030592Y-86675000D01*
X116029000Y-86234250D01*
X115946750Y-86152000D01*
X115052000Y-86152000D01*
X114948000Y-86152000D01*
X114053250Y-86152000D01*
X113971000Y-86234250D01*
X113969408Y-86675000D01*
X112830592Y-86675000D01*
X112829000Y-86234250D01*
X112746750Y-86152000D01*
X111852000Y-86152000D01*
X111748000Y-86152000D01*
X110853250Y-86152000D01*
X110771000Y-86234250D01*
X110769408Y-86675000D01*
X109630592Y-86675000D01*
X109629000Y-86234250D01*
X109546750Y-86152000D01*
X108652000Y-86152000D01*
X108548000Y-86152000D01*
X107653250Y-86152000D01*
X107571000Y-86234250D01*
X107569408Y-86675000D01*
X106430592Y-86675000D01*
X106429000Y-86234250D01*
X106346750Y-86152000D01*
X105452000Y-86152000D01*
X105348000Y-86152000D01*
X104453250Y-86152000D01*
X104371000Y-86234250D01*
X104369408Y-86675000D01*
X101660837Y-86675000D01*
X101845424Y-86598542D01*
X102044390Y-86465597D01*
X102213597Y-86296390D01*
X102346542Y-86097424D01*
X102438116Y-85876344D01*
X102484800Y-85641647D01*
X102484800Y-85525000D01*
X104369408Y-85525000D01*
X104371000Y-85965750D01*
X104453250Y-86048000D01*
X105348000Y-86048000D01*
X105348000Y-85278250D01*
X105452000Y-85278250D01*
X105452000Y-86048000D01*
X106346750Y-86048000D01*
X106429000Y-85965750D01*
X106430592Y-85525000D01*
X107569408Y-85525000D01*
X107571000Y-85965750D01*
X107653250Y-86048000D01*
X108548000Y-86048000D01*
X108548000Y-85278250D01*
X108652000Y-85278250D01*
X108652000Y-86048000D01*
X109546750Y-86048000D01*
X109629000Y-85965750D01*
X109630592Y-85525000D01*
X110769408Y-85525000D01*
X110771000Y-85965750D01*
X110853250Y-86048000D01*
X111748000Y-86048000D01*
X111748000Y-85278250D01*
X111852000Y-85278250D01*
X111852000Y-86048000D01*
X112746750Y-86048000D01*
X112829000Y-85965750D01*
X112830592Y-85525000D01*
X113969408Y-85525000D01*
X113971000Y-85965750D01*
X114053250Y-86048000D01*
X114948000Y-86048000D01*
X114948000Y-85278250D01*
X115052000Y-85278250D01*
X115052000Y-86048000D01*
X115946750Y-86048000D01*
X116029000Y-85965750D01*
X116030592Y-85525000D01*
X116024240Y-85460505D01*
X116005427Y-85398488D01*
X115974877Y-85341333D01*
X115933764Y-85291236D01*
X115883667Y-85250123D01*
X115826512Y-85219573D01*
X115764495Y-85200760D01*
X115700000Y-85194408D01*
X115134250Y-85196000D01*
X115052000Y-85278250D01*
X114948000Y-85278250D01*
X114865750Y-85196000D01*
X114300000Y-85194408D01*
X114235505Y-85200760D01*
X114173488Y-85219573D01*
X114116333Y-85250123D01*
X114066236Y-85291236D01*
X114025123Y-85341333D01*
X113994573Y-85398488D01*
X113975760Y-85460505D01*
X113969408Y-85525000D01*
X112830592Y-85525000D01*
X112824240Y-85460505D01*
X112805427Y-85398488D01*
X112774877Y-85341333D01*
X112733764Y-85291236D01*
X112683667Y-85250123D01*
X112626512Y-85219573D01*
X112564495Y-85200760D01*
X112500000Y-85194408D01*
X111934250Y-85196000D01*
X111852000Y-85278250D01*
X111748000Y-85278250D01*
X111665750Y-85196000D01*
X111100000Y-85194408D01*
X111035505Y-85200760D01*
X110973488Y-85219573D01*
X110916333Y-85250123D01*
X110866236Y-85291236D01*
X110825123Y-85341333D01*
X110794573Y-85398488D01*
X110775760Y-85460505D01*
X110769408Y-85525000D01*
X109630592Y-85525000D01*
X109624240Y-85460505D01*
X109605427Y-85398488D01*
X109574877Y-85341333D01*
X109533764Y-85291236D01*
X109483667Y-85250123D01*
X109426512Y-85219573D01*
X109364495Y-85200760D01*
X109300000Y-85194408D01*
X108734250Y-85196000D01*
X108652000Y-85278250D01*
X108548000Y-85278250D01*
X108465750Y-85196000D01*
X107900000Y-85194408D01*
X107835505Y-85200760D01*
X107773488Y-85219573D01*
X107716333Y-85250123D01*
X107666236Y-85291236D01*
X107625123Y-85341333D01*
X107594573Y-85398488D01*
X107575760Y-85460505D01*
X107569408Y-85525000D01*
X106430592Y-85525000D01*
X106424240Y-85460505D01*
X106405427Y-85398488D01*
X106374877Y-85341333D01*
X106333764Y-85291236D01*
X106283667Y-85250123D01*
X106226512Y-85219573D01*
X106164495Y-85200760D01*
X106100000Y-85194408D01*
X105534250Y-85196000D01*
X105452000Y-85278250D01*
X105348000Y-85278250D01*
X105265750Y-85196000D01*
X104700000Y-85194408D01*
X104635505Y-85200760D01*
X104573488Y-85219573D01*
X104516333Y-85250123D01*
X104466236Y-85291236D01*
X104425123Y-85341333D01*
X104394573Y-85398488D01*
X104375760Y-85460505D01*
X104369408Y-85525000D01*
X102484800Y-85525000D01*
X102484800Y-85402353D01*
X102438116Y-85167656D01*
X102346542Y-84946576D01*
X102213597Y-84747610D01*
X102044390Y-84578403D01*
X101845424Y-84445458D01*
X101624344Y-84353884D01*
X101389647Y-84307200D01*
X101150353Y-84307200D01*
X100915656Y-84353884D01*
X100694576Y-84445458D01*
X100495610Y-84578403D01*
X100326403Y-84747610D01*
X100200000Y-84936785D01*
X100200000Y-83567215D01*
X100326403Y-83756390D01*
X100495610Y-83925597D01*
X100694576Y-84058542D01*
X100915656Y-84150116D01*
X101150353Y-84196800D01*
X101389647Y-84196800D01*
X101624344Y-84150116D01*
X101845424Y-84058542D01*
X102044390Y-83925597D01*
X102213597Y-83756390D01*
X102346542Y-83557424D01*
X102438116Y-83336344D01*
X102484800Y-83101647D01*
X102484800Y-82862353D01*
X102438116Y-82627656D01*
X102346542Y-82406576D01*
X102213597Y-82207610D01*
X102044390Y-82038403D01*
X101845424Y-81905458D01*
X101624344Y-81813884D01*
X101389647Y-81767200D01*
X101150353Y-81767200D01*
X100915656Y-81813884D01*
X100694576Y-81905458D01*
X100495610Y-82038403D01*
X100326403Y-82207610D01*
X100200000Y-82396785D01*
X100200000Y-81027215D01*
X100326403Y-81216390D01*
X100495610Y-81385597D01*
X100694576Y-81518542D01*
X100915656Y-81610116D01*
X101150353Y-81656800D01*
X101389647Y-81656800D01*
X101624344Y-81610116D01*
X101845424Y-81518542D01*
X102044390Y-81385597D01*
X102213597Y-81216390D01*
X102346542Y-81017424D01*
X102438116Y-80796344D01*
X102484800Y-80561647D01*
X102484800Y-80322353D01*
X102438116Y-80087656D01*
X102346542Y-79866576D01*
X102213597Y-79667610D01*
X102044390Y-79498403D01*
X101845424Y-79365458D01*
X101624344Y-79273884D01*
X101389647Y-79227200D01*
X101150353Y-79227200D01*
X100915656Y-79273884D01*
X100694576Y-79365458D01*
X100495610Y-79498403D01*
X100326403Y-79667610D01*
X100200000Y-79856785D01*
X100200000Y-78487215D01*
X100326403Y-78676390D01*
X100495610Y-78845597D01*
X100694576Y-78978542D01*
X100915656Y-79070116D01*
X101150353Y-79116800D01*
X101389647Y-79116800D01*
X101624344Y-79070116D01*
X101845424Y-78978542D01*
X102044390Y-78845597D01*
X102213597Y-78676390D01*
X102346542Y-78477424D01*
X102438116Y-78256344D01*
X102484800Y-78021647D01*
X102484800Y-77782353D01*
X102438116Y-77547656D01*
X102346542Y-77326576D01*
X102213597Y-77127610D01*
X102044390Y-76958403D01*
X101845424Y-76825458D01*
X101624344Y-76733884D01*
X101389647Y-76687200D01*
X101150353Y-76687200D01*
X100915656Y-76733884D01*
X100694576Y-76825458D01*
X100495610Y-76958403D01*
X100326403Y-77127610D01*
X100200000Y-77316785D01*
X100200000Y-75947215D01*
X100326403Y-76136390D01*
X100495610Y-76305597D01*
X100694576Y-76438542D01*
X100915656Y-76530116D01*
X101150353Y-76576800D01*
X101389647Y-76576800D01*
X101624344Y-76530116D01*
X101845424Y-76438542D01*
X102044390Y-76305597D01*
X102213597Y-76136390D01*
X102346542Y-75937424D01*
X102438116Y-75716344D01*
X102484800Y-75481647D01*
X102484800Y-75242353D01*
X102438116Y-75007656D01*
X102346542Y-74786576D01*
X102213597Y-74587610D01*
X102044390Y-74418403D01*
X101845424Y-74285458D01*
X101624344Y-74193884D01*
X101389647Y-74147200D01*
X101150353Y-74147200D01*
X100915656Y-74193884D01*
X100694576Y-74285458D01*
X100495610Y-74418403D01*
X100326403Y-74587610D01*
X100200000Y-74776785D01*
X100200000Y-73407215D01*
X100326403Y-73596390D01*
X100495610Y-73765597D01*
X100694576Y-73898542D01*
X100915656Y-73990116D01*
X101150353Y-74036800D01*
X101389647Y-74036800D01*
X101624344Y-73990116D01*
X101845424Y-73898542D01*
X101992902Y-73800000D01*
X103098065Y-73800000D01*
X103100000Y-73819646D01*
X103100001Y-81380343D01*
X103098065Y-81400000D01*
X103105788Y-81478413D01*
X103128661Y-81553814D01*
X103165803Y-81623302D01*
X103203265Y-81668950D01*
X103203268Y-81668953D01*
X103215790Y-81684211D01*
X103231048Y-81696733D01*
X104303267Y-82768953D01*
X104315789Y-82784211D01*
X104331047Y-82796733D01*
X104331049Y-82796735D01*
X104376697Y-82834197D01*
X104446185Y-82871340D01*
X104521586Y-82894212D01*
X104600000Y-82901935D01*
X104619646Y-82900000D01*
X104855456Y-82900000D01*
X104875693Y-82930287D01*
X104969713Y-83024307D01*
X105000001Y-83044544D01*
X105000001Y-83198670D01*
X104949999Y-83198670D01*
X104847317Y-83208783D01*
X104748582Y-83238734D01*
X104657586Y-83287372D01*
X104577828Y-83352828D01*
X104512372Y-83432586D01*
X104463734Y-83523582D01*
X104433783Y-83622317D01*
X104423670Y-83724999D01*
X104423670Y-84375001D01*
X104433783Y-84477683D01*
X104463734Y-84576418D01*
X104512372Y-84667414D01*
X104577828Y-84747172D01*
X104657586Y-84812628D01*
X104748582Y-84861266D01*
X104847317Y-84891217D01*
X104949999Y-84901330D01*
X105850001Y-84901330D01*
X105952683Y-84891217D01*
X106051418Y-84861266D01*
X106142414Y-84812628D01*
X106222172Y-84747172D01*
X106287628Y-84667414D01*
X106336266Y-84576418D01*
X106366217Y-84477683D01*
X106376330Y-84375001D01*
X106376330Y-83724999D01*
X106366217Y-83622317D01*
X106336266Y-83523582D01*
X106287628Y-83432586D01*
X106222172Y-83352828D01*
X106142414Y-83287372D01*
X106051418Y-83238734D01*
X105952683Y-83208783D01*
X105850001Y-83198670D01*
X105800000Y-83198670D01*
X105800000Y-83044544D01*
X105830287Y-83024307D01*
X105924307Y-82930287D01*
X105998177Y-82819732D01*
X106049060Y-82696890D01*
X106075000Y-82566482D01*
X106075000Y-82433518D01*
X106049060Y-82303110D01*
X105998177Y-82180268D01*
X105924307Y-82069713D01*
X105830287Y-81975693D01*
X105800000Y-81955456D01*
X105800000Y-81851330D01*
X105850001Y-81851330D01*
X105952683Y-81841217D01*
X106051418Y-81811266D01*
X106142414Y-81762628D01*
X106222172Y-81697172D01*
X106287628Y-81617414D01*
X106336266Y-81526418D01*
X106366217Y-81427683D01*
X106376330Y-81325001D01*
X106376330Y-80958191D01*
X106401823Y-81019736D01*
X106475693Y-81130291D01*
X106569713Y-81224311D01*
X106600001Y-81244548D01*
X106600001Y-81680344D01*
X106598065Y-81700000D01*
X106605788Y-81778413D01*
X106628661Y-81853814D01*
X106665803Y-81923302D01*
X106703265Y-81968950D01*
X106703268Y-81968953D01*
X106715790Y-81984211D01*
X106731047Y-81996733D01*
X107503267Y-82768953D01*
X107515789Y-82784211D01*
X107531047Y-82796733D01*
X107531049Y-82796735D01*
X107576697Y-82834197D01*
X107646185Y-82871340D01*
X107721586Y-82894212D01*
X107800000Y-82901935D01*
X107819647Y-82900000D01*
X108200001Y-82900000D01*
X108200001Y-83198670D01*
X108149999Y-83198670D01*
X108047317Y-83208783D01*
X107948582Y-83238734D01*
X107857586Y-83287372D01*
X107777828Y-83352828D01*
X107712372Y-83432586D01*
X107663734Y-83523582D01*
X107633783Y-83622317D01*
X107623670Y-83724999D01*
X107623670Y-84375001D01*
X107633783Y-84477683D01*
X107663734Y-84576418D01*
X107712372Y-84667414D01*
X107777828Y-84747172D01*
X107857586Y-84812628D01*
X107948582Y-84861266D01*
X108047317Y-84891217D01*
X108149999Y-84901330D01*
X109050001Y-84901330D01*
X109152683Y-84891217D01*
X109251418Y-84861266D01*
X109342414Y-84812628D01*
X109422172Y-84747172D01*
X109487628Y-84667414D01*
X109536266Y-84576418D01*
X109566217Y-84477683D01*
X109576330Y-84375001D01*
X109576330Y-83724999D01*
X109566217Y-83622317D01*
X109536266Y-83523582D01*
X109487628Y-83432586D01*
X109422172Y-83352828D01*
X109342414Y-83287372D01*
X109251418Y-83238734D01*
X109152683Y-83208783D01*
X109050001Y-83198670D01*
X109000000Y-83198670D01*
X109000000Y-83106345D01*
X109103122Y-83149060D01*
X109233530Y-83175000D01*
X109366494Y-83175000D01*
X109496902Y-83149060D01*
X109619744Y-83098177D01*
X109730299Y-83024307D01*
X109824319Y-82930287D01*
X109898189Y-82819732D01*
X109949072Y-82696890D01*
X109975012Y-82566482D01*
X109975012Y-82433518D01*
X109949072Y-82303110D01*
X109898189Y-82180268D01*
X109824319Y-82069713D01*
X109730299Y-81975693D01*
X109619744Y-81901823D01*
X109496902Y-81850940D01*
X109366494Y-81825000D01*
X109233530Y-81825000D01*
X109153979Y-81840824D01*
X109251418Y-81811266D01*
X109342414Y-81762628D01*
X109422172Y-81697172D01*
X109487628Y-81617414D01*
X109536266Y-81526418D01*
X109566217Y-81427683D01*
X109576330Y-81325001D01*
X109576330Y-80674999D01*
X109566217Y-80572317D01*
X109536266Y-80473582D01*
X109487628Y-80382586D01*
X109422172Y-80302828D01*
X109342414Y-80237372D01*
X109251418Y-80188734D01*
X109152683Y-80158783D01*
X109050001Y-80148670D01*
X108149999Y-80148670D01*
X108047317Y-80158783D01*
X107948582Y-80188734D01*
X107857586Y-80237372D01*
X107777828Y-80302828D01*
X107712372Y-80382586D01*
X107663734Y-80473582D01*
X107651324Y-80514494D01*
X107649060Y-80503114D01*
X107598177Y-80380272D01*
X107524307Y-80269717D01*
X107430287Y-80175697D01*
X107319732Y-80101827D01*
X107196890Y-80050944D01*
X107066482Y-80025004D01*
X106933518Y-80025004D01*
X106803110Y-80050944D01*
X106680268Y-80101827D01*
X106569713Y-80175697D01*
X106475693Y-80269717D01*
X106401823Y-80380272D01*
X106350940Y-80503114D01*
X106348676Y-80514494D01*
X106336266Y-80473582D01*
X106287628Y-80382586D01*
X106222172Y-80302828D01*
X106142414Y-80237372D01*
X106051418Y-80188734D01*
X105952683Y-80158783D01*
X105850001Y-80148670D01*
X104949999Y-80148670D01*
X104847317Y-80158783D01*
X104748582Y-80188734D01*
X104657586Y-80237372D01*
X104577828Y-80302828D01*
X104512372Y-80382586D01*
X104463734Y-80473582D01*
X104433783Y-80572317D01*
X104423670Y-80674999D01*
X104423670Y-81325001D01*
X104433783Y-81427683D01*
X104463734Y-81526418D01*
X104512372Y-81617414D01*
X104577828Y-81697172D01*
X104657586Y-81762628D01*
X104748582Y-81811266D01*
X104847317Y-81841217D01*
X104949999Y-81851330D01*
X105000001Y-81851330D01*
X105000001Y-81955456D01*
X104969713Y-81975693D01*
X104875693Y-82069713D01*
X104855456Y-82100000D01*
X104765686Y-82100000D01*
X103900000Y-81234315D01*
X103900000Y-78624999D01*
X104423670Y-78624999D01*
X104423670Y-79275001D01*
X104433783Y-79377683D01*
X104463734Y-79476418D01*
X104512372Y-79567414D01*
X104577828Y-79647172D01*
X104657586Y-79712628D01*
X104748582Y-79761266D01*
X104847317Y-79791217D01*
X104949999Y-79801330D01*
X105850001Y-79801330D01*
X105952683Y-79791217D01*
X106051418Y-79761266D01*
X106142414Y-79712628D01*
X106222172Y-79647172D01*
X106287628Y-79567414D01*
X106336266Y-79476418D01*
X106366217Y-79377683D01*
X106368943Y-79350000D01*
X107631057Y-79350000D01*
X107633783Y-79377683D01*
X107663734Y-79476418D01*
X107712372Y-79567414D01*
X107777828Y-79647172D01*
X107857586Y-79712628D01*
X107948582Y-79761266D01*
X108047317Y-79791217D01*
X108149999Y-79801330D01*
X109050001Y-79801330D01*
X109152683Y-79791217D01*
X109251418Y-79761266D01*
X109342414Y-79712628D01*
X109422172Y-79647172D01*
X109487628Y-79567414D01*
X109536266Y-79476418D01*
X109566217Y-79377683D01*
X109568943Y-79350000D01*
X110831057Y-79350000D01*
X110833783Y-79377683D01*
X110863734Y-79476418D01*
X110912372Y-79567414D01*
X110977828Y-79647172D01*
X111057586Y-79712628D01*
X111148582Y-79761266D01*
X111247317Y-79791217D01*
X111349999Y-79801330D01*
X112250001Y-79801330D01*
X112352683Y-79791217D01*
X112451418Y-79761266D01*
X112542414Y-79712628D01*
X112622172Y-79647172D01*
X112687628Y-79567414D01*
X112736266Y-79476418D01*
X112766217Y-79377683D01*
X112776330Y-79275001D01*
X112776330Y-78624999D01*
X112766217Y-78522317D01*
X112736266Y-78423582D01*
X112687628Y-78332586D01*
X112622172Y-78252828D01*
X112542414Y-78187372D01*
X112451418Y-78138734D01*
X112352683Y-78108783D01*
X112250001Y-78098670D01*
X112200000Y-78098670D01*
X112200000Y-77965685D01*
X112655546Y-77510140D01*
X112669713Y-77524307D01*
X112780268Y-77598177D01*
X112903110Y-77649060D01*
X113033518Y-77675000D01*
X113166482Y-77675000D01*
X113296890Y-77649060D01*
X113419732Y-77598177D01*
X113469172Y-77565143D01*
X113131052Y-77903263D01*
X113115789Y-77915789D01*
X113065803Y-77976698D01*
X113028660Y-78046187D01*
X113017126Y-78084210D01*
X113005788Y-78121587D01*
X112998065Y-78200000D01*
X113000000Y-78219647D01*
X113000001Y-81634314D01*
X112534315Y-82100000D01*
X112344544Y-82100000D01*
X112324307Y-82069713D01*
X112230287Y-81975693D01*
X112200000Y-81955456D01*
X112200000Y-81851330D01*
X112250001Y-81851330D01*
X112352683Y-81841217D01*
X112451418Y-81811266D01*
X112542414Y-81762628D01*
X112622172Y-81697172D01*
X112687628Y-81617414D01*
X112736266Y-81526418D01*
X112766217Y-81427683D01*
X112776330Y-81325001D01*
X112776330Y-80674999D01*
X112766217Y-80572317D01*
X112736266Y-80473582D01*
X112687628Y-80382586D01*
X112622172Y-80302828D01*
X112542414Y-80237372D01*
X112451418Y-80188734D01*
X112352683Y-80158783D01*
X112250001Y-80148670D01*
X111349999Y-80148670D01*
X111247317Y-80158783D01*
X111148582Y-80188734D01*
X111057586Y-80237372D01*
X110977828Y-80302828D01*
X110912372Y-80382586D01*
X110863734Y-80473582D01*
X110833783Y-80572317D01*
X110823670Y-80674999D01*
X110823670Y-81325001D01*
X110833783Y-81427683D01*
X110863734Y-81526418D01*
X110912372Y-81617414D01*
X110977828Y-81697172D01*
X111057586Y-81762628D01*
X111148582Y-81811266D01*
X111247317Y-81841217D01*
X111349999Y-81851330D01*
X111400001Y-81851330D01*
X111400001Y-81955456D01*
X111369713Y-81975693D01*
X111275693Y-82069713D01*
X111201823Y-82180268D01*
X111150940Y-82303110D01*
X111125000Y-82433518D01*
X111125000Y-82566482D01*
X111150940Y-82696890D01*
X111201823Y-82819732D01*
X111275693Y-82930287D01*
X111369713Y-83024307D01*
X111400001Y-83044544D01*
X111400001Y-83198670D01*
X111349999Y-83198670D01*
X111247317Y-83208783D01*
X111148582Y-83238734D01*
X111057586Y-83287372D01*
X110977828Y-83352828D01*
X110912372Y-83432586D01*
X110863734Y-83523582D01*
X110833783Y-83622317D01*
X110823670Y-83724999D01*
X110823670Y-84375001D01*
X110833783Y-84477683D01*
X110863734Y-84576418D01*
X110912372Y-84667414D01*
X110977828Y-84747172D01*
X111057586Y-84812628D01*
X111148582Y-84861266D01*
X111247317Y-84891217D01*
X111349999Y-84901330D01*
X112250001Y-84901330D01*
X112352683Y-84891217D01*
X112451418Y-84861266D01*
X112542414Y-84812628D01*
X112622172Y-84747172D01*
X112687628Y-84667414D01*
X112736266Y-84576418D01*
X112766217Y-84477683D01*
X112776330Y-84375001D01*
X112776330Y-83724999D01*
X112766217Y-83622317D01*
X112736266Y-83523582D01*
X112687628Y-83432586D01*
X112622172Y-83352828D01*
X112542414Y-83287372D01*
X112451418Y-83238734D01*
X112352683Y-83208783D01*
X112250001Y-83198670D01*
X112200000Y-83198670D01*
X112200000Y-83044544D01*
X112230287Y-83024307D01*
X112324307Y-82930287D01*
X112344544Y-82900000D01*
X112680354Y-82900000D01*
X112700000Y-82901935D01*
X112719646Y-82900000D01*
X112719647Y-82900000D01*
X112778414Y-82894212D01*
X112853814Y-82871340D01*
X112923303Y-82834197D01*
X112984211Y-82784211D01*
X112996737Y-82768948D01*
X113668948Y-82096737D01*
X113684211Y-82084211D01*
X113734197Y-82023303D01*
X113771340Y-81953814D01*
X113794212Y-81878414D01*
X113800000Y-81819647D01*
X113800000Y-81819637D01*
X113801934Y-81800001D01*
X113800000Y-81780365D01*
X113800000Y-78365685D01*
X114268953Y-77896733D01*
X114284211Y-77884211D01*
X114334197Y-77823303D01*
X114371340Y-77753814D01*
X114394212Y-77678414D01*
X114400000Y-77619647D01*
X114400000Y-77619637D01*
X114401934Y-77600001D01*
X114400000Y-77580365D01*
X114400000Y-72719635D01*
X114401934Y-72699999D01*
X114400000Y-72680363D01*
X114400000Y-72680353D01*
X114394212Y-72621586D01*
X114371340Y-72546186D01*
X114334197Y-72476697D01*
X114284211Y-72415789D01*
X114268949Y-72403264D01*
X113896735Y-72031050D01*
X113884211Y-72015789D01*
X113823303Y-71965803D01*
X113753814Y-71928660D01*
X113678414Y-71905788D01*
X113619647Y-71900000D01*
X113619646Y-71900000D01*
X113600000Y-71898065D01*
X113580354Y-71900000D01*
X113321642Y-71900000D01*
X113345296Y-71855747D01*
X113361020Y-71803909D01*
X113366330Y-71750000D01*
X113366330Y-69650000D01*
X113361020Y-69596091D01*
X113345296Y-69544253D01*
X113319760Y-69496479D01*
X113285395Y-69454605D01*
X113243521Y-69420240D01*
X113195747Y-69394704D01*
X113143909Y-69378980D01*
X113140000Y-69378595D01*
X113140000Y-69325685D01*
X113165684Y-69300000D01*
X113255456Y-69300000D01*
X113275693Y-69330287D01*
X113369713Y-69424307D01*
X113480268Y-69498177D01*
X113603110Y-69549060D01*
X113733518Y-69575000D01*
X113866482Y-69575000D01*
X113996890Y-69549060D01*
X114119732Y-69498177D01*
X114230287Y-69424307D01*
X114324307Y-69330287D01*
X114398177Y-69219732D01*
X114449060Y-69096890D01*
X114475000Y-68966482D01*
X114475000Y-68833518D01*
X114449060Y-68703110D01*
X114398177Y-68580268D01*
X114324307Y-68469713D01*
X114230287Y-68375693D01*
X114119732Y-68301823D01*
X113996890Y-68250940D01*
X113866482Y-68225000D01*
X113733518Y-68225000D01*
X113603110Y-68250940D01*
X113480268Y-68301823D01*
X113369713Y-68375693D01*
X113275693Y-68469713D01*
X113255456Y-68500000D01*
X113019647Y-68500000D01*
X113000000Y-68498065D01*
X112980353Y-68500000D01*
X112921586Y-68505788D01*
X112846186Y-68528660D01*
X112776697Y-68565803D01*
X112715789Y-68615789D01*
X112703259Y-68631057D01*
X112471048Y-68863267D01*
X112455790Y-68875789D01*
X112443268Y-68891047D01*
X112443265Y-68891050D01*
X112405803Y-68936698D01*
X112368661Y-69006186D01*
X112345788Y-69081587D01*
X112338065Y-69160000D01*
X112340001Y-69179656D01*
X112340001Y-69378595D01*
X112336091Y-69378980D01*
X112284253Y-69394704D01*
X112236479Y-69420240D01*
X112194605Y-69454605D01*
X112160240Y-69496479D01*
X112134704Y-69544253D01*
X112118980Y-69596091D01*
X112113670Y-69650000D01*
X112113670Y-71750000D01*
X112118980Y-71803909D01*
X112134704Y-71855747D01*
X112158358Y-71900000D01*
X112051642Y-71900000D01*
X112075296Y-71855747D01*
X112091020Y-71803909D01*
X112096330Y-71750000D01*
X112096330Y-69650000D01*
X112091020Y-69596091D01*
X112075296Y-69544253D01*
X112049760Y-69496479D01*
X112015395Y-69454605D01*
X111973521Y-69420240D01*
X111925747Y-69394704D01*
X111873909Y-69378980D01*
X111870000Y-69378595D01*
X111870000Y-69084586D01*
X111924307Y-69030279D01*
X111998177Y-68919724D01*
X112049060Y-68796882D01*
X112075000Y-68666474D01*
X112075000Y-68533510D01*
X112049060Y-68403102D01*
X111998177Y-68280260D01*
X111924307Y-68169705D01*
X111830287Y-68075685D01*
X111719732Y-68001815D01*
X111596890Y-67950932D01*
X111466482Y-67924992D01*
X111333518Y-67924992D01*
X111203110Y-67950932D01*
X111080268Y-68001815D01*
X110969713Y-68075685D01*
X110875693Y-68169705D01*
X110801823Y-68280260D01*
X110750940Y-68403102D01*
X110725000Y-68533510D01*
X110725000Y-68666474D01*
X110750940Y-68796882D01*
X110801823Y-68919724D01*
X110875693Y-69030279D01*
X110969713Y-69124299D01*
X111070001Y-69191309D01*
X111070001Y-69378595D01*
X111066091Y-69378980D01*
X111014253Y-69394704D01*
X110966479Y-69420240D01*
X110924605Y-69454605D01*
X110890240Y-69496479D01*
X110864704Y-69544253D01*
X110848980Y-69596091D01*
X110843670Y-69650000D01*
X110843670Y-71750000D01*
X110848980Y-71803909D01*
X110864704Y-71855747D01*
X110888358Y-71900000D01*
X110781642Y-71900000D01*
X110805296Y-71855747D01*
X110821020Y-71803909D01*
X110826330Y-71750000D01*
X110826330Y-69650000D01*
X110821020Y-69596091D01*
X110805296Y-69544253D01*
X110779760Y-69496479D01*
X110745395Y-69454605D01*
X110703521Y-69420240D01*
X110655747Y-69394704D01*
X110603909Y-69378980D01*
X110550000Y-69373670D01*
X109850000Y-69373670D01*
X109796091Y-69378980D01*
X109744253Y-69394704D01*
X109696479Y-69420240D01*
X109654605Y-69454605D01*
X109620240Y-69496479D01*
X109594704Y-69544253D01*
X109578980Y-69596091D01*
X109573670Y-69650000D01*
X109573670Y-71750000D01*
X109578980Y-71803909D01*
X109594704Y-71855747D01*
X109620240Y-71903521D01*
X109654605Y-71945395D01*
X109696479Y-71979760D01*
X109744253Y-72005296D01*
X109796091Y-72021020D01*
X109800001Y-72021405D01*
X109800001Y-72180344D01*
X109798065Y-72200000D01*
X109805788Y-72278413D01*
X109828661Y-72353814D01*
X109865803Y-72423302D01*
X109903265Y-72468950D01*
X109903268Y-72468953D01*
X109915790Y-72484211D01*
X109931049Y-72496734D01*
X110003259Y-72568943D01*
X110015789Y-72584211D01*
X110076697Y-72634197D01*
X110146186Y-72671340D01*
X110221586Y-72694212D01*
X110280353Y-72700000D01*
X110280363Y-72700000D01*
X110299999Y-72701934D01*
X110319635Y-72700000D01*
X113434315Y-72700000D01*
X113600000Y-72865685D01*
X113600001Y-76545407D01*
X113530287Y-76475693D01*
X113419732Y-76401823D01*
X113296890Y-76350940D01*
X113166482Y-76325000D01*
X113033518Y-76325000D01*
X112903110Y-76350940D01*
X112780268Y-76401823D01*
X112669713Y-76475693D01*
X112575693Y-76569713D01*
X112553702Y-76602625D01*
X112521586Y-76605788D01*
X112446185Y-76628660D01*
X112376697Y-76665803D01*
X112331049Y-76703265D01*
X112331047Y-76703267D01*
X112315789Y-76715789D01*
X112303267Y-76731047D01*
X111531047Y-77503267D01*
X111515790Y-77515789D01*
X111503268Y-77531047D01*
X111503265Y-77531050D01*
X111465803Y-77576698D01*
X111428661Y-77646186D01*
X111405788Y-77721587D01*
X111398065Y-77800000D01*
X111400001Y-77819656D01*
X111400001Y-78098670D01*
X111349999Y-78098670D01*
X111247317Y-78108783D01*
X111148582Y-78138734D01*
X111057586Y-78187372D01*
X110977828Y-78252828D01*
X110912372Y-78332586D01*
X110863734Y-78423582D01*
X110833783Y-78522317D01*
X110831057Y-78550000D01*
X109568943Y-78550000D01*
X109566217Y-78522317D01*
X109536266Y-78423582D01*
X109487628Y-78332586D01*
X109422172Y-78252828D01*
X109342414Y-78187372D01*
X109251418Y-78138734D01*
X109152683Y-78108783D01*
X109050001Y-78098670D01*
X108149999Y-78098670D01*
X108047317Y-78108783D01*
X107948582Y-78138734D01*
X107857586Y-78187372D01*
X107777828Y-78252828D01*
X107712372Y-78332586D01*
X107663734Y-78423582D01*
X107633783Y-78522317D01*
X107631057Y-78550000D01*
X106368943Y-78550000D01*
X106366217Y-78522317D01*
X106336266Y-78423582D01*
X106287628Y-78332586D01*
X106222172Y-78252828D01*
X106142414Y-78187372D01*
X106051418Y-78138734D01*
X105952683Y-78108783D01*
X105850001Y-78098670D01*
X104949999Y-78098670D01*
X104847317Y-78108783D01*
X104748582Y-78138734D01*
X104657586Y-78187372D01*
X104577828Y-78252828D01*
X104512372Y-78332586D01*
X104463734Y-78423582D01*
X104433783Y-78522317D01*
X104423670Y-78624999D01*
X103900000Y-78624999D01*
X103900000Y-73965685D01*
X104215685Y-73650000D01*
X107033670Y-73650000D01*
X107033670Y-75750000D01*
X107038980Y-75803909D01*
X107054704Y-75855747D01*
X107080240Y-75903521D01*
X107114605Y-75945395D01*
X107156479Y-75979760D01*
X107204253Y-76005296D01*
X107256091Y-76021020D01*
X107260001Y-76021405D01*
X107260001Y-76393189D01*
X107201817Y-76480268D01*
X107150934Y-76603110D01*
X107124994Y-76733518D01*
X107124994Y-76866482D01*
X107150934Y-76996890D01*
X107201817Y-77119732D01*
X107275687Y-77230287D01*
X107369707Y-77324307D01*
X107480262Y-77398177D01*
X107603104Y-77449060D01*
X107733512Y-77475000D01*
X107866476Y-77475000D01*
X107996884Y-77449060D01*
X108119726Y-77398177D01*
X108230281Y-77324307D01*
X108324301Y-77230287D01*
X108398171Y-77119732D01*
X108449054Y-76996890D01*
X108474994Y-76866482D01*
X108474994Y-76733518D01*
X108449054Y-76603110D01*
X108398171Y-76480268D01*
X108324301Y-76369713D01*
X108230281Y-76275693D01*
X108119726Y-76201823D01*
X108060000Y-76177084D01*
X108060000Y-76021405D01*
X108063909Y-76021020D01*
X108115747Y-76005296D01*
X108163521Y-75979760D01*
X108205395Y-75945395D01*
X108239760Y-75903521D01*
X108265296Y-75855747D01*
X108266785Y-75850839D01*
X108274573Y-75876512D01*
X108305123Y-75933667D01*
X108346236Y-75983764D01*
X108396333Y-76024877D01*
X108453488Y-76055427D01*
X108515505Y-76074240D01*
X108580000Y-76080592D01*
X108795750Y-76079000D01*
X108878000Y-75996750D01*
X108878000Y-74752000D01*
X108982000Y-74752000D01*
X108982000Y-75996750D01*
X109064250Y-76079000D01*
X109280000Y-76080592D01*
X109344495Y-76074240D01*
X109406512Y-76055427D01*
X109463667Y-76024877D01*
X109513764Y-75983764D01*
X109554877Y-75933667D01*
X109565000Y-75914728D01*
X109575123Y-75933667D01*
X109616236Y-75983764D01*
X109666333Y-76024877D01*
X109723488Y-76055427D01*
X109785505Y-76074240D01*
X109850000Y-76080592D01*
X110065750Y-76079000D01*
X110148000Y-75996750D01*
X110148000Y-74752000D01*
X109603250Y-74752000D01*
X109565000Y-74790250D01*
X109526750Y-74752000D01*
X108982000Y-74752000D01*
X108878000Y-74752000D01*
X108858000Y-74752000D01*
X108858000Y-74648000D01*
X108878000Y-74648000D01*
X108878000Y-73403250D01*
X108795750Y-73321000D01*
X108580000Y-73319408D01*
X108515505Y-73325760D01*
X108453488Y-73344573D01*
X108396333Y-73375123D01*
X108346236Y-73416236D01*
X108305123Y-73466333D01*
X108274573Y-73523488D01*
X108266785Y-73549161D01*
X108265296Y-73544253D01*
X108239760Y-73496479D01*
X108205395Y-73454605D01*
X108163521Y-73420240D01*
X108115747Y-73394704D01*
X108063909Y-73378980D01*
X108010000Y-73373670D01*
X107310000Y-73373670D01*
X107256091Y-73378980D01*
X107204253Y-73394704D01*
X107156479Y-73420240D01*
X107114605Y-73454605D01*
X107080240Y-73496479D01*
X107054704Y-73544253D01*
X107038980Y-73596091D01*
X107033670Y-73650000D01*
X104215685Y-73650000D01*
X105032167Y-72833518D01*
X105625004Y-72833518D01*
X105625004Y-72966482D01*
X105650944Y-73096890D01*
X105701827Y-73219732D01*
X105775697Y-73330287D01*
X105869717Y-73424307D01*
X105980272Y-73498177D01*
X106103114Y-73549060D01*
X106233522Y-73575000D01*
X106366486Y-73575000D01*
X106496894Y-73549060D01*
X106619736Y-73498177D01*
X106730291Y-73424307D01*
X106824311Y-73330287D01*
X106898181Y-73219732D01*
X106906354Y-73200000D01*
X109034315Y-73200000D01*
X109154648Y-73320333D01*
X109064250Y-73321000D01*
X108982000Y-73403250D01*
X108982000Y-74648000D01*
X109526750Y-74648000D01*
X109565000Y-74609750D01*
X109603250Y-74648000D01*
X110148000Y-74648000D01*
X110148000Y-74628000D01*
X110252000Y-74628000D01*
X110252000Y-74648000D01*
X110272000Y-74648000D01*
X110272000Y-74752000D01*
X110252000Y-74752000D01*
X110252000Y-75996750D01*
X110334250Y-76079000D01*
X110550000Y-76080592D01*
X110614495Y-76074240D01*
X110676512Y-76055427D01*
X110733667Y-76024877D01*
X110783764Y-75983764D01*
X110824877Y-75933667D01*
X110855427Y-75876512D01*
X110863215Y-75850839D01*
X110864704Y-75855747D01*
X110890240Y-75903521D01*
X110924605Y-75945395D01*
X110966479Y-75979760D01*
X111014253Y-76005296D01*
X111066091Y-76021020D01*
X111120000Y-76026330D01*
X111820000Y-76026330D01*
X111873909Y-76021020D01*
X111925747Y-76005296D01*
X111973521Y-75979760D01*
X112015395Y-75945395D01*
X112049760Y-75903521D01*
X112075296Y-75855747D01*
X112076785Y-75850839D01*
X112084573Y-75876512D01*
X112115123Y-75933667D01*
X112156236Y-75983764D01*
X112206333Y-76024877D01*
X112263488Y-76055427D01*
X112325505Y-76074240D01*
X112390000Y-76080592D01*
X112605750Y-76079000D01*
X112688000Y-75996750D01*
X112688000Y-74752000D01*
X112792000Y-74752000D01*
X112792000Y-75996750D01*
X112874250Y-76079000D01*
X113090000Y-76080592D01*
X113154495Y-76074240D01*
X113216512Y-76055427D01*
X113273667Y-76024877D01*
X113323764Y-75983764D01*
X113364877Y-75933667D01*
X113395427Y-75876512D01*
X113414240Y-75814495D01*
X113420592Y-75750000D01*
X113419000Y-74834250D01*
X113336750Y-74752000D01*
X112792000Y-74752000D01*
X112688000Y-74752000D01*
X112668000Y-74752000D01*
X112668000Y-74648000D01*
X112688000Y-74648000D01*
X112688000Y-73403250D01*
X112792000Y-73403250D01*
X112792000Y-74648000D01*
X113336750Y-74648000D01*
X113419000Y-74565750D01*
X113420592Y-73650000D01*
X113414240Y-73585505D01*
X113395427Y-73523488D01*
X113364877Y-73466333D01*
X113323764Y-73416236D01*
X113273667Y-73375123D01*
X113216512Y-73344573D01*
X113154495Y-73325760D01*
X113090000Y-73319408D01*
X112874250Y-73321000D01*
X112792000Y-73403250D01*
X112688000Y-73403250D01*
X112605750Y-73321000D01*
X112390000Y-73319408D01*
X112325505Y-73325760D01*
X112263488Y-73344573D01*
X112206333Y-73375123D01*
X112156236Y-73416236D01*
X112115123Y-73466333D01*
X112084573Y-73523488D01*
X112076785Y-73549161D01*
X112075296Y-73544253D01*
X112049760Y-73496479D01*
X112015395Y-73454605D01*
X111973521Y-73420240D01*
X111925747Y-73394704D01*
X111873909Y-73378980D01*
X111871077Y-73378701D01*
X111871934Y-73369999D01*
X111870000Y-73350363D01*
X111870000Y-73350353D01*
X111864212Y-73291586D01*
X111841340Y-73216186D01*
X111804197Y-73146697D01*
X111754211Y-73085789D01*
X111738948Y-73073263D01*
X111596737Y-72931052D01*
X111584211Y-72915789D01*
X111523303Y-72865803D01*
X111453814Y-72828660D01*
X111378414Y-72805788D01*
X111319647Y-72800000D01*
X111319646Y-72800000D01*
X111300000Y-72798065D01*
X111280354Y-72800000D01*
X109765685Y-72800000D01*
X109496737Y-72531052D01*
X109484211Y-72515789D01*
X109423303Y-72465803D01*
X109353814Y-72428660D01*
X109278414Y-72405788D01*
X109219647Y-72400000D01*
X109219646Y-72400000D01*
X109200000Y-72398065D01*
X109180354Y-72400000D01*
X106754598Y-72400000D01*
X106730291Y-72375693D01*
X106619736Y-72301823D01*
X106496894Y-72250940D01*
X106366486Y-72225000D01*
X106233522Y-72225000D01*
X106103114Y-72250940D01*
X105980272Y-72301823D01*
X105869717Y-72375693D01*
X105775697Y-72469713D01*
X105701827Y-72580268D01*
X105650944Y-72703110D01*
X105625004Y-72833518D01*
X105032167Y-72833518D01*
X106765686Y-71100000D01*
X107033670Y-71100000D01*
X107033670Y-71750000D01*
X107038980Y-71803909D01*
X107054704Y-71855747D01*
X107080240Y-71903521D01*
X107114605Y-71945395D01*
X107156479Y-71979760D01*
X107204253Y-72005296D01*
X107256091Y-72021020D01*
X107310000Y-72026330D01*
X108010000Y-72026330D01*
X108063909Y-72021020D01*
X108115747Y-72005296D01*
X108163521Y-71979760D01*
X108205395Y-71945395D01*
X108239760Y-71903521D01*
X108265296Y-71855747D01*
X108281020Y-71803909D01*
X108286330Y-71750000D01*
X108286330Y-69650000D01*
X108281020Y-69596091D01*
X108265296Y-69544253D01*
X108239760Y-69496479D01*
X108205395Y-69454605D01*
X108163521Y-69420240D01*
X108115747Y-69394704D01*
X108063909Y-69378980D01*
X108010000Y-69373670D01*
X107310000Y-69373670D01*
X107256091Y-69378980D01*
X107204253Y-69394704D01*
X107156479Y-69420240D01*
X107114605Y-69454605D01*
X107080240Y-69496479D01*
X107054704Y-69544253D01*
X107038980Y-69596091D01*
X107033670Y-69650000D01*
X107033670Y-70300000D01*
X106619643Y-70300000D01*
X106599999Y-70298065D01*
X106580355Y-70300000D01*
X106580353Y-70300000D01*
X106521586Y-70305788D01*
X106446186Y-70328660D01*
X106386779Y-70360414D01*
X106376697Y-70365803D01*
X106331049Y-70403265D01*
X106331047Y-70403267D01*
X106315789Y-70415789D01*
X106303267Y-70431047D01*
X103231052Y-73503263D01*
X103215789Y-73515789D01*
X103165803Y-73576698D01*
X103128660Y-73646187D01*
X103105788Y-73721586D01*
X103105788Y-73721587D01*
X103098065Y-73800000D01*
X101992902Y-73800000D01*
X102044390Y-73765597D01*
X102213597Y-73596390D01*
X102346542Y-73397424D01*
X102438116Y-73176344D01*
X102484800Y-72941647D01*
X102484800Y-72702353D01*
X102438116Y-72467656D01*
X102346542Y-72246576D01*
X102213597Y-72047610D01*
X102044390Y-71878403D01*
X101845424Y-71745458D01*
X101624344Y-71653884D01*
X101389647Y-71607200D01*
X101150353Y-71607200D01*
X100915656Y-71653884D01*
X100694576Y-71745458D01*
X100495610Y-71878403D01*
X100326403Y-72047610D01*
X100200000Y-72236785D01*
X100200000Y-71161326D01*
X100464213Y-71161326D01*
X100563302Y-71343154D01*
X100783902Y-71460634D01*
X101023183Y-71532820D01*
X101271948Y-71556937D01*
X101520639Y-71532059D01*
X101759698Y-71459143D01*
X101976698Y-71343154D01*
X102075787Y-71161326D01*
X101270000Y-70355539D01*
X100464213Y-71161326D01*
X100200000Y-71161326D01*
X100200000Y-70972148D01*
X100208846Y-70988698D01*
X100390674Y-71087787D01*
X101196461Y-70282000D01*
X101343539Y-70282000D01*
X102149326Y-71087787D01*
X102331154Y-70988698D01*
X102448634Y-70768098D01*
X102520820Y-70528817D01*
X102544937Y-70280052D01*
X102520059Y-70031361D01*
X102447143Y-69792302D01*
X102331154Y-69575302D01*
X102149326Y-69476213D01*
X101343539Y-70282000D01*
X101196461Y-70282000D01*
X100390674Y-69476213D01*
X100208846Y-69575302D01*
X100200000Y-69591913D01*
X100200000Y-69402674D01*
X100464213Y-69402674D01*
X101270000Y-70208461D01*
X102075787Y-69402674D01*
X101976698Y-69220846D01*
X101756098Y-69103366D01*
X101516817Y-69031180D01*
X101268052Y-69007063D01*
X101019361Y-69031941D01*
X100780302Y-69104857D01*
X100563302Y-69220846D01*
X100464213Y-69402674D01*
X100200000Y-69402674D01*
X100200000Y-68327215D01*
X100326403Y-68516390D01*
X100495610Y-68685597D01*
X100694576Y-68818542D01*
X100915656Y-68910116D01*
X101150353Y-68956800D01*
X101389647Y-68956800D01*
X101624344Y-68910116D01*
X101845424Y-68818542D01*
X102044390Y-68685597D01*
X102096469Y-68633518D01*
X108225000Y-68633518D01*
X108225000Y-68766482D01*
X108250940Y-68896890D01*
X108301823Y-69019732D01*
X108375693Y-69130287D01*
X108469713Y-69224307D01*
X108530001Y-69264590D01*
X108530001Y-69378595D01*
X108526091Y-69378980D01*
X108474253Y-69394704D01*
X108426479Y-69420240D01*
X108384605Y-69454605D01*
X108350240Y-69496479D01*
X108324704Y-69544253D01*
X108308980Y-69596091D01*
X108303670Y-69650000D01*
X108303670Y-71750000D01*
X108308980Y-71803909D01*
X108324704Y-71855747D01*
X108350240Y-71903521D01*
X108384605Y-71945395D01*
X108426479Y-71979760D01*
X108474253Y-72005296D01*
X108526091Y-72021020D01*
X108580000Y-72026330D01*
X109280000Y-72026330D01*
X109333909Y-72021020D01*
X109385747Y-72005296D01*
X109433521Y-71979760D01*
X109475395Y-71945395D01*
X109509760Y-71903521D01*
X109535296Y-71855747D01*
X109551020Y-71803909D01*
X109556330Y-71750000D01*
X109556330Y-69650000D01*
X109551020Y-69596091D01*
X109535296Y-69544253D01*
X109509760Y-69496479D01*
X109475395Y-69454605D01*
X109433521Y-69420240D01*
X109385747Y-69394704D01*
X109333909Y-69378980D01*
X109330000Y-69378595D01*
X109330000Y-69224499D01*
X109330287Y-69224307D01*
X109424307Y-69130287D01*
X109498177Y-69019732D01*
X109549060Y-68896890D01*
X109575000Y-68766482D01*
X109575000Y-68633518D01*
X109549060Y-68503110D01*
X109498177Y-68380268D01*
X109424307Y-68269713D01*
X109330287Y-68175693D01*
X109219732Y-68101823D01*
X109096890Y-68050940D01*
X108966482Y-68025000D01*
X108833518Y-68025000D01*
X108703110Y-68050940D01*
X108580268Y-68101823D01*
X108469713Y-68175693D01*
X108375693Y-68269713D01*
X108301823Y-68380268D01*
X108250940Y-68503110D01*
X108225000Y-68633518D01*
X102096469Y-68633518D01*
X102213597Y-68516390D01*
X102346542Y-68317424D01*
X102438116Y-68096344D01*
X102484800Y-67861647D01*
X102484800Y-67622353D01*
X102438116Y-67387656D01*
X102346542Y-67166576D01*
X102213597Y-66967610D01*
X102044390Y-66798403D01*
X101897120Y-66700000D01*
X118422880Y-66700000D01*
X118275610Y-66798403D01*
M02*
