G04 #@! TF.GenerationSoftware,KiCad,Pcbnew,(5.1.6-0-10_14)*
G04 #@! TF.CreationDate,2020-08-14T16:39:20-05:00*
G04 #@! TF.ProjectId,gen2-jtag-adapter,67656e32-2d6a-4746-9167-2d6164617074,rev?*
G04 #@! TF.SameCoordinates,Original*
G04 #@! TF.FileFunction,Copper,L2,Bot*
G04 #@! TF.FilePolarity,Positive*
%FSLAX46Y46*%
G04 Gerber Fmt 4.6, Leading zero omitted, Abs format (unit mm)*
G04 Created by KiCad (PCBNEW (5.1.6-0-10_14)) date 2020-08-14 16:39:20*
%MOMM*%
%LPD*%
G01*
G04 APERTURE LIST*
G04 #@! TA.AperFunction,ComponentPad*
%ADD10C,1.879600*%
G04 #@! TD*
G04 #@! TA.AperFunction,SMDPad,CuDef*
%ADD11C,0.100000*%
G04 #@! TD*
G04 #@! TA.AperFunction,ViaPad*
%ADD12C,0.800000*%
G04 #@! TD*
G04 #@! TA.AperFunction,Conductor*
%ADD13C,0.250000*%
G04 #@! TD*
G04 #@! TA.AperFunction,Conductor*
%ADD14C,0.150000*%
G04 #@! TD*
G04 APERTURE END LIST*
D10*
X119050000Y-67742000D03*
X119050000Y-70282000D03*
X119050000Y-72822000D03*
X119050000Y-75362000D03*
X119050000Y-77902000D03*
X119050000Y-80442000D03*
X119050000Y-82982000D03*
X119050000Y-85522000D03*
X119050000Y-88062000D03*
X119050000Y-90602000D03*
X119050000Y-93142000D03*
X119050000Y-95682000D03*
X101270000Y-95682000D03*
X101270000Y-93142000D03*
X101270000Y-90602000D03*
X101270000Y-88062000D03*
X101270000Y-85522000D03*
X101270000Y-82982000D03*
X101270000Y-80442000D03*
X101270000Y-77902000D03*
X101270000Y-75362000D03*
X101270000Y-72822000D03*
X101270000Y-70282000D03*
X101270000Y-67742000D03*
G04 #@! TA.AperFunction,SMDPad,CuDef*
D11*
G36*
X103600000Y-76049398D02*
G01*
X103575466Y-76049398D01*
X103526635Y-76044588D01*
X103478510Y-76035016D01*
X103431555Y-76020772D01*
X103386222Y-76001995D01*
X103342949Y-75978864D01*
X103302150Y-75951604D01*
X103264221Y-75920476D01*
X103229524Y-75885779D01*
X103198396Y-75847850D01*
X103171136Y-75807051D01*
X103148005Y-75763778D01*
X103129228Y-75718445D01*
X103114984Y-75671490D01*
X103105412Y-75623365D01*
X103100602Y-75574534D01*
X103100602Y-75550000D01*
X103100000Y-75550000D01*
X103100000Y-75050000D01*
X103100602Y-75050000D01*
X103100602Y-75025466D01*
X103105412Y-74976635D01*
X103114984Y-74928510D01*
X103129228Y-74881555D01*
X103148005Y-74836222D01*
X103171136Y-74792949D01*
X103198396Y-74752150D01*
X103229524Y-74714221D01*
X103264221Y-74679524D01*
X103302150Y-74648396D01*
X103342949Y-74621136D01*
X103386222Y-74598005D01*
X103431555Y-74579228D01*
X103478510Y-74564984D01*
X103526635Y-74555412D01*
X103575466Y-74550602D01*
X103600000Y-74550602D01*
X103600000Y-74550000D01*
X104100000Y-74550000D01*
X104100000Y-76050000D01*
X103600000Y-76050000D01*
X103600000Y-76049398D01*
G37*
G04 #@! TD.AperFunction*
G04 #@! TA.AperFunction,SMDPad,CuDef*
G36*
X104400000Y-74550000D02*
G01*
X104900000Y-74550000D01*
X104900000Y-74550602D01*
X104924534Y-74550602D01*
X104973365Y-74555412D01*
X105021490Y-74564984D01*
X105068445Y-74579228D01*
X105113778Y-74598005D01*
X105157051Y-74621136D01*
X105197850Y-74648396D01*
X105235779Y-74679524D01*
X105270476Y-74714221D01*
X105301604Y-74752150D01*
X105328864Y-74792949D01*
X105351995Y-74836222D01*
X105370772Y-74881555D01*
X105385016Y-74928510D01*
X105394588Y-74976635D01*
X105399398Y-75025466D01*
X105399398Y-75050000D01*
X105400000Y-75050000D01*
X105400000Y-75550000D01*
X105399398Y-75550000D01*
X105399398Y-75574534D01*
X105394588Y-75623365D01*
X105385016Y-75671490D01*
X105370772Y-75718445D01*
X105351995Y-75763778D01*
X105328864Y-75807051D01*
X105301604Y-75847850D01*
X105270476Y-75885779D01*
X105235779Y-75920476D01*
X105197850Y-75951604D01*
X105157051Y-75978864D01*
X105113778Y-76001995D01*
X105068445Y-76020772D01*
X105021490Y-76035016D01*
X104973365Y-76044588D01*
X104924534Y-76049398D01*
X104900000Y-76049398D01*
X104900000Y-76050000D01*
X104400000Y-76050000D01*
X104400000Y-74550000D01*
G37*
G04 #@! TD.AperFunction*
G04 #@! TA.AperFunction,SMDPad,CuDef*
G36*
X103600000Y-73549398D02*
G01*
X103575466Y-73549398D01*
X103526635Y-73544588D01*
X103478510Y-73535016D01*
X103431555Y-73520772D01*
X103386222Y-73501995D01*
X103342949Y-73478864D01*
X103302150Y-73451604D01*
X103264221Y-73420476D01*
X103229524Y-73385779D01*
X103198396Y-73347850D01*
X103171136Y-73307051D01*
X103148005Y-73263778D01*
X103129228Y-73218445D01*
X103114984Y-73171490D01*
X103105412Y-73123365D01*
X103100602Y-73074534D01*
X103100602Y-73050000D01*
X103100000Y-73050000D01*
X103100000Y-72550000D01*
X103100602Y-72550000D01*
X103100602Y-72525466D01*
X103105412Y-72476635D01*
X103114984Y-72428510D01*
X103129228Y-72381555D01*
X103148005Y-72336222D01*
X103171136Y-72292949D01*
X103198396Y-72252150D01*
X103229524Y-72214221D01*
X103264221Y-72179524D01*
X103302150Y-72148396D01*
X103342949Y-72121136D01*
X103386222Y-72098005D01*
X103431555Y-72079228D01*
X103478510Y-72064984D01*
X103526635Y-72055412D01*
X103575466Y-72050602D01*
X103600000Y-72050602D01*
X103600000Y-72050000D01*
X104100000Y-72050000D01*
X104100000Y-73550000D01*
X103600000Y-73550000D01*
X103600000Y-73549398D01*
G37*
G04 #@! TD.AperFunction*
G04 #@! TA.AperFunction,SMDPad,CuDef*
G36*
X104400000Y-72050000D02*
G01*
X104900000Y-72050000D01*
X104900000Y-72050602D01*
X104924534Y-72050602D01*
X104973365Y-72055412D01*
X105021490Y-72064984D01*
X105068445Y-72079228D01*
X105113778Y-72098005D01*
X105157051Y-72121136D01*
X105197850Y-72148396D01*
X105235779Y-72179524D01*
X105270476Y-72214221D01*
X105301604Y-72252150D01*
X105328864Y-72292949D01*
X105351995Y-72336222D01*
X105370772Y-72381555D01*
X105385016Y-72428510D01*
X105394588Y-72476635D01*
X105399398Y-72525466D01*
X105399398Y-72550000D01*
X105400000Y-72550000D01*
X105400000Y-73050000D01*
X105399398Y-73050000D01*
X105399398Y-73074534D01*
X105394588Y-73123365D01*
X105385016Y-73171490D01*
X105370772Y-73218445D01*
X105351995Y-73263778D01*
X105328864Y-73307051D01*
X105301604Y-73347850D01*
X105270476Y-73385779D01*
X105235779Y-73420476D01*
X105197850Y-73451604D01*
X105157051Y-73478864D01*
X105113778Y-73501995D01*
X105068445Y-73520772D01*
X105021490Y-73535016D01*
X104973365Y-73544588D01*
X104924534Y-73549398D01*
X104900000Y-73549398D01*
X104900000Y-73550000D01*
X104400000Y-73550000D01*
X104400000Y-72050000D01*
G37*
G04 #@! TD.AperFunction*
G04 #@! TA.AperFunction,SMDPad,CuDef*
G36*
X115450000Y-68499398D02*
G01*
X115425466Y-68499398D01*
X115376635Y-68494588D01*
X115328510Y-68485016D01*
X115281555Y-68470772D01*
X115236222Y-68451995D01*
X115192949Y-68428864D01*
X115152150Y-68401604D01*
X115114221Y-68370476D01*
X115079524Y-68335779D01*
X115048396Y-68297850D01*
X115021136Y-68257051D01*
X114998005Y-68213778D01*
X114979228Y-68168445D01*
X114964984Y-68121490D01*
X114955412Y-68073365D01*
X114950602Y-68024534D01*
X114950602Y-68000000D01*
X114950000Y-68000000D01*
X114950000Y-67500000D01*
X114950602Y-67500000D01*
X114950602Y-67475466D01*
X114955412Y-67426635D01*
X114964984Y-67378510D01*
X114979228Y-67331555D01*
X114998005Y-67286222D01*
X115021136Y-67242949D01*
X115048396Y-67202150D01*
X115079524Y-67164221D01*
X115114221Y-67129524D01*
X115152150Y-67098396D01*
X115192949Y-67071136D01*
X115236222Y-67048005D01*
X115281555Y-67029228D01*
X115328510Y-67014984D01*
X115376635Y-67005412D01*
X115425466Y-67000602D01*
X115450000Y-67000602D01*
X115450000Y-67000000D01*
X115950000Y-67000000D01*
X115950000Y-68500000D01*
X115450000Y-68500000D01*
X115450000Y-68499398D01*
G37*
G04 #@! TD.AperFunction*
G04 #@! TA.AperFunction,SMDPad,CuDef*
G36*
X116250000Y-67000000D02*
G01*
X116750000Y-67000000D01*
X116750000Y-67000602D01*
X116774534Y-67000602D01*
X116823365Y-67005412D01*
X116871490Y-67014984D01*
X116918445Y-67029228D01*
X116963778Y-67048005D01*
X117007051Y-67071136D01*
X117047850Y-67098396D01*
X117085779Y-67129524D01*
X117120476Y-67164221D01*
X117151604Y-67202150D01*
X117178864Y-67242949D01*
X117201995Y-67286222D01*
X117220772Y-67331555D01*
X117235016Y-67378510D01*
X117244588Y-67426635D01*
X117249398Y-67475466D01*
X117249398Y-67500000D01*
X117250000Y-67500000D01*
X117250000Y-68000000D01*
X117249398Y-68000000D01*
X117249398Y-68024534D01*
X117244588Y-68073365D01*
X117235016Y-68121490D01*
X117220772Y-68168445D01*
X117201995Y-68213778D01*
X117178864Y-68257051D01*
X117151604Y-68297850D01*
X117120476Y-68335779D01*
X117085779Y-68370476D01*
X117047850Y-68401604D01*
X117007051Y-68428864D01*
X116963778Y-68451995D01*
X116918445Y-68470772D01*
X116871490Y-68485016D01*
X116823365Y-68494588D01*
X116774534Y-68499398D01*
X116750000Y-68499398D01*
X116750000Y-68500000D01*
X116250000Y-68500000D01*
X116250000Y-67000000D01*
G37*
G04 #@! TD.AperFunction*
D12*
X113800000Y-68900000D03*
X110200000Y-86000000D03*
X107000000Y-86000000D03*
X113400000Y-86000000D03*
X116900000Y-83100000D03*
X115000000Y-69200000D03*
X104200000Y-67200000D03*
X111900000Y-67200000D03*
X110500000Y-76600000D03*
X110100000Y-68700000D03*
X114700000Y-71700000D03*
X105800000Y-74100000D03*
X107300000Y-67200000D03*
X103600000Y-86000000D03*
X116900000Y-86700000D03*
X111400000Y-68599992D03*
X106300004Y-72900000D03*
X111800000Y-82500000D03*
X108900000Y-68700000D03*
X107000000Y-80700004D03*
X109300012Y-82500000D03*
X105400000Y-82500000D03*
X107799994Y-76800000D03*
X113100000Y-77000000D03*
X115700000Y-76100000D03*
D13*
X119050000Y-70282000D02*
X114516315Y-70282000D01*
X114516315Y-70282000D02*
X113800000Y-69565685D01*
X113800000Y-69565685D02*
X113800000Y-68900000D01*
X107700000Y-73400000D02*
X105800000Y-75300000D01*
X107700000Y-68200000D02*
X107700000Y-73400000D01*
X108400000Y-67500000D02*
X107700000Y-68200000D01*
X110300008Y-67500000D02*
X108400000Y-67500000D01*
X105800000Y-75300000D02*
X104900000Y-75300000D01*
X111400000Y-68599992D02*
X110300008Y-67500000D01*
X106200004Y-72800000D02*
X106300004Y-72900000D01*
X104900000Y-72800000D02*
X106200004Y-72800000D01*
X113600000Y-82500000D02*
X111800000Y-82500000D01*
X116622000Y-85522000D02*
X113600000Y-82500000D01*
X119050000Y-85522000D02*
X116622000Y-85522000D01*
X106200000Y-79900004D02*
X107000000Y-80700004D01*
X106200000Y-76100000D02*
X106200000Y-79900004D01*
X108900000Y-73400000D02*
X106200000Y-76100000D01*
X108900000Y-68700000D02*
X108900000Y-73400000D01*
X110900012Y-80900000D02*
X109300012Y-82500000D01*
X118592000Y-80900000D02*
X110900012Y-80900000D01*
X119050000Y-80442000D02*
X118592000Y-80900000D01*
X107373004Y-82500000D02*
X105400000Y-82500000D01*
X110173004Y-79700000D02*
X107373004Y-82500000D01*
X117252000Y-79700000D02*
X110173004Y-79700000D01*
X119050000Y-77902000D02*
X117252000Y-79700000D01*
X115450000Y-67750000D02*
X113050000Y-67750000D01*
X112400000Y-68400000D02*
X112400000Y-72199994D01*
X113050000Y-67750000D02*
X112400000Y-68400000D01*
X112400000Y-72199994D02*
X107799994Y-76800000D01*
X119042000Y-67750000D02*
X119050000Y-67742000D01*
X116750000Y-67750000D02*
X119042000Y-67750000D01*
X114800000Y-77000000D02*
X115700000Y-76100000D01*
X113100000Y-77000000D02*
X114800000Y-77000000D01*
X103522000Y-72822000D02*
X103600000Y-72900000D01*
X101270000Y-72822000D02*
X103522000Y-72822000D01*
X103562000Y-75362000D02*
X103600000Y-75400000D01*
X101270000Y-75362000D02*
X103562000Y-75362000D01*
D14*
G36*
X110732107Y-68497784D02*
G01*
X110725000Y-68533510D01*
X110725000Y-68666474D01*
X110750940Y-68796882D01*
X110801823Y-68919724D01*
X110875693Y-69030279D01*
X110969713Y-69124299D01*
X111080268Y-69198169D01*
X111203110Y-69249052D01*
X111333518Y-69274992D01*
X111466482Y-69274992D01*
X111596890Y-69249052D01*
X111719732Y-69198169D01*
X111830287Y-69124299D01*
X111924307Y-69030279D01*
X111998177Y-68919724D01*
X112000000Y-68915323D01*
X112000001Y-72034307D01*
X107902202Y-76132106D01*
X107866476Y-76125000D01*
X107733512Y-76125000D01*
X107603104Y-76150940D01*
X107480262Y-76201823D01*
X107369707Y-76275693D01*
X107275687Y-76369713D01*
X107201817Y-76480268D01*
X107150934Y-76603110D01*
X107124994Y-76733518D01*
X107124994Y-76866482D01*
X107150934Y-76996890D01*
X107201817Y-77119732D01*
X107275687Y-77230287D01*
X107369707Y-77324307D01*
X107480262Y-77398177D01*
X107603104Y-77449060D01*
X107733512Y-77475000D01*
X107866476Y-77475000D01*
X107996884Y-77449060D01*
X108119726Y-77398177D01*
X108230281Y-77324307D01*
X108324301Y-77230287D01*
X108398171Y-77119732D01*
X108449054Y-76996890D01*
X108461659Y-76933518D01*
X112425000Y-76933518D01*
X112425000Y-77066482D01*
X112450940Y-77196890D01*
X112501823Y-77319732D01*
X112575693Y-77430287D01*
X112669713Y-77524307D01*
X112780268Y-77598177D01*
X112903110Y-77649060D01*
X113033518Y-77675000D01*
X113166482Y-77675000D01*
X113296890Y-77649060D01*
X113419732Y-77598177D01*
X113530287Y-77524307D01*
X113624307Y-77430287D01*
X113644544Y-77400000D01*
X114780354Y-77400000D01*
X114800000Y-77401935D01*
X114819646Y-77400000D01*
X114819647Y-77400000D01*
X114878414Y-77394212D01*
X114953814Y-77371340D01*
X115023303Y-77334197D01*
X115084211Y-77284211D01*
X115096737Y-77268948D01*
X115597792Y-76767894D01*
X115633518Y-76775000D01*
X115766482Y-76775000D01*
X115896890Y-76749060D01*
X116019732Y-76698177D01*
X116130287Y-76624307D01*
X116224307Y-76530287D01*
X116298177Y-76419732D01*
X116349060Y-76296890D01*
X116360112Y-76241326D01*
X118244213Y-76241326D01*
X118343302Y-76423154D01*
X118563902Y-76540634D01*
X118803183Y-76612820D01*
X119051948Y-76636937D01*
X119300639Y-76612059D01*
X119539698Y-76539143D01*
X119756698Y-76423154D01*
X119855787Y-76241326D01*
X119050000Y-75435539D01*
X118244213Y-76241326D01*
X116360112Y-76241326D01*
X116375000Y-76166482D01*
X116375000Y-76033518D01*
X116349060Y-75903110D01*
X116298177Y-75780268D01*
X116224307Y-75669713D01*
X116130287Y-75575693D01*
X116019732Y-75501823D01*
X115896890Y-75450940D01*
X115766482Y-75425000D01*
X115633518Y-75425000D01*
X115503110Y-75450940D01*
X115380268Y-75501823D01*
X115269713Y-75575693D01*
X115175693Y-75669713D01*
X115101823Y-75780268D01*
X115050940Y-75903110D01*
X115025000Y-76033518D01*
X115025000Y-76166482D01*
X115032106Y-76202208D01*
X114634315Y-76600000D01*
X113644544Y-76600000D01*
X113624307Y-76569713D01*
X113530287Y-76475693D01*
X113419732Y-76401823D01*
X113296890Y-76350940D01*
X113166482Y-76325000D01*
X113033518Y-76325000D01*
X112903110Y-76350940D01*
X112780268Y-76401823D01*
X112669713Y-76475693D01*
X112575693Y-76569713D01*
X112501823Y-76680268D01*
X112450940Y-76803110D01*
X112425000Y-76933518D01*
X108461659Y-76933518D01*
X108474994Y-76866482D01*
X108474994Y-76733518D01*
X108467888Y-76697792D01*
X109801732Y-75363948D01*
X117775063Y-75363948D01*
X117799941Y-75612639D01*
X117872857Y-75851698D01*
X117988846Y-76068698D01*
X118170674Y-76167787D01*
X118976461Y-75362000D01*
X118170674Y-74556213D01*
X117988846Y-74655302D01*
X117871366Y-74875902D01*
X117799180Y-75115183D01*
X117775063Y-75363948D01*
X109801732Y-75363948D01*
X110683006Y-74482674D01*
X118244213Y-74482674D01*
X119050000Y-75288461D01*
X119855787Y-74482674D01*
X119756698Y-74300846D01*
X119536098Y-74183366D01*
X119296817Y-74111180D01*
X119048052Y-74087063D01*
X118799361Y-74111941D01*
X118560302Y-74184857D01*
X118343302Y-74300846D01*
X118244213Y-74482674D01*
X110683006Y-74482674D01*
X112668953Y-72496727D01*
X112684211Y-72484205D01*
X112697793Y-72467656D01*
X112734197Y-72423297D01*
X112771340Y-72353809D01*
X112794212Y-72278408D01*
X112801935Y-72199994D01*
X112800000Y-72180348D01*
X112800000Y-68565685D01*
X113215686Y-68150000D01*
X114635427Y-68150000D01*
X114647290Y-68209637D01*
X114666102Y-68271653D01*
X114703611Y-68362209D01*
X114734162Y-68419365D01*
X114788618Y-68500864D01*
X114829731Y-68550961D01*
X114899039Y-68620269D01*
X114949136Y-68661382D01*
X115030635Y-68715838D01*
X115087791Y-68746389D01*
X115178347Y-68783898D01*
X115240363Y-68802710D01*
X115336496Y-68821832D01*
X115400991Y-68828184D01*
X115425550Y-68828184D01*
X115450000Y-68830592D01*
X115950000Y-68830592D01*
X116014495Y-68824240D01*
X116076512Y-68805427D01*
X116100000Y-68792872D01*
X116123488Y-68805427D01*
X116185505Y-68824240D01*
X116250000Y-68830592D01*
X116750000Y-68830592D01*
X116774450Y-68828184D01*
X116799009Y-68828184D01*
X116863504Y-68821832D01*
X116959637Y-68802710D01*
X117021653Y-68783898D01*
X117112209Y-68746389D01*
X117169365Y-68715838D01*
X117250864Y-68661382D01*
X117300961Y-68620269D01*
X117370269Y-68550961D01*
X117411382Y-68500864D01*
X117465838Y-68419365D01*
X117496389Y-68362209D01*
X117533898Y-68271653D01*
X117552710Y-68209637D01*
X117564573Y-68150000D01*
X117904109Y-68150000D01*
X117973458Y-68317424D01*
X118106403Y-68516390D01*
X118275610Y-68685597D01*
X118474576Y-68818542D01*
X118695656Y-68910116D01*
X118930353Y-68956800D01*
X119169647Y-68956800D01*
X119404344Y-68910116D01*
X119625424Y-68818542D01*
X119824390Y-68685597D01*
X119993597Y-68516390D01*
X120100000Y-68357147D01*
X120100000Y-69666853D01*
X119993597Y-69507610D01*
X119824390Y-69338403D01*
X119625424Y-69205458D01*
X119404344Y-69113884D01*
X119169647Y-69067200D01*
X118930353Y-69067200D01*
X118695656Y-69113884D01*
X118474576Y-69205458D01*
X118275610Y-69338403D01*
X118106403Y-69507610D01*
X117973458Y-69706576D01*
X117900795Y-69882000D01*
X114682000Y-69882000D01*
X114226702Y-69426702D01*
X114230287Y-69424307D01*
X114324307Y-69330287D01*
X114398177Y-69219732D01*
X114449060Y-69096890D01*
X114475000Y-68966482D01*
X114475000Y-68833518D01*
X114449060Y-68703110D01*
X114398177Y-68580268D01*
X114324307Y-68469713D01*
X114230287Y-68375693D01*
X114119732Y-68301823D01*
X113996890Y-68250940D01*
X113866482Y-68225000D01*
X113733518Y-68225000D01*
X113603110Y-68250940D01*
X113480268Y-68301823D01*
X113369713Y-68375693D01*
X113275693Y-68469713D01*
X113201823Y-68580268D01*
X113150940Y-68703110D01*
X113125000Y-68833518D01*
X113125000Y-68966482D01*
X113150940Y-69096890D01*
X113201823Y-69219732D01*
X113275693Y-69330287D01*
X113369713Y-69424307D01*
X113400000Y-69444544D01*
X113400000Y-69546038D01*
X113398065Y-69565685D01*
X113400000Y-69585331D01*
X113405788Y-69644098D01*
X113428660Y-69719498D01*
X113465803Y-69788987D01*
X113515789Y-69849896D01*
X113531052Y-69862422D01*
X114219578Y-70550948D01*
X114232104Y-70566211D01*
X114293012Y-70616197D01*
X114362501Y-70653340D01*
X114437901Y-70676212D01*
X114496668Y-70682000D01*
X114496678Y-70682000D01*
X114516314Y-70683934D01*
X114535950Y-70682000D01*
X117900795Y-70682000D01*
X117973458Y-70857424D01*
X118106403Y-71056390D01*
X118275610Y-71225597D01*
X118474576Y-71358542D01*
X118695656Y-71450116D01*
X118930353Y-71496800D01*
X119169647Y-71496800D01*
X119404344Y-71450116D01*
X119625424Y-71358542D01*
X119824390Y-71225597D01*
X119993597Y-71056390D01*
X120100000Y-70897147D01*
X120100000Y-72206853D01*
X119993597Y-72047610D01*
X119824390Y-71878403D01*
X119625424Y-71745458D01*
X119404344Y-71653884D01*
X119169647Y-71607200D01*
X118930353Y-71607200D01*
X118695656Y-71653884D01*
X118474576Y-71745458D01*
X118275610Y-71878403D01*
X118106403Y-72047610D01*
X117973458Y-72246576D01*
X117881884Y-72467656D01*
X117835200Y-72702353D01*
X117835200Y-72941647D01*
X117881884Y-73176344D01*
X117973458Y-73397424D01*
X118106403Y-73596390D01*
X118275610Y-73765597D01*
X118474576Y-73898542D01*
X118695656Y-73990116D01*
X118930353Y-74036800D01*
X119169647Y-74036800D01*
X119404344Y-73990116D01*
X119625424Y-73898542D01*
X119824390Y-73765597D01*
X119993597Y-73596390D01*
X120100000Y-73437147D01*
X120100000Y-74649224D01*
X119929326Y-74556213D01*
X119123539Y-75362000D01*
X119929326Y-76167787D01*
X120100000Y-76074776D01*
X120100000Y-77286854D01*
X119993597Y-77127610D01*
X119824390Y-76958403D01*
X119625424Y-76825458D01*
X119404344Y-76733884D01*
X119169647Y-76687200D01*
X118930353Y-76687200D01*
X118695656Y-76733884D01*
X118474576Y-76825458D01*
X118275610Y-76958403D01*
X118106403Y-77127610D01*
X117973458Y-77326576D01*
X117881884Y-77547656D01*
X117835200Y-77782353D01*
X117835200Y-78021647D01*
X117881884Y-78256344D01*
X117954547Y-78431768D01*
X117086315Y-79300000D01*
X110192650Y-79300000D01*
X110173004Y-79298065D01*
X110153357Y-79300000D01*
X110094590Y-79305788D01*
X110019190Y-79328660D01*
X109950346Y-79365458D01*
X109949701Y-79365803D01*
X109904053Y-79403265D01*
X109904051Y-79403267D01*
X109888793Y-79415789D01*
X109876271Y-79431047D01*
X107207319Y-82100000D01*
X105944544Y-82100000D01*
X105924307Y-82069713D01*
X105830287Y-81975693D01*
X105719732Y-81901823D01*
X105596890Y-81850940D01*
X105466482Y-81825000D01*
X105333518Y-81825000D01*
X105203110Y-81850940D01*
X105080268Y-81901823D01*
X104969713Y-81975693D01*
X104875693Y-82069713D01*
X104801823Y-82180268D01*
X104750940Y-82303110D01*
X104725000Y-82433518D01*
X104725000Y-82566482D01*
X104750940Y-82696890D01*
X104801823Y-82819732D01*
X104875693Y-82930287D01*
X104969713Y-83024307D01*
X105080268Y-83098177D01*
X105203110Y-83149060D01*
X105333518Y-83175000D01*
X105466482Y-83175000D01*
X105596890Y-83149060D01*
X105719732Y-83098177D01*
X105830287Y-83024307D01*
X105924307Y-82930287D01*
X105944544Y-82900000D01*
X107353358Y-82900000D01*
X107373004Y-82901935D01*
X107392650Y-82900000D01*
X107392651Y-82900000D01*
X107451418Y-82894212D01*
X107526818Y-82871340D01*
X107596307Y-82834197D01*
X107657215Y-82784211D01*
X107669741Y-82768948D01*
X110338690Y-80100000D01*
X117232354Y-80100000D01*
X117252000Y-80101935D01*
X117271646Y-80100000D01*
X117271647Y-80100000D01*
X117330414Y-80094212D01*
X117405814Y-80071340D01*
X117475303Y-80034197D01*
X117536211Y-79984211D01*
X117548737Y-79968948D01*
X118520232Y-78997453D01*
X118695656Y-79070116D01*
X118930353Y-79116800D01*
X119169647Y-79116800D01*
X119404344Y-79070116D01*
X119625424Y-78978542D01*
X119824390Y-78845597D01*
X119993597Y-78676390D01*
X120100000Y-78517146D01*
X120100000Y-79826854D01*
X119993597Y-79667610D01*
X119824390Y-79498403D01*
X119625424Y-79365458D01*
X119404344Y-79273884D01*
X119169647Y-79227200D01*
X118930353Y-79227200D01*
X118695656Y-79273884D01*
X118474576Y-79365458D01*
X118275610Y-79498403D01*
X118106403Y-79667610D01*
X117973458Y-79866576D01*
X117881884Y-80087656D01*
X117835200Y-80322353D01*
X117835200Y-80500000D01*
X110919659Y-80500000D01*
X110900012Y-80498065D01*
X110880365Y-80500000D01*
X110821598Y-80505788D01*
X110746198Y-80528660D01*
X110676709Y-80565803D01*
X110615801Y-80615789D01*
X110603277Y-80631050D01*
X109402220Y-81832107D01*
X109366494Y-81825000D01*
X109233530Y-81825000D01*
X109103122Y-81850940D01*
X108980280Y-81901823D01*
X108869725Y-81975693D01*
X108775705Y-82069713D01*
X108701835Y-82180268D01*
X108650952Y-82303110D01*
X108625012Y-82433518D01*
X108625012Y-82566482D01*
X108650952Y-82696890D01*
X108701835Y-82819732D01*
X108775705Y-82930287D01*
X108869725Y-83024307D01*
X108980280Y-83098177D01*
X109103122Y-83149060D01*
X109233530Y-83175000D01*
X109366494Y-83175000D01*
X109496902Y-83149060D01*
X109619744Y-83098177D01*
X109730299Y-83024307D01*
X109824319Y-82930287D01*
X109898189Y-82819732D01*
X109949072Y-82696890D01*
X109975012Y-82566482D01*
X109975012Y-82433518D01*
X109967905Y-82397792D01*
X111065697Y-81300000D01*
X118190013Y-81300000D01*
X118275610Y-81385597D01*
X118474576Y-81518542D01*
X118695656Y-81610116D01*
X118930353Y-81656800D01*
X119169647Y-81656800D01*
X119404344Y-81610116D01*
X119625424Y-81518542D01*
X119824390Y-81385597D01*
X119993597Y-81216390D01*
X120100000Y-81057146D01*
X120100001Y-82366854D01*
X119993597Y-82207610D01*
X119824390Y-82038403D01*
X119625424Y-81905458D01*
X119404344Y-81813884D01*
X119169647Y-81767200D01*
X118930353Y-81767200D01*
X118695656Y-81813884D01*
X118474576Y-81905458D01*
X118275610Y-82038403D01*
X118106403Y-82207610D01*
X117973458Y-82406576D01*
X117881884Y-82627656D01*
X117835200Y-82862353D01*
X117835200Y-83101647D01*
X117881884Y-83336344D01*
X117973458Y-83557424D01*
X118106403Y-83756390D01*
X118275610Y-83925597D01*
X118474576Y-84058542D01*
X118695656Y-84150116D01*
X118930353Y-84196800D01*
X119169647Y-84196800D01*
X119404344Y-84150116D01*
X119625424Y-84058542D01*
X119824390Y-83925597D01*
X119993597Y-83756390D01*
X120100001Y-83597146D01*
X120100001Y-84906854D01*
X119993597Y-84747610D01*
X119824390Y-84578403D01*
X119625424Y-84445458D01*
X119404344Y-84353884D01*
X119169647Y-84307200D01*
X118930353Y-84307200D01*
X118695656Y-84353884D01*
X118474576Y-84445458D01*
X118275610Y-84578403D01*
X118106403Y-84747610D01*
X117973458Y-84946576D01*
X117900795Y-85122000D01*
X116787685Y-85122000D01*
X113896735Y-82231050D01*
X113884211Y-82215789D01*
X113823303Y-82165803D01*
X113753814Y-82128660D01*
X113678414Y-82105788D01*
X113619647Y-82100000D01*
X113619646Y-82100000D01*
X113600000Y-82098065D01*
X113580354Y-82100000D01*
X112344544Y-82100000D01*
X112324307Y-82069713D01*
X112230287Y-81975693D01*
X112119732Y-81901823D01*
X111996890Y-81850940D01*
X111866482Y-81825000D01*
X111733518Y-81825000D01*
X111603110Y-81850940D01*
X111480268Y-81901823D01*
X111369713Y-81975693D01*
X111275693Y-82069713D01*
X111201823Y-82180268D01*
X111150940Y-82303110D01*
X111125000Y-82433518D01*
X111125000Y-82566482D01*
X111150940Y-82696890D01*
X111201823Y-82819732D01*
X111275693Y-82930287D01*
X111369713Y-83024307D01*
X111480268Y-83098177D01*
X111603110Y-83149060D01*
X111733518Y-83175000D01*
X111866482Y-83175000D01*
X111996890Y-83149060D01*
X112119732Y-83098177D01*
X112230287Y-83024307D01*
X112324307Y-82930287D01*
X112344544Y-82900000D01*
X113434315Y-82900000D01*
X116325263Y-85790948D01*
X116337789Y-85806211D01*
X116398697Y-85856197D01*
X116468186Y-85893340D01*
X116543586Y-85916212D01*
X116602353Y-85922000D01*
X116602363Y-85922000D01*
X116621999Y-85923934D01*
X116641635Y-85922000D01*
X117900795Y-85922000D01*
X117973458Y-86097424D01*
X118106403Y-86296390D01*
X118275610Y-86465597D01*
X118474576Y-86598542D01*
X118695656Y-86690116D01*
X118930353Y-86736800D01*
X119169647Y-86736800D01*
X119404344Y-86690116D01*
X119625424Y-86598542D01*
X119824390Y-86465597D01*
X119993597Y-86296390D01*
X120100001Y-86137146D01*
X120100001Y-87446854D01*
X119993597Y-87287610D01*
X119824390Y-87118403D01*
X119625424Y-86985458D01*
X119404344Y-86893884D01*
X119169647Y-86847200D01*
X118930353Y-86847200D01*
X118695656Y-86893884D01*
X118474576Y-86985458D01*
X118275610Y-87118403D01*
X118106403Y-87287610D01*
X117973458Y-87486576D01*
X117881884Y-87707656D01*
X117835200Y-87942353D01*
X117835200Y-88181647D01*
X117881884Y-88416344D01*
X117973458Y-88637424D01*
X118106403Y-88836390D01*
X118275610Y-89005597D01*
X118474576Y-89138542D01*
X118695656Y-89230116D01*
X118930353Y-89276800D01*
X119169647Y-89276800D01*
X119404344Y-89230116D01*
X119625424Y-89138542D01*
X119824390Y-89005597D01*
X119993597Y-88836390D01*
X120100001Y-88677146D01*
X120100001Y-89986854D01*
X119993597Y-89827610D01*
X119824390Y-89658403D01*
X119625424Y-89525458D01*
X119404344Y-89433884D01*
X119169647Y-89387200D01*
X118930353Y-89387200D01*
X118695656Y-89433884D01*
X118474576Y-89525458D01*
X118275610Y-89658403D01*
X118106403Y-89827610D01*
X117973458Y-90026576D01*
X117881884Y-90247656D01*
X117835200Y-90482353D01*
X117835200Y-90721647D01*
X117881884Y-90956344D01*
X117973458Y-91177424D01*
X118106403Y-91376390D01*
X118275610Y-91545597D01*
X118474576Y-91678542D01*
X118695656Y-91770116D01*
X118930353Y-91816800D01*
X119169647Y-91816800D01*
X119404344Y-91770116D01*
X119625424Y-91678542D01*
X119824390Y-91545597D01*
X119993597Y-91376390D01*
X120100001Y-91217146D01*
X120100001Y-92526854D01*
X119993597Y-92367610D01*
X119824390Y-92198403D01*
X119625424Y-92065458D01*
X119404344Y-91973884D01*
X119169647Y-91927200D01*
X118930353Y-91927200D01*
X118695656Y-91973884D01*
X118474576Y-92065458D01*
X118275610Y-92198403D01*
X118106403Y-92367610D01*
X117973458Y-92566576D01*
X117881884Y-92787656D01*
X117835200Y-93022353D01*
X117835200Y-93261647D01*
X117881884Y-93496344D01*
X117973458Y-93717424D01*
X118106403Y-93916390D01*
X118275610Y-94085597D01*
X118474576Y-94218542D01*
X118695656Y-94310116D01*
X118930353Y-94356800D01*
X119169647Y-94356800D01*
X119404344Y-94310116D01*
X119625424Y-94218542D01*
X119824390Y-94085597D01*
X119993597Y-93916390D01*
X120100001Y-93757146D01*
X120100001Y-95066855D01*
X119993597Y-94907610D01*
X119824390Y-94738403D01*
X119625424Y-94605458D01*
X119404344Y-94513884D01*
X119169647Y-94467200D01*
X118930353Y-94467200D01*
X118695656Y-94513884D01*
X118474576Y-94605458D01*
X118275610Y-94738403D01*
X118106403Y-94907610D01*
X117973458Y-95106576D01*
X117881884Y-95327656D01*
X117835200Y-95562353D01*
X117835200Y-95801647D01*
X117881884Y-96036344D01*
X117973458Y-96257424D01*
X118106403Y-96456390D01*
X118250013Y-96600000D01*
X102069987Y-96600000D01*
X102213597Y-96456390D01*
X102346542Y-96257424D01*
X102438116Y-96036344D01*
X102484800Y-95801647D01*
X102484800Y-95562353D01*
X102438116Y-95327656D01*
X102346542Y-95106576D01*
X102213597Y-94907610D01*
X102044390Y-94738403D01*
X101845424Y-94605458D01*
X101624344Y-94513884D01*
X101389647Y-94467200D01*
X101150353Y-94467200D01*
X100915656Y-94513884D01*
X100694576Y-94605458D01*
X100495610Y-94738403D01*
X100326403Y-94907610D01*
X100200000Y-95096785D01*
X100200000Y-93727215D01*
X100326403Y-93916390D01*
X100495610Y-94085597D01*
X100694576Y-94218542D01*
X100915656Y-94310116D01*
X101150353Y-94356800D01*
X101389647Y-94356800D01*
X101624344Y-94310116D01*
X101845424Y-94218542D01*
X102044390Y-94085597D01*
X102213597Y-93916390D01*
X102346542Y-93717424D01*
X102438116Y-93496344D01*
X102484800Y-93261647D01*
X102484800Y-93022353D01*
X102438116Y-92787656D01*
X102346542Y-92566576D01*
X102213597Y-92367610D01*
X102044390Y-92198403D01*
X101845424Y-92065458D01*
X101624344Y-91973884D01*
X101389647Y-91927200D01*
X101150353Y-91927200D01*
X100915656Y-91973884D01*
X100694576Y-92065458D01*
X100495610Y-92198403D01*
X100326403Y-92367610D01*
X100200000Y-92556785D01*
X100200000Y-91187215D01*
X100326403Y-91376390D01*
X100495610Y-91545597D01*
X100694576Y-91678542D01*
X100915656Y-91770116D01*
X101150353Y-91816800D01*
X101389647Y-91816800D01*
X101624344Y-91770116D01*
X101845424Y-91678542D01*
X102044390Y-91545597D01*
X102213597Y-91376390D01*
X102346542Y-91177424D01*
X102438116Y-90956344D01*
X102484800Y-90721647D01*
X102484800Y-90482353D01*
X102438116Y-90247656D01*
X102346542Y-90026576D01*
X102213597Y-89827610D01*
X102044390Y-89658403D01*
X101845424Y-89525458D01*
X101624344Y-89433884D01*
X101389647Y-89387200D01*
X101150353Y-89387200D01*
X100915656Y-89433884D01*
X100694576Y-89525458D01*
X100495610Y-89658403D01*
X100326403Y-89827610D01*
X100200000Y-90016785D01*
X100200000Y-88647215D01*
X100326403Y-88836390D01*
X100495610Y-89005597D01*
X100694576Y-89138542D01*
X100915656Y-89230116D01*
X101150353Y-89276800D01*
X101389647Y-89276800D01*
X101624344Y-89230116D01*
X101845424Y-89138542D01*
X102044390Y-89005597D01*
X102213597Y-88836390D01*
X102346542Y-88637424D01*
X102438116Y-88416344D01*
X102484800Y-88181647D01*
X102484800Y-87942353D01*
X102438116Y-87707656D01*
X102346542Y-87486576D01*
X102213597Y-87287610D01*
X102044390Y-87118403D01*
X101845424Y-86985458D01*
X101624344Y-86893884D01*
X101389647Y-86847200D01*
X101150353Y-86847200D01*
X100915656Y-86893884D01*
X100694576Y-86985458D01*
X100495610Y-87118403D01*
X100326403Y-87287610D01*
X100200000Y-87476785D01*
X100200000Y-86107215D01*
X100326403Y-86296390D01*
X100495610Y-86465597D01*
X100694576Y-86598542D01*
X100915656Y-86690116D01*
X101150353Y-86736800D01*
X101389647Y-86736800D01*
X101624344Y-86690116D01*
X101845424Y-86598542D01*
X102044390Y-86465597D01*
X102213597Y-86296390D01*
X102346542Y-86097424D01*
X102438116Y-85876344D01*
X102484800Y-85641647D01*
X102484800Y-85402353D01*
X102438116Y-85167656D01*
X102346542Y-84946576D01*
X102213597Y-84747610D01*
X102044390Y-84578403D01*
X101845424Y-84445458D01*
X101624344Y-84353884D01*
X101389647Y-84307200D01*
X101150353Y-84307200D01*
X100915656Y-84353884D01*
X100694576Y-84445458D01*
X100495610Y-84578403D01*
X100326403Y-84747610D01*
X100200000Y-84936785D01*
X100200000Y-83567215D01*
X100326403Y-83756390D01*
X100495610Y-83925597D01*
X100694576Y-84058542D01*
X100915656Y-84150116D01*
X101150353Y-84196800D01*
X101389647Y-84196800D01*
X101624344Y-84150116D01*
X101845424Y-84058542D01*
X102044390Y-83925597D01*
X102213597Y-83756390D01*
X102346542Y-83557424D01*
X102438116Y-83336344D01*
X102484800Y-83101647D01*
X102484800Y-82862353D01*
X102438116Y-82627656D01*
X102346542Y-82406576D01*
X102213597Y-82207610D01*
X102044390Y-82038403D01*
X101845424Y-81905458D01*
X101624344Y-81813884D01*
X101389647Y-81767200D01*
X101150353Y-81767200D01*
X100915656Y-81813884D01*
X100694576Y-81905458D01*
X100495610Y-82038403D01*
X100326403Y-82207610D01*
X100200000Y-82396785D01*
X100200000Y-81027215D01*
X100326403Y-81216390D01*
X100495610Y-81385597D01*
X100694576Y-81518542D01*
X100915656Y-81610116D01*
X101150353Y-81656800D01*
X101389647Y-81656800D01*
X101624344Y-81610116D01*
X101845424Y-81518542D01*
X102044390Y-81385597D01*
X102213597Y-81216390D01*
X102346542Y-81017424D01*
X102438116Y-80796344D01*
X102484800Y-80561647D01*
X102484800Y-80322353D01*
X102438116Y-80087656D01*
X102346542Y-79866576D01*
X102213597Y-79667610D01*
X102044390Y-79498403D01*
X101845424Y-79365458D01*
X101624344Y-79273884D01*
X101389647Y-79227200D01*
X101150353Y-79227200D01*
X100915656Y-79273884D01*
X100694576Y-79365458D01*
X100495610Y-79498403D01*
X100326403Y-79667610D01*
X100200000Y-79856785D01*
X100200000Y-78487215D01*
X100326403Y-78676390D01*
X100495610Y-78845597D01*
X100694576Y-78978542D01*
X100915656Y-79070116D01*
X101150353Y-79116800D01*
X101389647Y-79116800D01*
X101624344Y-79070116D01*
X101845424Y-78978542D01*
X102044390Y-78845597D01*
X102213597Y-78676390D01*
X102346542Y-78477424D01*
X102438116Y-78256344D01*
X102484800Y-78021647D01*
X102484800Y-77782353D01*
X102438116Y-77547656D01*
X102346542Y-77326576D01*
X102213597Y-77127610D01*
X102044390Y-76958403D01*
X101845424Y-76825458D01*
X101624344Y-76733884D01*
X101389647Y-76687200D01*
X101150353Y-76687200D01*
X100915656Y-76733884D01*
X100694576Y-76825458D01*
X100495610Y-76958403D01*
X100326403Y-77127610D01*
X100200000Y-77316785D01*
X100200000Y-75947215D01*
X100326403Y-76136390D01*
X100495610Y-76305597D01*
X100694576Y-76438542D01*
X100915656Y-76530116D01*
X101150353Y-76576800D01*
X101389647Y-76576800D01*
X101624344Y-76530116D01*
X101845424Y-76438542D01*
X102044390Y-76305597D01*
X102213597Y-76136390D01*
X102346542Y-75937424D01*
X102419205Y-75762000D01*
X102798007Y-75762000D01*
X102816102Y-75821653D01*
X102853611Y-75912209D01*
X102884162Y-75969365D01*
X102938618Y-76050864D01*
X102979731Y-76100961D01*
X103049039Y-76170269D01*
X103099136Y-76211382D01*
X103180635Y-76265838D01*
X103237791Y-76296389D01*
X103328347Y-76333898D01*
X103390363Y-76352710D01*
X103486496Y-76371832D01*
X103550991Y-76378184D01*
X103575550Y-76378184D01*
X103600000Y-76380592D01*
X104100000Y-76380592D01*
X104164495Y-76374240D01*
X104226512Y-76355427D01*
X104250000Y-76342872D01*
X104273488Y-76355427D01*
X104335505Y-76374240D01*
X104400000Y-76380592D01*
X104900000Y-76380592D01*
X104924450Y-76378184D01*
X104949009Y-76378184D01*
X105013504Y-76371832D01*
X105109637Y-76352710D01*
X105171653Y-76333898D01*
X105262209Y-76296389D01*
X105319365Y-76265838D01*
X105400864Y-76211382D01*
X105450961Y-76170269D01*
X105520269Y-76100961D01*
X105521057Y-76100000D01*
X105798065Y-76100000D01*
X105800000Y-76119647D01*
X105800001Y-79880348D01*
X105798065Y-79900004D01*
X105805788Y-79978417D01*
X105828661Y-80053818D01*
X105865803Y-80123306D01*
X105903265Y-80168954D01*
X105903268Y-80168957D01*
X105915790Y-80184215D01*
X105931047Y-80196737D01*
X106332106Y-80597796D01*
X106325000Y-80633522D01*
X106325000Y-80766486D01*
X106350940Y-80896894D01*
X106401823Y-81019736D01*
X106475693Y-81130291D01*
X106569713Y-81224311D01*
X106680268Y-81298181D01*
X106803110Y-81349064D01*
X106933518Y-81375004D01*
X107066482Y-81375004D01*
X107196890Y-81349064D01*
X107319732Y-81298181D01*
X107430287Y-81224311D01*
X107524307Y-81130291D01*
X107598177Y-81019736D01*
X107649060Y-80896894D01*
X107675000Y-80766486D01*
X107675000Y-80633522D01*
X107649060Y-80503114D01*
X107598177Y-80380272D01*
X107524307Y-80269717D01*
X107430287Y-80175697D01*
X107319732Y-80101827D01*
X107196890Y-80050944D01*
X107066482Y-80025004D01*
X106933518Y-80025004D01*
X106897792Y-80032110D01*
X106600000Y-79734319D01*
X106600000Y-76265685D01*
X109168948Y-73696737D01*
X109184211Y-73684211D01*
X109234197Y-73623303D01*
X109271340Y-73553814D01*
X109294212Y-73478414D01*
X109300000Y-73419647D01*
X109301935Y-73400000D01*
X109300000Y-73380353D01*
X109300000Y-69244544D01*
X109330287Y-69224307D01*
X109424307Y-69130287D01*
X109498177Y-69019732D01*
X109549060Y-68896890D01*
X109575000Y-68766482D01*
X109575000Y-68633518D01*
X109549060Y-68503110D01*
X109498177Y-68380268D01*
X109424307Y-68269713D01*
X109330287Y-68175693D01*
X109219732Y-68101823D01*
X109096890Y-68050940D01*
X108966482Y-68025000D01*
X108833518Y-68025000D01*
X108703110Y-68050940D01*
X108580268Y-68101823D01*
X108469713Y-68175693D01*
X108375693Y-68269713D01*
X108301823Y-68380268D01*
X108250940Y-68503110D01*
X108225000Y-68633518D01*
X108225000Y-68766482D01*
X108250940Y-68896890D01*
X108301823Y-69019732D01*
X108375693Y-69130287D01*
X108469713Y-69224307D01*
X108500000Y-69244544D01*
X108500001Y-73234314D01*
X105931052Y-75803263D01*
X105915789Y-75815789D01*
X105865803Y-75876698D01*
X105828660Y-75946187D01*
X105805788Y-76021586D01*
X105805788Y-76021587D01*
X105798065Y-76100000D01*
X105521057Y-76100000D01*
X105561382Y-76050864D01*
X105615838Y-75969365D01*
X105646389Y-75912209D01*
X105683898Y-75821653D01*
X105702710Y-75759637D01*
X105714573Y-75700000D01*
X105780354Y-75700000D01*
X105800000Y-75701935D01*
X105819646Y-75700000D01*
X105819647Y-75700000D01*
X105878414Y-75694212D01*
X105953814Y-75671340D01*
X106023303Y-75634197D01*
X106084211Y-75584211D01*
X106096737Y-75568948D01*
X107968953Y-73696733D01*
X107984211Y-73684211D01*
X107996736Y-73668950D01*
X108034197Y-73623303D01*
X108071340Y-73553814D01*
X108094212Y-73478414D01*
X108101935Y-73400000D01*
X108100000Y-73380353D01*
X108100000Y-68365685D01*
X108565685Y-67900000D01*
X110134323Y-67900000D01*
X110732107Y-68497784D01*
G37*
X110732107Y-68497784D02*
X110725000Y-68533510D01*
X110725000Y-68666474D01*
X110750940Y-68796882D01*
X110801823Y-68919724D01*
X110875693Y-69030279D01*
X110969713Y-69124299D01*
X111080268Y-69198169D01*
X111203110Y-69249052D01*
X111333518Y-69274992D01*
X111466482Y-69274992D01*
X111596890Y-69249052D01*
X111719732Y-69198169D01*
X111830287Y-69124299D01*
X111924307Y-69030279D01*
X111998177Y-68919724D01*
X112000000Y-68915323D01*
X112000001Y-72034307D01*
X107902202Y-76132106D01*
X107866476Y-76125000D01*
X107733512Y-76125000D01*
X107603104Y-76150940D01*
X107480262Y-76201823D01*
X107369707Y-76275693D01*
X107275687Y-76369713D01*
X107201817Y-76480268D01*
X107150934Y-76603110D01*
X107124994Y-76733518D01*
X107124994Y-76866482D01*
X107150934Y-76996890D01*
X107201817Y-77119732D01*
X107275687Y-77230287D01*
X107369707Y-77324307D01*
X107480262Y-77398177D01*
X107603104Y-77449060D01*
X107733512Y-77475000D01*
X107866476Y-77475000D01*
X107996884Y-77449060D01*
X108119726Y-77398177D01*
X108230281Y-77324307D01*
X108324301Y-77230287D01*
X108398171Y-77119732D01*
X108449054Y-76996890D01*
X108461659Y-76933518D01*
X112425000Y-76933518D01*
X112425000Y-77066482D01*
X112450940Y-77196890D01*
X112501823Y-77319732D01*
X112575693Y-77430287D01*
X112669713Y-77524307D01*
X112780268Y-77598177D01*
X112903110Y-77649060D01*
X113033518Y-77675000D01*
X113166482Y-77675000D01*
X113296890Y-77649060D01*
X113419732Y-77598177D01*
X113530287Y-77524307D01*
X113624307Y-77430287D01*
X113644544Y-77400000D01*
X114780354Y-77400000D01*
X114800000Y-77401935D01*
X114819646Y-77400000D01*
X114819647Y-77400000D01*
X114878414Y-77394212D01*
X114953814Y-77371340D01*
X115023303Y-77334197D01*
X115084211Y-77284211D01*
X115096737Y-77268948D01*
X115597792Y-76767894D01*
X115633518Y-76775000D01*
X115766482Y-76775000D01*
X115896890Y-76749060D01*
X116019732Y-76698177D01*
X116130287Y-76624307D01*
X116224307Y-76530287D01*
X116298177Y-76419732D01*
X116349060Y-76296890D01*
X116360112Y-76241326D01*
X118244213Y-76241326D01*
X118343302Y-76423154D01*
X118563902Y-76540634D01*
X118803183Y-76612820D01*
X119051948Y-76636937D01*
X119300639Y-76612059D01*
X119539698Y-76539143D01*
X119756698Y-76423154D01*
X119855787Y-76241326D01*
X119050000Y-75435539D01*
X118244213Y-76241326D01*
X116360112Y-76241326D01*
X116375000Y-76166482D01*
X116375000Y-76033518D01*
X116349060Y-75903110D01*
X116298177Y-75780268D01*
X116224307Y-75669713D01*
X116130287Y-75575693D01*
X116019732Y-75501823D01*
X115896890Y-75450940D01*
X115766482Y-75425000D01*
X115633518Y-75425000D01*
X115503110Y-75450940D01*
X115380268Y-75501823D01*
X115269713Y-75575693D01*
X115175693Y-75669713D01*
X115101823Y-75780268D01*
X115050940Y-75903110D01*
X115025000Y-76033518D01*
X115025000Y-76166482D01*
X115032106Y-76202208D01*
X114634315Y-76600000D01*
X113644544Y-76600000D01*
X113624307Y-76569713D01*
X113530287Y-76475693D01*
X113419732Y-76401823D01*
X113296890Y-76350940D01*
X113166482Y-76325000D01*
X113033518Y-76325000D01*
X112903110Y-76350940D01*
X112780268Y-76401823D01*
X112669713Y-76475693D01*
X112575693Y-76569713D01*
X112501823Y-76680268D01*
X112450940Y-76803110D01*
X112425000Y-76933518D01*
X108461659Y-76933518D01*
X108474994Y-76866482D01*
X108474994Y-76733518D01*
X108467888Y-76697792D01*
X109801732Y-75363948D01*
X117775063Y-75363948D01*
X117799941Y-75612639D01*
X117872857Y-75851698D01*
X117988846Y-76068698D01*
X118170674Y-76167787D01*
X118976461Y-75362000D01*
X118170674Y-74556213D01*
X117988846Y-74655302D01*
X117871366Y-74875902D01*
X117799180Y-75115183D01*
X117775063Y-75363948D01*
X109801732Y-75363948D01*
X110683006Y-74482674D01*
X118244213Y-74482674D01*
X119050000Y-75288461D01*
X119855787Y-74482674D01*
X119756698Y-74300846D01*
X119536098Y-74183366D01*
X119296817Y-74111180D01*
X119048052Y-74087063D01*
X118799361Y-74111941D01*
X118560302Y-74184857D01*
X118343302Y-74300846D01*
X118244213Y-74482674D01*
X110683006Y-74482674D01*
X112668953Y-72496727D01*
X112684211Y-72484205D01*
X112697793Y-72467656D01*
X112734197Y-72423297D01*
X112771340Y-72353809D01*
X112794212Y-72278408D01*
X112801935Y-72199994D01*
X112800000Y-72180348D01*
X112800000Y-68565685D01*
X113215686Y-68150000D01*
X114635427Y-68150000D01*
X114647290Y-68209637D01*
X114666102Y-68271653D01*
X114703611Y-68362209D01*
X114734162Y-68419365D01*
X114788618Y-68500864D01*
X114829731Y-68550961D01*
X114899039Y-68620269D01*
X114949136Y-68661382D01*
X115030635Y-68715838D01*
X115087791Y-68746389D01*
X115178347Y-68783898D01*
X115240363Y-68802710D01*
X115336496Y-68821832D01*
X115400991Y-68828184D01*
X115425550Y-68828184D01*
X115450000Y-68830592D01*
X115950000Y-68830592D01*
X116014495Y-68824240D01*
X116076512Y-68805427D01*
X116100000Y-68792872D01*
X116123488Y-68805427D01*
X116185505Y-68824240D01*
X116250000Y-68830592D01*
X116750000Y-68830592D01*
X116774450Y-68828184D01*
X116799009Y-68828184D01*
X116863504Y-68821832D01*
X116959637Y-68802710D01*
X117021653Y-68783898D01*
X117112209Y-68746389D01*
X117169365Y-68715838D01*
X117250864Y-68661382D01*
X117300961Y-68620269D01*
X117370269Y-68550961D01*
X117411382Y-68500864D01*
X117465838Y-68419365D01*
X117496389Y-68362209D01*
X117533898Y-68271653D01*
X117552710Y-68209637D01*
X117564573Y-68150000D01*
X117904109Y-68150000D01*
X117973458Y-68317424D01*
X118106403Y-68516390D01*
X118275610Y-68685597D01*
X118474576Y-68818542D01*
X118695656Y-68910116D01*
X118930353Y-68956800D01*
X119169647Y-68956800D01*
X119404344Y-68910116D01*
X119625424Y-68818542D01*
X119824390Y-68685597D01*
X119993597Y-68516390D01*
X120100000Y-68357147D01*
X120100000Y-69666853D01*
X119993597Y-69507610D01*
X119824390Y-69338403D01*
X119625424Y-69205458D01*
X119404344Y-69113884D01*
X119169647Y-69067200D01*
X118930353Y-69067200D01*
X118695656Y-69113884D01*
X118474576Y-69205458D01*
X118275610Y-69338403D01*
X118106403Y-69507610D01*
X117973458Y-69706576D01*
X117900795Y-69882000D01*
X114682000Y-69882000D01*
X114226702Y-69426702D01*
X114230287Y-69424307D01*
X114324307Y-69330287D01*
X114398177Y-69219732D01*
X114449060Y-69096890D01*
X114475000Y-68966482D01*
X114475000Y-68833518D01*
X114449060Y-68703110D01*
X114398177Y-68580268D01*
X114324307Y-68469713D01*
X114230287Y-68375693D01*
X114119732Y-68301823D01*
X113996890Y-68250940D01*
X113866482Y-68225000D01*
X113733518Y-68225000D01*
X113603110Y-68250940D01*
X113480268Y-68301823D01*
X113369713Y-68375693D01*
X113275693Y-68469713D01*
X113201823Y-68580268D01*
X113150940Y-68703110D01*
X113125000Y-68833518D01*
X113125000Y-68966482D01*
X113150940Y-69096890D01*
X113201823Y-69219732D01*
X113275693Y-69330287D01*
X113369713Y-69424307D01*
X113400000Y-69444544D01*
X113400000Y-69546038D01*
X113398065Y-69565685D01*
X113400000Y-69585331D01*
X113405788Y-69644098D01*
X113428660Y-69719498D01*
X113465803Y-69788987D01*
X113515789Y-69849896D01*
X113531052Y-69862422D01*
X114219578Y-70550948D01*
X114232104Y-70566211D01*
X114293012Y-70616197D01*
X114362501Y-70653340D01*
X114437901Y-70676212D01*
X114496668Y-70682000D01*
X114496678Y-70682000D01*
X114516314Y-70683934D01*
X114535950Y-70682000D01*
X117900795Y-70682000D01*
X117973458Y-70857424D01*
X118106403Y-71056390D01*
X118275610Y-71225597D01*
X118474576Y-71358542D01*
X118695656Y-71450116D01*
X118930353Y-71496800D01*
X119169647Y-71496800D01*
X119404344Y-71450116D01*
X119625424Y-71358542D01*
X119824390Y-71225597D01*
X119993597Y-71056390D01*
X120100000Y-70897147D01*
X120100000Y-72206853D01*
X119993597Y-72047610D01*
X119824390Y-71878403D01*
X119625424Y-71745458D01*
X119404344Y-71653884D01*
X119169647Y-71607200D01*
X118930353Y-71607200D01*
X118695656Y-71653884D01*
X118474576Y-71745458D01*
X118275610Y-71878403D01*
X118106403Y-72047610D01*
X117973458Y-72246576D01*
X117881884Y-72467656D01*
X117835200Y-72702353D01*
X117835200Y-72941647D01*
X117881884Y-73176344D01*
X117973458Y-73397424D01*
X118106403Y-73596390D01*
X118275610Y-73765597D01*
X118474576Y-73898542D01*
X118695656Y-73990116D01*
X118930353Y-74036800D01*
X119169647Y-74036800D01*
X119404344Y-73990116D01*
X119625424Y-73898542D01*
X119824390Y-73765597D01*
X119993597Y-73596390D01*
X120100000Y-73437147D01*
X120100000Y-74649224D01*
X119929326Y-74556213D01*
X119123539Y-75362000D01*
X119929326Y-76167787D01*
X120100000Y-76074776D01*
X120100000Y-77286854D01*
X119993597Y-77127610D01*
X119824390Y-76958403D01*
X119625424Y-76825458D01*
X119404344Y-76733884D01*
X119169647Y-76687200D01*
X118930353Y-76687200D01*
X118695656Y-76733884D01*
X118474576Y-76825458D01*
X118275610Y-76958403D01*
X118106403Y-77127610D01*
X117973458Y-77326576D01*
X117881884Y-77547656D01*
X117835200Y-77782353D01*
X117835200Y-78021647D01*
X117881884Y-78256344D01*
X117954547Y-78431768D01*
X117086315Y-79300000D01*
X110192650Y-79300000D01*
X110173004Y-79298065D01*
X110153357Y-79300000D01*
X110094590Y-79305788D01*
X110019190Y-79328660D01*
X109950346Y-79365458D01*
X109949701Y-79365803D01*
X109904053Y-79403265D01*
X109904051Y-79403267D01*
X109888793Y-79415789D01*
X109876271Y-79431047D01*
X107207319Y-82100000D01*
X105944544Y-82100000D01*
X105924307Y-82069713D01*
X105830287Y-81975693D01*
X105719732Y-81901823D01*
X105596890Y-81850940D01*
X105466482Y-81825000D01*
X105333518Y-81825000D01*
X105203110Y-81850940D01*
X105080268Y-81901823D01*
X104969713Y-81975693D01*
X104875693Y-82069713D01*
X104801823Y-82180268D01*
X104750940Y-82303110D01*
X104725000Y-82433518D01*
X104725000Y-82566482D01*
X104750940Y-82696890D01*
X104801823Y-82819732D01*
X104875693Y-82930287D01*
X104969713Y-83024307D01*
X105080268Y-83098177D01*
X105203110Y-83149060D01*
X105333518Y-83175000D01*
X105466482Y-83175000D01*
X105596890Y-83149060D01*
X105719732Y-83098177D01*
X105830287Y-83024307D01*
X105924307Y-82930287D01*
X105944544Y-82900000D01*
X107353358Y-82900000D01*
X107373004Y-82901935D01*
X107392650Y-82900000D01*
X107392651Y-82900000D01*
X107451418Y-82894212D01*
X107526818Y-82871340D01*
X107596307Y-82834197D01*
X107657215Y-82784211D01*
X107669741Y-82768948D01*
X110338690Y-80100000D01*
X117232354Y-80100000D01*
X117252000Y-80101935D01*
X117271646Y-80100000D01*
X117271647Y-80100000D01*
X117330414Y-80094212D01*
X117405814Y-80071340D01*
X117475303Y-80034197D01*
X117536211Y-79984211D01*
X117548737Y-79968948D01*
X118520232Y-78997453D01*
X118695656Y-79070116D01*
X118930353Y-79116800D01*
X119169647Y-79116800D01*
X119404344Y-79070116D01*
X119625424Y-78978542D01*
X119824390Y-78845597D01*
X119993597Y-78676390D01*
X120100000Y-78517146D01*
X120100000Y-79826854D01*
X119993597Y-79667610D01*
X119824390Y-79498403D01*
X119625424Y-79365458D01*
X119404344Y-79273884D01*
X119169647Y-79227200D01*
X118930353Y-79227200D01*
X118695656Y-79273884D01*
X118474576Y-79365458D01*
X118275610Y-79498403D01*
X118106403Y-79667610D01*
X117973458Y-79866576D01*
X117881884Y-80087656D01*
X117835200Y-80322353D01*
X117835200Y-80500000D01*
X110919659Y-80500000D01*
X110900012Y-80498065D01*
X110880365Y-80500000D01*
X110821598Y-80505788D01*
X110746198Y-80528660D01*
X110676709Y-80565803D01*
X110615801Y-80615789D01*
X110603277Y-80631050D01*
X109402220Y-81832107D01*
X109366494Y-81825000D01*
X109233530Y-81825000D01*
X109103122Y-81850940D01*
X108980280Y-81901823D01*
X108869725Y-81975693D01*
X108775705Y-82069713D01*
X108701835Y-82180268D01*
X108650952Y-82303110D01*
X108625012Y-82433518D01*
X108625012Y-82566482D01*
X108650952Y-82696890D01*
X108701835Y-82819732D01*
X108775705Y-82930287D01*
X108869725Y-83024307D01*
X108980280Y-83098177D01*
X109103122Y-83149060D01*
X109233530Y-83175000D01*
X109366494Y-83175000D01*
X109496902Y-83149060D01*
X109619744Y-83098177D01*
X109730299Y-83024307D01*
X109824319Y-82930287D01*
X109898189Y-82819732D01*
X109949072Y-82696890D01*
X109975012Y-82566482D01*
X109975012Y-82433518D01*
X109967905Y-82397792D01*
X111065697Y-81300000D01*
X118190013Y-81300000D01*
X118275610Y-81385597D01*
X118474576Y-81518542D01*
X118695656Y-81610116D01*
X118930353Y-81656800D01*
X119169647Y-81656800D01*
X119404344Y-81610116D01*
X119625424Y-81518542D01*
X119824390Y-81385597D01*
X119993597Y-81216390D01*
X120100000Y-81057146D01*
X120100001Y-82366854D01*
X119993597Y-82207610D01*
X119824390Y-82038403D01*
X119625424Y-81905458D01*
X119404344Y-81813884D01*
X119169647Y-81767200D01*
X118930353Y-81767200D01*
X118695656Y-81813884D01*
X118474576Y-81905458D01*
X118275610Y-82038403D01*
X118106403Y-82207610D01*
X117973458Y-82406576D01*
X117881884Y-82627656D01*
X117835200Y-82862353D01*
X117835200Y-83101647D01*
X117881884Y-83336344D01*
X117973458Y-83557424D01*
X118106403Y-83756390D01*
X118275610Y-83925597D01*
X118474576Y-84058542D01*
X118695656Y-84150116D01*
X118930353Y-84196800D01*
X119169647Y-84196800D01*
X119404344Y-84150116D01*
X119625424Y-84058542D01*
X119824390Y-83925597D01*
X119993597Y-83756390D01*
X120100001Y-83597146D01*
X120100001Y-84906854D01*
X119993597Y-84747610D01*
X119824390Y-84578403D01*
X119625424Y-84445458D01*
X119404344Y-84353884D01*
X119169647Y-84307200D01*
X118930353Y-84307200D01*
X118695656Y-84353884D01*
X118474576Y-84445458D01*
X118275610Y-84578403D01*
X118106403Y-84747610D01*
X117973458Y-84946576D01*
X117900795Y-85122000D01*
X116787685Y-85122000D01*
X113896735Y-82231050D01*
X113884211Y-82215789D01*
X113823303Y-82165803D01*
X113753814Y-82128660D01*
X113678414Y-82105788D01*
X113619647Y-82100000D01*
X113619646Y-82100000D01*
X113600000Y-82098065D01*
X113580354Y-82100000D01*
X112344544Y-82100000D01*
X112324307Y-82069713D01*
X112230287Y-81975693D01*
X112119732Y-81901823D01*
X111996890Y-81850940D01*
X111866482Y-81825000D01*
X111733518Y-81825000D01*
X111603110Y-81850940D01*
X111480268Y-81901823D01*
X111369713Y-81975693D01*
X111275693Y-82069713D01*
X111201823Y-82180268D01*
X111150940Y-82303110D01*
X111125000Y-82433518D01*
X111125000Y-82566482D01*
X111150940Y-82696890D01*
X111201823Y-82819732D01*
X111275693Y-82930287D01*
X111369713Y-83024307D01*
X111480268Y-83098177D01*
X111603110Y-83149060D01*
X111733518Y-83175000D01*
X111866482Y-83175000D01*
X111996890Y-83149060D01*
X112119732Y-83098177D01*
X112230287Y-83024307D01*
X112324307Y-82930287D01*
X112344544Y-82900000D01*
X113434315Y-82900000D01*
X116325263Y-85790948D01*
X116337789Y-85806211D01*
X116398697Y-85856197D01*
X116468186Y-85893340D01*
X116543586Y-85916212D01*
X116602353Y-85922000D01*
X116602363Y-85922000D01*
X116621999Y-85923934D01*
X116641635Y-85922000D01*
X117900795Y-85922000D01*
X117973458Y-86097424D01*
X118106403Y-86296390D01*
X118275610Y-86465597D01*
X118474576Y-86598542D01*
X118695656Y-86690116D01*
X118930353Y-86736800D01*
X119169647Y-86736800D01*
X119404344Y-86690116D01*
X119625424Y-86598542D01*
X119824390Y-86465597D01*
X119993597Y-86296390D01*
X120100001Y-86137146D01*
X120100001Y-87446854D01*
X119993597Y-87287610D01*
X119824390Y-87118403D01*
X119625424Y-86985458D01*
X119404344Y-86893884D01*
X119169647Y-86847200D01*
X118930353Y-86847200D01*
X118695656Y-86893884D01*
X118474576Y-86985458D01*
X118275610Y-87118403D01*
X118106403Y-87287610D01*
X117973458Y-87486576D01*
X117881884Y-87707656D01*
X117835200Y-87942353D01*
X117835200Y-88181647D01*
X117881884Y-88416344D01*
X117973458Y-88637424D01*
X118106403Y-88836390D01*
X118275610Y-89005597D01*
X118474576Y-89138542D01*
X118695656Y-89230116D01*
X118930353Y-89276800D01*
X119169647Y-89276800D01*
X119404344Y-89230116D01*
X119625424Y-89138542D01*
X119824390Y-89005597D01*
X119993597Y-88836390D01*
X120100001Y-88677146D01*
X120100001Y-89986854D01*
X119993597Y-89827610D01*
X119824390Y-89658403D01*
X119625424Y-89525458D01*
X119404344Y-89433884D01*
X119169647Y-89387200D01*
X118930353Y-89387200D01*
X118695656Y-89433884D01*
X118474576Y-89525458D01*
X118275610Y-89658403D01*
X118106403Y-89827610D01*
X117973458Y-90026576D01*
X117881884Y-90247656D01*
X117835200Y-90482353D01*
X117835200Y-90721647D01*
X117881884Y-90956344D01*
X117973458Y-91177424D01*
X118106403Y-91376390D01*
X118275610Y-91545597D01*
X118474576Y-91678542D01*
X118695656Y-91770116D01*
X118930353Y-91816800D01*
X119169647Y-91816800D01*
X119404344Y-91770116D01*
X119625424Y-91678542D01*
X119824390Y-91545597D01*
X119993597Y-91376390D01*
X120100001Y-91217146D01*
X120100001Y-92526854D01*
X119993597Y-92367610D01*
X119824390Y-92198403D01*
X119625424Y-92065458D01*
X119404344Y-91973884D01*
X119169647Y-91927200D01*
X118930353Y-91927200D01*
X118695656Y-91973884D01*
X118474576Y-92065458D01*
X118275610Y-92198403D01*
X118106403Y-92367610D01*
X117973458Y-92566576D01*
X117881884Y-92787656D01*
X117835200Y-93022353D01*
X117835200Y-93261647D01*
X117881884Y-93496344D01*
X117973458Y-93717424D01*
X118106403Y-93916390D01*
X118275610Y-94085597D01*
X118474576Y-94218542D01*
X118695656Y-94310116D01*
X118930353Y-94356800D01*
X119169647Y-94356800D01*
X119404344Y-94310116D01*
X119625424Y-94218542D01*
X119824390Y-94085597D01*
X119993597Y-93916390D01*
X120100001Y-93757146D01*
X120100001Y-95066855D01*
X119993597Y-94907610D01*
X119824390Y-94738403D01*
X119625424Y-94605458D01*
X119404344Y-94513884D01*
X119169647Y-94467200D01*
X118930353Y-94467200D01*
X118695656Y-94513884D01*
X118474576Y-94605458D01*
X118275610Y-94738403D01*
X118106403Y-94907610D01*
X117973458Y-95106576D01*
X117881884Y-95327656D01*
X117835200Y-95562353D01*
X117835200Y-95801647D01*
X117881884Y-96036344D01*
X117973458Y-96257424D01*
X118106403Y-96456390D01*
X118250013Y-96600000D01*
X102069987Y-96600000D01*
X102213597Y-96456390D01*
X102346542Y-96257424D01*
X102438116Y-96036344D01*
X102484800Y-95801647D01*
X102484800Y-95562353D01*
X102438116Y-95327656D01*
X102346542Y-95106576D01*
X102213597Y-94907610D01*
X102044390Y-94738403D01*
X101845424Y-94605458D01*
X101624344Y-94513884D01*
X101389647Y-94467200D01*
X101150353Y-94467200D01*
X100915656Y-94513884D01*
X100694576Y-94605458D01*
X100495610Y-94738403D01*
X100326403Y-94907610D01*
X100200000Y-95096785D01*
X100200000Y-93727215D01*
X100326403Y-93916390D01*
X100495610Y-94085597D01*
X100694576Y-94218542D01*
X100915656Y-94310116D01*
X101150353Y-94356800D01*
X101389647Y-94356800D01*
X101624344Y-94310116D01*
X101845424Y-94218542D01*
X102044390Y-94085597D01*
X102213597Y-93916390D01*
X102346542Y-93717424D01*
X102438116Y-93496344D01*
X102484800Y-93261647D01*
X102484800Y-93022353D01*
X102438116Y-92787656D01*
X102346542Y-92566576D01*
X102213597Y-92367610D01*
X102044390Y-92198403D01*
X101845424Y-92065458D01*
X101624344Y-91973884D01*
X101389647Y-91927200D01*
X101150353Y-91927200D01*
X100915656Y-91973884D01*
X100694576Y-92065458D01*
X100495610Y-92198403D01*
X100326403Y-92367610D01*
X100200000Y-92556785D01*
X100200000Y-91187215D01*
X100326403Y-91376390D01*
X100495610Y-91545597D01*
X100694576Y-91678542D01*
X100915656Y-91770116D01*
X101150353Y-91816800D01*
X101389647Y-91816800D01*
X101624344Y-91770116D01*
X101845424Y-91678542D01*
X102044390Y-91545597D01*
X102213597Y-91376390D01*
X102346542Y-91177424D01*
X102438116Y-90956344D01*
X102484800Y-90721647D01*
X102484800Y-90482353D01*
X102438116Y-90247656D01*
X102346542Y-90026576D01*
X102213597Y-89827610D01*
X102044390Y-89658403D01*
X101845424Y-89525458D01*
X101624344Y-89433884D01*
X101389647Y-89387200D01*
X101150353Y-89387200D01*
X100915656Y-89433884D01*
X100694576Y-89525458D01*
X100495610Y-89658403D01*
X100326403Y-89827610D01*
X100200000Y-90016785D01*
X100200000Y-88647215D01*
X100326403Y-88836390D01*
X100495610Y-89005597D01*
X100694576Y-89138542D01*
X100915656Y-89230116D01*
X101150353Y-89276800D01*
X101389647Y-89276800D01*
X101624344Y-89230116D01*
X101845424Y-89138542D01*
X102044390Y-89005597D01*
X102213597Y-88836390D01*
X102346542Y-88637424D01*
X102438116Y-88416344D01*
X102484800Y-88181647D01*
X102484800Y-87942353D01*
X102438116Y-87707656D01*
X102346542Y-87486576D01*
X102213597Y-87287610D01*
X102044390Y-87118403D01*
X101845424Y-86985458D01*
X101624344Y-86893884D01*
X101389647Y-86847200D01*
X101150353Y-86847200D01*
X100915656Y-86893884D01*
X100694576Y-86985458D01*
X100495610Y-87118403D01*
X100326403Y-87287610D01*
X100200000Y-87476785D01*
X100200000Y-86107215D01*
X100326403Y-86296390D01*
X100495610Y-86465597D01*
X100694576Y-86598542D01*
X100915656Y-86690116D01*
X101150353Y-86736800D01*
X101389647Y-86736800D01*
X101624344Y-86690116D01*
X101845424Y-86598542D01*
X102044390Y-86465597D01*
X102213597Y-86296390D01*
X102346542Y-86097424D01*
X102438116Y-85876344D01*
X102484800Y-85641647D01*
X102484800Y-85402353D01*
X102438116Y-85167656D01*
X102346542Y-84946576D01*
X102213597Y-84747610D01*
X102044390Y-84578403D01*
X101845424Y-84445458D01*
X101624344Y-84353884D01*
X101389647Y-84307200D01*
X101150353Y-84307200D01*
X100915656Y-84353884D01*
X100694576Y-84445458D01*
X100495610Y-84578403D01*
X100326403Y-84747610D01*
X100200000Y-84936785D01*
X100200000Y-83567215D01*
X100326403Y-83756390D01*
X100495610Y-83925597D01*
X100694576Y-84058542D01*
X100915656Y-84150116D01*
X101150353Y-84196800D01*
X101389647Y-84196800D01*
X101624344Y-84150116D01*
X101845424Y-84058542D01*
X102044390Y-83925597D01*
X102213597Y-83756390D01*
X102346542Y-83557424D01*
X102438116Y-83336344D01*
X102484800Y-83101647D01*
X102484800Y-82862353D01*
X102438116Y-82627656D01*
X102346542Y-82406576D01*
X102213597Y-82207610D01*
X102044390Y-82038403D01*
X101845424Y-81905458D01*
X101624344Y-81813884D01*
X101389647Y-81767200D01*
X101150353Y-81767200D01*
X100915656Y-81813884D01*
X100694576Y-81905458D01*
X100495610Y-82038403D01*
X100326403Y-82207610D01*
X100200000Y-82396785D01*
X100200000Y-81027215D01*
X100326403Y-81216390D01*
X100495610Y-81385597D01*
X100694576Y-81518542D01*
X100915656Y-81610116D01*
X101150353Y-81656800D01*
X101389647Y-81656800D01*
X101624344Y-81610116D01*
X101845424Y-81518542D01*
X102044390Y-81385597D01*
X102213597Y-81216390D01*
X102346542Y-81017424D01*
X102438116Y-80796344D01*
X102484800Y-80561647D01*
X102484800Y-80322353D01*
X102438116Y-80087656D01*
X102346542Y-79866576D01*
X102213597Y-79667610D01*
X102044390Y-79498403D01*
X101845424Y-79365458D01*
X101624344Y-79273884D01*
X101389647Y-79227200D01*
X101150353Y-79227200D01*
X100915656Y-79273884D01*
X100694576Y-79365458D01*
X100495610Y-79498403D01*
X100326403Y-79667610D01*
X100200000Y-79856785D01*
X100200000Y-78487215D01*
X100326403Y-78676390D01*
X100495610Y-78845597D01*
X100694576Y-78978542D01*
X100915656Y-79070116D01*
X101150353Y-79116800D01*
X101389647Y-79116800D01*
X101624344Y-79070116D01*
X101845424Y-78978542D01*
X102044390Y-78845597D01*
X102213597Y-78676390D01*
X102346542Y-78477424D01*
X102438116Y-78256344D01*
X102484800Y-78021647D01*
X102484800Y-77782353D01*
X102438116Y-77547656D01*
X102346542Y-77326576D01*
X102213597Y-77127610D01*
X102044390Y-76958403D01*
X101845424Y-76825458D01*
X101624344Y-76733884D01*
X101389647Y-76687200D01*
X101150353Y-76687200D01*
X100915656Y-76733884D01*
X100694576Y-76825458D01*
X100495610Y-76958403D01*
X100326403Y-77127610D01*
X100200000Y-77316785D01*
X100200000Y-75947215D01*
X100326403Y-76136390D01*
X100495610Y-76305597D01*
X100694576Y-76438542D01*
X100915656Y-76530116D01*
X101150353Y-76576800D01*
X101389647Y-76576800D01*
X101624344Y-76530116D01*
X101845424Y-76438542D01*
X102044390Y-76305597D01*
X102213597Y-76136390D01*
X102346542Y-75937424D01*
X102419205Y-75762000D01*
X102798007Y-75762000D01*
X102816102Y-75821653D01*
X102853611Y-75912209D01*
X102884162Y-75969365D01*
X102938618Y-76050864D01*
X102979731Y-76100961D01*
X103049039Y-76170269D01*
X103099136Y-76211382D01*
X103180635Y-76265838D01*
X103237791Y-76296389D01*
X103328347Y-76333898D01*
X103390363Y-76352710D01*
X103486496Y-76371832D01*
X103550991Y-76378184D01*
X103575550Y-76378184D01*
X103600000Y-76380592D01*
X104100000Y-76380592D01*
X104164495Y-76374240D01*
X104226512Y-76355427D01*
X104250000Y-76342872D01*
X104273488Y-76355427D01*
X104335505Y-76374240D01*
X104400000Y-76380592D01*
X104900000Y-76380592D01*
X104924450Y-76378184D01*
X104949009Y-76378184D01*
X105013504Y-76371832D01*
X105109637Y-76352710D01*
X105171653Y-76333898D01*
X105262209Y-76296389D01*
X105319365Y-76265838D01*
X105400864Y-76211382D01*
X105450961Y-76170269D01*
X105520269Y-76100961D01*
X105521057Y-76100000D01*
X105798065Y-76100000D01*
X105800000Y-76119647D01*
X105800001Y-79880348D01*
X105798065Y-79900004D01*
X105805788Y-79978417D01*
X105828661Y-80053818D01*
X105865803Y-80123306D01*
X105903265Y-80168954D01*
X105903268Y-80168957D01*
X105915790Y-80184215D01*
X105931047Y-80196737D01*
X106332106Y-80597796D01*
X106325000Y-80633522D01*
X106325000Y-80766486D01*
X106350940Y-80896894D01*
X106401823Y-81019736D01*
X106475693Y-81130291D01*
X106569713Y-81224311D01*
X106680268Y-81298181D01*
X106803110Y-81349064D01*
X106933518Y-81375004D01*
X107066482Y-81375004D01*
X107196890Y-81349064D01*
X107319732Y-81298181D01*
X107430287Y-81224311D01*
X107524307Y-81130291D01*
X107598177Y-81019736D01*
X107649060Y-80896894D01*
X107675000Y-80766486D01*
X107675000Y-80633522D01*
X107649060Y-80503114D01*
X107598177Y-80380272D01*
X107524307Y-80269717D01*
X107430287Y-80175697D01*
X107319732Y-80101827D01*
X107196890Y-80050944D01*
X107066482Y-80025004D01*
X106933518Y-80025004D01*
X106897792Y-80032110D01*
X106600000Y-79734319D01*
X106600000Y-76265685D01*
X109168948Y-73696737D01*
X109184211Y-73684211D01*
X109234197Y-73623303D01*
X109271340Y-73553814D01*
X109294212Y-73478414D01*
X109300000Y-73419647D01*
X109301935Y-73400000D01*
X109300000Y-73380353D01*
X109300000Y-69244544D01*
X109330287Y-69224307D01*
X109424307Y-69130287D01*
X109498177Y-69019732D01*
X109549060Y-68896890D01*
X109575000Y-68766482D01*
X109575000Y-68633518D01*
X109549060Y-68503110D01*
X109498177Y-68380268D01*
X109424307Y-68269713D01*
X109330287Y-68175693D01*
X109219732Y-68101823D01*
X109096890Y-68050940D01*
X108966482Y-68025000D01*
X108833518Y-68025000D01*
X108703110Y-68050940D01*
X108580268Y-68101823D01*
X108469713Y-68175693D01*
X108375693Y-68269713D01*
X108301823Y-68380268D01*
X108250940Y-68503110D01*
X108225000Y-68633518D01*
X108225000Y-68766482D01*
X108250940Y-68896890D01*
X108301823Y-69019732D01*
X108375693Y-69130287D01*
X108469713Y-69224307D01*
X108500000Y-69244544D01*
X108500001Y-73234314D01*
X105931052Y-75803263D01*
X105915789Y-75815789D01*
X105865803Y-75876698D01*
X105828660Y-75946187D01*
X105805788Y-76021586D01*
X105805788Y-76021587D01*
X105798065Y-76100000D01*
X105521057Y-76100000D01*
X105561382Y-76050864D01*
X105615838Y-75969365D01*
X105646389Y-75912209D01*
X105683898Y-75821653D01*
X105702710Y-75759637D01*
X105714573Y-75700000D01*
X105780354Y-75700000D01*
X105800000Y-75701935D01*
X105819646Y-75700000D01*
X105819647Y-75700000D01*
X105878414Y-75694212D01*
X105953814Y-75671340D01*
X106023303Y-75634197D01*
X106084211Y-75584211D01*
X106096737Y-75568948D01*
X107968953Y-73696733D01*
X107984211Y-73684211D01*
X107996736Y-73668950D01*
X108034197Y-73623303D01*
X108071340Y-73553814D01*
X108094212Y-73478414D01*
X108101935Y-73400000D01*
X108100000Y-73380353D01*
X108100000Y-68365685D01*
X108565685Y-67900000D01*
X110134323Y-67900000D01*
X110732107Y-68497784D01*
G36*
X115178347Y-66716102D02*
G01*
X115087791Y-66753611D01*
X115030635Y-66784162D01*
X114949136Y-66838618D01*
X114899039Y-66879731D01*
X114829731Y-66949039D01*
X114788618Y-66999136D01*
X114734162Y-67080635D01*
X114703611Y-67137791D01*
X114666102Y-67228347D01*
X114647290Y-67290363D01*
X114635427Y-67350000D01*
X113069647Y-67350000D01*
X113050000Y-67348065D01*
X112971586Y-67355788D01*
X112896186Y-67378660D01*
X112826697Y-67415803D01*
X112781049Y-67453265D01*
X112781047Y-67453267D01*
X112765789Y-67465789D01*
X112753267Y-67481047D01*
X112131052Y-68103263D01*
X112115789Y-68115789D01*
X112065803Y-68176698D01*
X112028660Y-68246187D01*
X112012923Y-68298065D01*
X112009807Y-68308338D01*
X111998177Y-68280260D01*
X111924307Y-68169705D01*
X111830287Y-68075685D01*
X111719732Y-68001815D01*
X111596890Y-67950932D01*
X111466482Y-67924992D01*
X111333518Y-67924992D01*
X111297792Y-67932099D01*
X110596745Y-67231052D01*
X110584219Y-67215789D01*
X110523311Y-67165803D01*
X110453822Y-67128660D01*
X110378422Y-67105788D01*
X110319655Y-67100000D01*
X110319654Y-67100000D01*
X110300008Y-67098065D01*
X110280362Y-67100000D01*
X108419635Y-67100000D01*
X108399999Y-67098066D01*
X108380363Y-67100000D01*
X108380353Y-67100000D01*
X108321586Y-67105788D01*
X108246186Y-67128660D01*
X108176697Y-67165803D01*
X108115789Y-67215789D01*
X108103263Y-67231052D01*
X107431052Y-67903263D01*
X107415789Y-67915789D01*
X107365803Y-67976698D01*
X107328660Y-68046187D01*
X107322710Y-68065803D01*
X107305788Y-68121587D01*
X107298065Y-68200000D01*
X107300000Y-68219646D01*
X107300001Y-73234313D01*
X105700672Y-74833643D01*
X105683898Y-74778347D01*
X105646389Y-74687791D01*
X105615838Y-74630635D01*
X105561382Y-74549136D01*
X105520269Y-74499039D01*
X105450961Y-74429731D01*
X105400864Y-74388618D01*
X105319365Y-74334162D01*
X105262209Y-74303611D01*
X105171653Y-74266102D01*
X105109637Y-74247290D01*
X105013504Y-74228168D01*
X104949009Y-74221816D01*
X104924450Y-74221816D01*
X104900000Y-74219408D01*
X104400000Y-74219408D01*
X104335505Y-74225760D01*
X104273488Y-74244573D01*
X104250000Y-74257128D01*
X104226512Y-74244573D01*
X104164495Y-74225760D01*
X104100000Y-74219408D01*
X103600000Y-74219408D01*
X103575550Y-74221816D01*
X103550991Y-74221816D01*
X103486496Y-74228168D01*
X103390363Y-74247290D01*
X103328347Y-74266102D01*
X103237791Y-74303611D01*
X103180635Y-74334162D01*
X103099136Y-74388618D01*
X103049039Y-74429731D01*
X102979731Y-74499039D01*
X102938618Y-74549136D01*
X102884162Y-74630635D01*
X102853611Y-74687791D01*
X102816102Y-74778347D01*
X102797290Y-74840363D01*
X102778168Y-74936496D01*
X102775656Y-74962000D01*
X102419205Y-74962000D01*
X102346542Y-74786576D01*
X102213597Y-74587610D01*
X102044390Y-74418403D01*
X101845424Y-74285458D01*
X101624344Y-74193884D01*
X101389647Y-74147200D01*
X101150353Y-74147200D01*
X100915656Y-74193884D01*
X100694576Y-74285458D01*
X100495610Y-74418403D01*
X100326403Y-74587610D01*
X100200000Y-74776785D01*
X100200000Y-73407215D01*
X100326403Y-73596390D01*
X100495610Y-73765597D01*
X100694576Y-73898542D01*
X100915656Y-73990116D01*
X101150353Y-74036800D01*
X101389647Y-74036800D01*
X101624344Y-73990116D01*
X101845424Y-73898542D01*
X102044390Y-73765597D01*
X102213597Y-73596390D01*
X102346542Y-73397424D01*
X102419205Y-73222000D01*
X102789804Y-73222000D01*
X102797290Y-73259637D01*
X102816102Y-73321653D01*
X102853611Y-73412209D01*
X102884162Y-73469365D01*
X102938618Y-73550864D01*
X102979731Y-73600961D01*
X103049039Y-73670269D01*
X103099136Y-73711382D01*
X103180635Y-73765838D01*
X103237791Y-73796389D01*
X103328347Y-73833898D01*
X103390363Y-73852710D01*
X103486496Y-73871832D01*
X103550991Y-73878184D01*
X103575550Y-73878184D01*
X103600000Y-73880592D01*
X104100000Y-73880592D01*
X104164495Y-73874240D01*
X104226512Y-73855427D01*
X104250000Y-73842872D01*
X104273488Y-73855427D01*
X104335505Y-73874240D01*
X104400000Y-73880592D01*
X104900000Y-73880592D01*
X104924450Y-73878184D01*
X104949009Y-73878184D01*
X105013504Y-73871832D01*
X105109637Y-73852710D01*
X105171653Y-73833898D01*
X105262209Y-73796389D01*
X105319365Y-73765838D01*
X105400864Y-73711382D01*
X105450961Y-73670269D01*
X105520269Y-73600961D01*
X105561382Y-73550864D01*
X105615838Y-73469365D01*
X105646389Y-73412209D01*
X105683898Y-73321653D01*
X105702710Y-73259637D01*
X105708624Y-73229905D01*
X105775697Y-73330287D01*
X105869717Y-73424307D01*
X105980272Y-73498177D01*
X106103114Y-73549060D01*
X106233522Y-73575000D01*
X106366486Y-73575000D01*
X106496894Y-73549060D01*
X106619736Y-73498177D01*
X106730291Y-73424307D01*
X106824311Y-73330287D01*
X106898181Y-73219732D01*
X106949064Y-73096890D01*
X106975004Y-72966482D01*
X106975004Y-72833518D01*
X106949064Y-72703110D01*
X106898181Y-72580268D01*
X106824311Y-72469713D01*
X106730291Y-72375693D01*
X106619736Y-72301823D01*
X106496894Y-72250940D01*
X106366486Y-72225000D01*
X106233522Y-72225000D01*
X106103114Y-72250940D01*
X105980272Y-72301823D01*
X105869717Y-72375693D01*
X105845410Y-72400000D01*
X105714573Y-72400000D01*
X105702710Y-72340363D01*
X105683898Y-72278347D01*
X105646389Y-72187791D01*
X105615838Y-72130635D01*
X105561382Y-72049136D01*
X105520269Y-71999039D01*
X105450961Y-71929731D01*
X105400864Y-71888618D01*
X105319365Y-71834162D01*
X105262209Y-71803611D01*
X105171653Y-71766102D01*
X105109637Y-71747290D01*
X105013504Y-71728168D01*
X104949009Y-71721816D01*
X104924450Y-71721816D01*
X104900000Y-71719408D01*
X104400000Y-71719408D01*
X104335505Y-71725760D01*
X104273488Y-71744573D01*
X104250000Y-71757128D01*
X104226512Y-71744573D01*
X104164495Y-71725760D01*
X104100000Y-71719408D01*
X103600000Y-71719408D01*
X103575550Y-71721816D01*
X103550991Y-71721816D01*
X103486496Y-71728168D01*
X103390363Y-71747290D01*
X103328347Y-71766102D01*
X103237791Y-71803611D01*
X103180635Y-71834162D01*
X103099136Y-71888618D01*
X103049039Y-71929731D01*
X102979731Y-71999039D01*
X102938618Y-72049136D01*
X102884162Y-72130635D01*
X102853611Y-72187791D01*
X102816102Y-72278347D01*
X102797290Y-72340363D01*
X102781051Y-72422000D01*
X102419205Y-72422000D01*
X102346542Y-72246576D01*
X102213597Y-72047610D01*
X102044390Y-71878403D01*
X101845424Y-71745458D01*
X101624344Y-71653884D01*
X101389647Y-71607200D01*
X101150353Y-71607200D01*
X100915656Y-71653884D01*
X100694576Y-71745458D01*
X100495610Y-71878403D01*
X100326403Y-72047610D01*
X100200000Y-72236785D01*
X100200000Y-71161326D01*
X100464213Y-71161326D01*
X100563302Y-71343154D01*
X100783902Y-71460634D01*
X101023183Y-71532820D01*
X101271948Y-71556937D01*
X101520639Y-71532059D01*
X101759698Y-71459143D01*
X101976698Y-71343154D01*
X102075787Y-71161326D01*
X101270000Y-70355539D01*
X100464213Y-71161326D01*
X100200000Y-71161326D01*
X100200000Y-70972148D01*
X100208846Y-70988698D01*
X100390674Y-71087787D01*
X101196461Y-70282000D01*
X101343539Y-70282000D01*
X102149326Y-71087787D01*
X102331154Y-70988698D01*
X102448634Y-70768098D01*
X102520820Y-70528817D01*
X102544937Y-70280052D01*
X102520059Y-70031361D01*
X102447143Y-69792302D01*
X102331154Y-69575302D01*
X102149326Y-69476213D01*
X101343539Y-70282000D01*
X101196461Y-70282000D01*
X100390674Y-69476213D01*
X100208846Y-69575302D01*
X100200000Y-69591913D01*
X100200000Y-69402674D01*
X100464213Y-69402674D01*
X101270000Y-70208461D01*
X102075787Y-69402674D01*
X101976698Y-69220846D01*
X101756098Y-69103366D01*
X101516817Y-69031180D01*
X101268052Y-69007063D01*
X101019361Y-69031941D01*
X100780302Y-69104857D01*
X100563302Y-69220846D01*
X100464213Y-69402674D01*
X100200000Y-69402674D01*
X100200000Y-68327215D01*
X100326403Y-68516390D01*
X100495610Y-68685597D01*
X100694576Y-68818542D01*
X100915656Y-68910116D01*
X101150353Y-68956800D01*
X101389647Y-68956800D01*
X101624344Y-68910116D01*
X101845424Y-68818542D01*
X102044390Y-68685597D01*
X102213597Y-68516390D01*
X102346542Y-68317424D01*
X102438116Y-68096344D01*
X102484800Y-67861647D01*
X102484800Y-67622353D01*
X102438116Y-67387656D01*
X102346542Y-67166576D01*
X102213597Y-66967610D01*
X102044390Y-66798403D01*
X101897120Y-66700000D01*
X115231429Y-66700000D01*
X115178347Y-66716102D01*
G37*
X115178347Y-66716102D02*
X115087791Y-66753611D01*
X115030635Y-66784162D01*
X114949136Y-66838618D01*
X114899039Y-66879731D01*
X114829731Y-66949039D01*
X114788618Y-66999136D01*
X114734162Y-67080635D01*
X114703611Y-67137791D01*
X114666102Y-67228347D01*
X114647290Y-67290363D01*
X114635427Y-67350000D01*
X113069647Y-67350000D01*
X113050000Y-67348065D01*
X112971586Y-67355788D01*
X112896186Y-67378660D01*
X112826697Y-67415803D01*
X112781049Y-67453265D01*
X112781047Y-67453267D01*
X112765789Y-67465789D01*
X112753267Y-67481047D01*
X112131052Y-68103263D01*
X112115789Y-68115789D01*
X112065803Y-68176698D01*
X112028660Y-68246187D01*
X112012923Y-68298065D01*
X112009807Y-68308338D01*
X111998177Y-68280260D01*
X111924307Y-68169705D01*
X111830287Y-68075685D01*
X111719732Y-68001815D01*
X111596890Y-67950932D01*
X111466482Y-67924992D01*
X111333518Y-67924992D01*
X111297792Y-67932099D01*
X110596745Y-67231052D01*
X110584219Y-67215789D01*
X110523311Y-67165803D01*
X110453822Y-67128660D01*
X110378422Y-67105788D01*
X110319655Y-67100000D01*
X110319654Y-67100000D01*
X110300008Y-67098065D01*
X110280362Y-67100000D01*
X108419635Y-67100000D01*
X108399999Y-67098066D01*
X108380363Y-67100000D01*
X108380353Y-67100000D01*
X108321586Y-67105788D01*
X108246186Y-67128660D01*
X108176697Y-67165803D01*
X108115789Y-67215789D01*
X108103263Y-67231052D01*
X107431052Y-67903263D01*
X107415789Y-67915789D01*
X107365803Y-67976698D01*
X107328660Y-68046187D01*
X107322710Y-68065803D01*
X107305788Y-68121587D01*
X107298065Y-68200000D01*
X107300000Y-68219646D01*
X107300001Y-73234313D01*
X105700672Y-74833643D01*
X105683898Y-74778347D01*
X105646389Y-74687791D01*
X105615838Y-74630635D01*
X105561382Y-74549136D01*
X105520269Y-74499039D01*
X105450961Y-74429731D01*
X105400864Y-74388618D01*
X105319365Y-74334162D01*
X105262209Y-74303611D01*
X105171653Y-74266102D01*
X105109637Y-74247290D01*
X105013504Y-74228168D01*
X104949009Y-74221816D01*
X104924450Y-74221816D01*
X104900000Y-74219408D01*
X104400000Y-74219408D01*
X104335505Y-74225760D01*
X104273488Y-74244573D01*
X104250000Y-74257128D01*
X104226512Y-74244573D01*
X104164495Y-74225760D01*
X104100000Y-74219408D01*
X103600000Y-74219408D01*
X103575550Y-74221816D01*
X103550991Y-74221816D01*
X103486496Y-74228168D01*
X103390363Y-74247290D01*
X103328347Y-74266102D01*
X103237791Y-74303611D01*
X103180635Y-74334162D01*
X103099136Y-74388618D01*
X103049039Y-74429731D01*
X102979731Y-74499039D01*
X102938618Y-74549136D01*
X102884162Y-74630635D01*
X102853611Y-74687791D01*
X102816102Y-74778347D01*
X102797290Y-74840363D01*
X102778168Y-74936496D01*
X102775656Y-74962000D01*
X102419205Y-74962000D01*
X102346542Y-74786576D01*
X102213597Y-74587610D01*
X102044390Y-74418403D01*
X101845424Y-74285458D01*
X101624344Y-74193884D01*
X101389647Y-74147200D01*
X101150353Y-74147200D01*
X100915656Y-74193884D01*
X100694576Y-74285458D01*
X100495610Y-74418403D01*
X100326403Y-74587610D01*
X100200000Y-74776785D01*
X100200000Y-73407215D01*
X100326403Y-73596390D01*
X100495610Y-73765597D01*
X100694576Y-73898542D01*
X100915656Y-73990116D01*
X101150353Y-74036800D01*
X101389647Y-74036800D01*
X101624344Y-73990116D01*
X101845424Y-73898542D01*
X102044390Y-73765597D01*
X102213597Y-73596390D01*
X102346542Y-73397424D01*
X102419205Y-73222000D01*
X102789804Y-73222000D01*
X102797290Y-73259637D01*
X102816102Y-73321653D01*
X102853611Y-73412209D01*
X102884162Y-73469365D01*
X102938618Y-73550864D01*
X102979731Y-73600961D01*
X103049039Y-73670269D01*
X103099136Y-73711382D01*
X103180635Y-73765838D01*
X103237791Y-73796389D01*
X103328347Y-73833898D01*
X103390363Y-73852710D01*
X103486496Y-73871832D01*
X103550991Y-73878184D01*
X103575550Y-73878184D01*
X103600000Y-73880592D01*
X104100000Y-73880592D01*
X104164495Y-73874240D01*
X104226512Y-73855427D01*
X104250000Y-73842872D01*
X104273488Y-73855427D01*
X104335505Y-73874240D01*
X104400000Y-73880592D01*
X104900000Y-73880592D01*
X104924450Y-73878184D01*
X104949009Y-73878184D01*
X105013504Y-73871832D01*
X105109637Y-73852710D01*
X105171653Y-73833898D01*
X105262209Y-73796389D01*
X105319365Y-73765838D01*
X105400864Y-73711382D01*
X105450961Y-73670269D01*
X105520269Y-73600961D01*
X105561382Y-73550864D01*
X105615838Y-73469365D01*
X105646389Y-73412209D01*
X105683898Y-73321653D01*
X105702710Y-73259637D01*
X105708624Y-73229905D01*
X105775697Y-73330287D01*
X105869717Y-73424307D01*
X105980272Y-73498177D01*
X106103114Y-73549060D01*
X106233522Y-73575000D01*
X106366486Y-73575000D01*
X106496894Y-73549060D01*
X106619736Y-73498177D01*
X106730291Y-73424307D01*
X106824311Y-73330287D01*
X106898181Y-73219732D01*
X106949064Y-73096890D01*
X106975004Y-72966482D01*
X106975004Y-72833518D01*
X106949064Y-72703110D01*
X106898181Y-72580268D01*
X106824311Y-72469713D01*
X106730291Y-72375693D01*
X106619736Y-72301823D01*
X106496894Y-72250940D01*
X106366486Y-72225000D01*
X106233522Y-72225000D01*
X106103114Y-72250940D01*
X105980272Y-72301823D01*
X105869717Y-72375693D01*
X105845410Y-72400000D01*
X105714573Y-72400000D01*
X105702710Y-72340363D01*
X105683898Y-72278347D01*
X105646389Y-72187791D01*
X105615838Y-72130635D01*
X105561382Y-72049136D01*
X105520269Y-71999039D01*
X105450961Y-71929731D01*
X105400864Y-71888618D01*
X105319365Y-71834162D01*
X105262209Y-71803611D01*
X105171653Y-71766102D01*
X105109637Y-71747290D01*
X105013504Y-71728168D01*
X104949009Y-71721816D01*
X104924450Y-71721816D01*
X104900000Y-71719408D01*
X104400000Y-71719408D01*
X104335505Y-71725760D01*
X104273488Y-71744573D01*
X104250000Y-71757128D01*
X104226512Y-71744573D01*
X104164495Y-71725760D01*
X104100000Y-71719408D01*
X103600000Y-71719408D01*
X103575550Y-71721816D01*
X103550991Y-71721816D01*
X103486496Y-71728168D01*
X103390363Y-71747290D01*
X103328347Y-71766102D01*
X103237791Y-71803611D01*
X103180635Y-71834162D01*
X103099136Y-71888618D01*
X103049039Y-71929731D01*
X102979731Y-71999039D01*
X102938618Y-72049136D01*
X102884162Y-72130635D01*
X102853611Y-72187791D01*
X102816102Y-72278347D01*
X102797290Y-72340363D01*
X102781051Y-72422000D01*
X102419205Y-72422000D01*
X102346542Y-72246576D01*
X102213597Y-72047610D01*
X102044390Y-71878403D01*
X101845424Y-71745458D01*
X101624344Y-71653884D01*
X101389647Y-71607200D01*
X101150353Y-71607200D01*
X100915656Y-71653884D01*
X100694576Y-71745458D01*
X100495610Y-71878403D01*
X100326403Y-72047610D01*
X100200000Y-72236785D01*
X100200000Y-71161326D01*
X100464213Y-71161326D01*
X100563302Y-71343154D01*
X100783902Y-71460634D01*
X101023183Y-71532820D01*
X101271948Y-71556937D01*
X101520639Y-71532059D01*
X101759698Y-71459143D01*
X101976698Y-71343154D01*
X102075787Y-71161326D01*
X101270000Y-70355539D01*
X100464213Y-71161326D01*
X100200000Y-71161326D01*
X100200000Y-70972148D01*
X100208846Y-70988698D01*
X100390674Y-71087787D01*
X101196461Y-70282000D01*
X101343539Y-70282000D01*
X102149326Y-71087787D01*
X102331154Y-70988698D01*
X102448634Y-70768098D01*
X102520820Y-70528817D01*
X102544937Y-70280052D01*
X102520059Y-70031361D01*
X102447143Y-69792302D01*
X102331154Y-69575302D01*
X102149326Y-69476213D01*
X101343539Y-70282000D01*
X101196461Y-70282000D01*
X100390674Y-69476213D01*
X100208846Y-69575302D01*
X100200000Y-69591913D01*
X100200000Y-69402674D01*
X100464213Y-69402674D01*
X101270000Y-70208461D01*
X102075787Y-69402674D01*
X101976698Y-69220846D01*
X101756098Y-69103366D01*
X101516817Y-69031180D01*
X101268052Y-69007063D01*
X101019361Y-69031941D01*
X100780302Y-69104857D01*
X100563302Y-69220846D01*
X100464213Y-69402674D01*
X100200000Y-69402674D01*
X100200000Y-68327215D01*
X100326403Y-68516390D01*
X100495610Y-68685597D01*
X100694576Y-68818542D01*
X100915656Y-68910116D01*
X101150353Y-68956800D01*
X101389647Y-68956800D01*
X101624344Y-68910116D01*
X101845424Y-68818542D01*
X102044390Y-68685597D01*
X102213597Y-68516390D01*
X102346542Y-68317424D01*
X102438116Y-68096344D01*
X102484800Y-67861647D01*
X102484800Y-67622353D01*
X102438116Y-67387656D01*
X102346542Y-67166576D01*
X102213597Y-66967610D01*
X102044390Y-66798403D01*
X101897120Y-66700000D01*
X115231429Y-66700000D01*
X115178347Y-66716102D01*
M02*
