G04 #@! TF.GenerationSoftware,KiCad,Pcbnew,(5.1.6-0-10_14)*
G04 #@! TF.CreationDate,2020-08-29T20:41:38-05:00*
G04 #@! TF.ProjectId,gen2-jtag-adapter,67656e32-2d6a-4746-9167-2d6164617074,rev?*
G04 #@! TF.SameCoordinates,Original*
G04 #@! TF.FileFunction,Legend,Bot*
G04 #@! TF.FilePolarity,Positive*
%FSLAX46Y46*%
G04 Gerber Fmt 4.6, Leading zero omitted, Abs format (unit mm)*
G04 Created by KiCad (PCBNEW (5.1.6-0-10_14)) date 2020-08-29 20:41:38*
%MOMM*%
%LPD*%
G01*
G04 APERTURE LIST*
%ADD10C,0.200000*%
%ADD11C,0.150000*%
%ADD12C,0.120000*%
G04 APERTURE END LIST*
D10*
X112917142Y-93931428D02*
X112440952Y-95264761D01*
X111964761Y-93931428D01*
X110155238Y-95264761D02*
X111298095Y-95264761D01*
X110726666Y-95264761D02*
X110726666Y-93264761D01*
X110917142Y-93550476D01*
X111107619Y-93740952D01*
X111298095Y-93836190D01*
X109298095Y-95074285D02*
X109202857Y-95169523D01*
X109298095Y-95264761D01*
X109393333Y-95169523D01*
X109298095Y-95074285D01*
X109298095Y-95264761D01*
X107298095Y-95264761D02*
X108440952Y-95264761D01*
X107869523Y-95264761D02*
X107869523Y-93264761D01*
X108060000Y-93550476D01*
X108250476Y-93740952D01*
X108440952Y-93836190D01*
D11*
X114538095Y-66852380D02*
X113919047Y-66852380D01*
X114252380Y-67233333D01*
X114109523Y-67233333D01*
X114014285Y-67280952D01*
X113966666Y-67328571D01*
X113919047Y-67423809D01*
X113919047Y-67661904D01*
X113966666Y-67757142D01*
X114014285Y-67804761D01*
X114109523Y-67852380D01*
X114395238Y-67852380D01*
X114490476Y-67804761D01*
X114538095Y-67757142D01*
X113633333Y-66852380D02*
X113300000Y-67852380D01*
X112966666Y-66852380D01*
X112728571Y-66852380D02*
X112109523Y-66852380D01*
X112442857Y-67233333D01*
X112300000Y-67233333D01*
X112204761Y-67280952D01*
X112157142Y-67328571D01*
X112109523Y-67423809D01*
X112109523Y-67661904D01*
X112157142Y-67757142D01*
X112204761Y-67804761D01*
X112300000Y-67852380D01*
X112585714Y-67852380D01*
X112680952Y-67804761D01*
X112728571Y-67757142D01*
X105061904Y-70452380D02*
X104490476Y-70452380D01*
X104776190Y-71452380D02*
X104776190Y-70452380D01*
X104252380Y-70452380D02*
X103585714Y-71452380D01*
X103585714Y-70452380D02*
X104252380Y-71452380D01*
X104566666Y-77652380D02*
X104900000Y-77176190D01*
X105138095Y-77652380D02*
X105138095Y-76652380D01*
X104757142Y-76652380D01*
X104661904Y-76700000D01*
X104614285Y-76747619D01*
X104566666Y-76842857D01*
X104566666Y-76985714D01*
X104614285Y-77080952D01*
X104661904Y-77128571D01*
X104757142Y-77176190D01*
X105138095Y-77176190D01*
X104233333Y-76652380D02*
X103566666Y-77652380D01*
X103566666Y-76652380D02*
X104233333Y-77652380D01*
D12*
X104950000Y-74300000D02*
X103550000Y-74300000D01*
X102850000Y-75000000D02*
X102850000Y-75600000D01*
X103550000Y-76300000D02*
X104950000Y-76300000D01*
X105650000Y-75600000D02*
X105650000Y-75000000D01*
X105650000Y-75000000D02*
G75*
G03*
X104950000Y-74300000I-700000J0D01*
G01*
X104950000Y-76300000D02*
G75*
G03*
X105650000Y-75600000I0J700000D01*
G01*
X102850000Y-75600000D02*
G75*
G03*
X103550000Y-76300000I700000J0D01*
G01*
X103550000Y-74300000D02*
G75*
G03*
X102850000Y-75000000I0J-700000D01*
G01*
X104950000Y-71800000D02*
X103550000Y-71800000D01*
X102850000Y-72500000D02*
X102850000Y-73100000D01*
X103550000Y-73800000D02*
X104950000Y-73800000D01*
X105650000Y-73100000D02*
X105650000Y-72500000D01*
X105650000Y-72500000D02*
G75*
G03*
X104950000Y-71800000I-700000J0D01*
G01*
X104950000Y-73800000D02*
G75*
G03*
X105650000Y-73100000I0J700000D01*
G01*
X102850000Y-73100000D02*
G75*
G03*
X103550000Y-73800000I700000J0D01*
G01*
X103550000Y-71800000D02*
G75*
G03*
X102850000Y-72500000I0J-700000D01*
G01*
X116800000Y-66750000D02*
X115400000Y-66750000D01*
X114700000Y-67450000D02*
X114700000Y-68050000D01*
X115400000Y-68750000D02*
X116800000Y-68750000D01*
X117500000Y-68050000D02*
X117500000Y-67450000D01*
X117500000Y-67450000D02*
G75*
G03*
X116800000Y-66750000I-700000J0D01*
G01*
X116800000Y-68750000D02*
G75*
G03*
X117500000Y-68050000I0J700000D01*
G01*
X114700000Y-68050000D02*
G75*
G03*
X115400000Y-68750000I700000J0D01*
G01*
X115400000Y-66750000D02*
G75*
G03*
X114700000Y-67450000I0J-700000D01*
G01*
M02*
