G04 #@! TF.GenerationSoftware,KiCad,Pcbnew,(5.1.6-0-10_14)*
G04 #@! TF.CreationDate,2020-08-14T16:39:20-05:00*
G04 #@! TF.ProjectId,gen2-jtag-adapter,67656e32-2d6a-4746-9167-2d6164617074,rev?*
G04 #@! TF.SameCoordinates,Original*
G04 #@! TF.FileFunction,Soldermask,Top*
G04 #@! TF.FilePolarity,Negative*
%FSLAX46Y46*%
G04 Gerber Fmt 4.6, Leading zero omitted, Abs format (unit mm)*
G04 Created by KiCad (PCBNEW (5.1.6-0-10_14)) date 2020-08-14 16:39:20*
%MOMM*%
%LPD*%
G01*
G04 APERTURE LIST*
%ADD10C,0.010000*%
%ADD11C,1.979600*%
%ADD12R,0.800000X2.200000*%
G04 APERTURE END LIST*
D10*
G36*
X110208048Y-87212881D02*
G01*
X110209007Y-87220542D01*
X110210860Y-87231642D01*
X110216219Y-87258913D01*
X110224781Y-87300918D01*
X110236245Y-87356220D01*
X110250310Y-87423383D01*
X110266672Y-87500969D01*
X110285031Y-87587543D01*
X110305085Y-87681667D01*
X110326531Y-87781905D01*
X110344761Y-87866801D01*
X110368375Y-87976619D01*
X110391836Y-88085771D01*
X110414715Y-88192266D01*
X110436585Y-88294113D01*
X110457020Y-88389322D01*
X110475593Y-88475902D01*
X110491875Y-88551863D01*
X110505440Y-88615213D01*
X110515861Y-88663962D01*
X110519840Y-88682624D01*
X110530907Y-88734504D01*
X110545042Y-88800643D01*
X110561528Y-88877684D01*
X110579646Y-88962276D01*
X110598677Y-89051062D01*
X110617903Y-89140691D01*
X110636284Y-89226306D01*
X110652984Y-89304227D01*
X110668441Y-89376679D01*
X110682255Y-89441767D01*
X110694027Y-89497594D01*
X110703358Y-89542263D01*
X110709848Y-89573880D01*
X110713100Y-89590549D01*
X110713404Y-89592610D01*
X110706404Y-89601314D01*
X110688777Y-89614686D01*
X110679627Y-89620561D01*
X110663399Y-89630754D01*
X110634330Y-89649274D01*
X110594701Y-89674658D01*
X110546792Y-89705444D01*
X110492884Y-89740166D01*
X110435257Y-89777362D01*
X110425878Y-89783423D01*
X110369443Y-89819671D01*
X110317701Y-89852466D01*
X110272633Y-89880590D01*
X110236218Y-89902820D01*
X110210437Y-89917937D01*
X110197272Y-89924719D01*
X110196197Y-89924971D01*
X110186557Y-89920070D01*
X110163703Y-89906460D01*
X110129485Y-89885301D01*
X110085757Y-89857759D01*
X110034369Y-89824996D01*
X109977175Y-89788176D01*
X109938794Y-89763289D01*
X109879095Y-89724175D01*
X109824421Y-89687782D01*
X109776573Y-89655353D01*
X109737350Y-89628130D01*
X109708552Y-89607357D01*
X109691980Y-89594276D01*
X109688624Y-89590534D01*
X109689940Y-89579514D01*
X109694706Y-89552750D01*
X109702546Y-89512104D01*
X109713086Y-89459436D01*
X109725950Y-89396605D01*
X109740762Y-89325474D01*
X109757148Y-89247901D01*
X109768224Y-89196028D01*
X109787112Y-89107931D01*
X109806207Y-89018872D01*
X109824875Y-88931804D01*
X109842483Y-88849681D01*
X109858398Y-88775454D01*
X109871986Y-88712077D01*
X109882616Y-88662503D01*
X109885061Y-88651099D01*
X109898555Y-88588155D01*
X109914431Y-88514083D01*
X109931299Y-88435373D01*
X109947769Y-88358510D01*
X109960341Y-88299822D01*
X109975851Y-88227486D01*
X109993621Y-88144712D01*
X110012112Y-88058673D01*
X110029782Y-87976539D01*
X110042602Y-87917021D01*
X110067968Y-87799290D01*
X110092099Y-87687185D01*
X110114544Y-87582801D01*
X110134852Y-87488237D01*
X110152574Y-87405591D01*
X110167259Y-87336960D01*
X110175616Y-87297783D01*
X110184319Y-87259792D01*
X110192447Y-87229391D01*
X110198949Y-87210239D01*
X110202142Y-87205461D01*
X110208048Y-87212881D01*
G37*
X110208048Y-87212881D02*
X110209007Y-87220542D01*
X110210860Y-87231642D01*
X110216219Y-87258913D01*
X110224781Y-87300918D01*
X110236245Y-87356220D01*
X110250310Y-87423383D01*
X110266672Y-87500969D01*
X110285031Y-87587543D01*
X110305085Y-87681667D01*
X110326531Y-87781905D01*
X110344761Y-87866801D01*
X110368375Y-87976619D01*
X110391836Y-88085771D01*
X110414715Y-88192266D01*
X110436585Y-88294113D01*
X110457020Y-88389322D01*
X110475593Y-88475902D01*
X110491875Y-88551863D01*
X110505440Y-88615213D01*
X110515861Y-88663962D01*
X110519840Y-88682624D01*
X110530907Y-88734504D01*
X110545042Y-88800643D01*
X110561528Y-88877684D01*
X110579646Y-88962276D01*
X110598677Y-89051062D01*
X110617903Y-89140691D01*
X110636284Y-89226306D01*
X110652984Y-89304227D01*
X110668441Y-89376679D01*
X110682255Y-89441767D01*
X110694027Y-89497594D01*
X110703358Y-89542263D01*
X110709848Y-89573880D01*
X110713100Y-89590549D01*
X110713404Y-89592610D01*
X110706404Y-89601314D01*
X110688777Y-89614686D01*
X110679627Y-89620561D01*
X110663399Y-89630754D01*
X110634330Y-89649274D01*
X110594701Y-89674658D01*
X110546792Y-89705444D01*
X110492884Y-89740166D01*
X110435257Y-89777362D01*
X110425878Y-89783423D01*
X110369443Y-89819671D01*
X110317701Y-89852466D01*
X110272633Y-89880590D01*
X110236218Y-89902820D01*
X110210437Y-89917937D01*
X110197272Y-89924719D01*
X110196197Y-89924971D01*
X110186557Y-89920070D01*
X110163703Y-89906460D01*
X110129485Y-89885301D01*
X110085757Y-89857759D01*
X110034369Y-89824996D01*
X109977175Y-89788176D01*
X109938794Y-89763289D01*
X109879095Y-89724175D01*
X109824421Y-89687782D01*
X109776573Y-89655353D01*
X109737350Y-89628130D01*
X109708552Y-89607357D01*
X109691980Y-89594276D01*
X109688624Y-89590534D01*
X109689940Y-89579514D01*
X109694706Y-89552750D01*
X109702546Y-89512104D01*
X109713086Y-89459436D01*
X109725950Y-89396605D01*
X109740762Y-89325474D01*
X109757148Y-89247901D01*
X109768224Y-89196028D01*
X109787112Y-89107931D01*
X109806207Y-89018872D01*
X109824875Y-88931804D01*
X109842483Y-88849681D01*
X109858398Y-88775454D01*
X109871986Y-88712077D01*
X109882616Y-88662503D01*
X109885061Y-88651099D01*
X109898555Y-88588155D01*
X109914431Y-88514083D01*
X109931299Y-88435373D01*
X109947769Y-88358510D01*
X109960341Y-88299822D01*
X109975851Y-88227486D01*
X109993621Y-88144712D01*
X110012112Y-88058673D01*
X110029782Y-87976539D01*
X110042602Y-87917021D01*
X110067968Y-87799290D01*
X110092099Y-87687185D01*
X110114544Y-87582801D01*
X110134852Y-87488237D01*
X110152574Y-87405591D01*
X110167259Y-87336960D01*
X110175616Y-87297783D01*
X110184319Y-87259792D01*
X110192447Y-87229391D01*
X110198949Y-87210239D01*
X110202142Y-87205461D01*
X110208048Y-87212881D01*
G36*
X112314069Y-91187308D02*
G01*
X112326678Y-91189567D01*
X112347075Y-91193556D01*
X112376129Y-91199460D01*
X112414705Y-91207462D01*
X112463669Y-91217745D01*
X112523890Y-91230493D01*
X112596232Y-91245890D01*
X112681563Y-91264120D01*
X112780749Y-91285365D01*
X112894657Y-91309810D01*
X113024153Y-91337638D01*
X113170103Y-91369033D01*
X113221879Y-91380175D01*
X113327871Y-91402985D01*
X113431495Y-91425280D01*
X113530953Y-91446672D01*
X113624450Y-91466777D01*
X113710188Y-91485207D01*
X113786370Y-91501577D01*
X113851200Y-91515500D01*
X113902879Y-91526589D01*
X113939611Y-91534460D01*
X113951454Y-91536991D01*
X113988882Y-91544978D01*
X114040832Y-91556062D01*
X114104204Y-91569583D01*
X114175903Y-91584880D01*
X114252831Y-91601292D01*
X114331890Y-91618159D01*
X114381478Y-91628737D01*
X114453772Y-91644282D01*
X114520169Y-91658794D01*
X114578686Y-91671822D01*
X114627345Y-91682914D01*
X114664163Y-91691621D01*
X114687161Y-91697490D01*
X114694410Y-91700000D01*
X114685925Y-91702850D01*
X114661792Y-91708954D01*
X114623991Y-91717860D01*
X114574503Y-91729118D01*
X114515308Y-91742276D01*
X114448386Y-91756884D01*
X114381478Y-91771262D01*
X114302667Y-91788075D01*
X114224033Y-91804851D01*
X114148675Y-91820929D01*
X114079687Y-91835647D01*
X114020169Y-91848346D01*
X113973217Y-91858364D01*
X113951454Y-91863008D01*
X113922573Y-91869188D01*
X113877878Y-91878773D01*
X113819167Y-91891378D01*
X113748237Y-91906615D01*
X113666884Y-91924100D01*
X113576905Y-91943445D01*
X113480097Y-91964265D01*
X113378258Y-91986172D01*
X113273184Y-92008782D01*
X113221879Y-92019824D01*
X113070324Y-92052433D01*
X112935509Y-92081414D01*
X112816567Y-92106952D01*
X112712632Y-92129230D01*
X112622837Y-92148432D01*
X112546316Y-92164740D01*
X112482202Y-92178340D01*
X112429629Y-92189414D01*
X112387730Y-92198146D01*
X112355638Y-92204720D01*
X112332488Y-92209320D01*
X112317412Y-92212128D01*
X112309544Y-92213329D01*
X112308384Y-92213404D01*
X112301744Y-92206106D01*
X112286605Y-92185387D01*
X112264161Y-92153011D01*
X112235606Y-92110739D01*
X112202134Y-92060335D01*
X112164941Y-92003561D01*
X112137348Y-91960999D01*
X112098455Y-91900507D01*
X112062886Y-91844705D01*
X112031784Y-91795424D01*
X112006289Y-91754492D01*
X111987544Y-91723736D01*
X111976689Y-91704987D01*
X111974397Y-91700000D01*
X111979116Y-91690017D01*
X111992347Y-91667369D01*
X112012698Y-91634195D01*
X112038776Y-91592636D01*
X112069189Y-91544832D01*
X112102545Y-91492922D01*
X112137453Y-91439045D01*
X112172520Y-91385343D01*
X112206354Y-91333954D01*
X112237564Y-91287018D01*
X112264757Y-91246675D01*
X112286541Y-91215065D01*
X112301524Y-91194328D01*
X112308315Y-91186604D01*
X112308384Y-91186595D01*
X112314069Y-91187308D01*
G37*
X112314069Y-91187308D02*
X112326678Y-91189567D01*
X112347075Y-91193556D01*
X112376129Y-91199460D01*
X112414705Y-91207462D01*
X112463669Y-91217745D01*
X112523890Y-91230493D01*
X112596232Y-91245890D01*
X112681563Y-91264120D01*
X112780749Y-91285365D01*
X112894657Y-91309810D01*
X113024153Y-91337638D01*
X113170103Y-91369033D01*
X113221879Y-91380175D01*
X113327871Y-91402985D01*
X113431495Y-91425280D01*
X113530953Y-91446672D01*
X113624450Y-91466777D01*
X113710188Y-91485207D01*
X113786370Y-91501577D01*
X113851200Y-91515500D01*
X113902879Y-91526589D01*
X113939611Y-91534460D01*
X113951454Y-91536991D01*
X113988882Y-91544978D01*
X114040832Y-91556062D01*
X114104204Y-91569583D01*
X114175903Y-91584880D01*
X114252831Y-91601292D01*
X114331890Y-91618159D01*
X114381478Y-91628737D01*
X114453772Y-91644282D01*
X114520169Y-91658794D01*
X114578686Y-91671822D01*
X114627345Y-91682914D01*
X114664163Y-91691621D01*
X114687161Y-91697490D01*
X114694410Y-91700000D01*
X114685925Y-91702850D01*
X114661792Y-91708954D01*
X114623991Y-91717860D01*
X114574503Y-91729118D01*
X114515308Y-91742276D01*
X114448386Y-91756884D01*
X114381478Y-91771262D01*
X114302667Y-91788075D01*
X114224033Y-91804851D01*
X114148675Y-91820929D01*
X114079687Y-91835647D01*
X114020169Y-91848346D01*
X113973217Y-91858364D01*
X113951454Y-91863008D01*
X113922573Y-91869188D01*
X113877878Y-91878773D01*
X113819167Y-91891378D01*
X113748237Y-91906615D01*
X113666884Y-91924100D01*
X113576905Y-91943445D01*
X113480097Y-91964265D01*
X113378258Y-91986172D01*
X113273184Y-92008782D01*
X113221879Y-92019824D01*
X113070324Y-92052433D01*
X112935509Y-92081414D01*
X112816567Y-92106952D01*
X112712632Y-92129230D01*
X112622837Y-92148432D01*
X112546316Y-92164740D01*
X112482202Y-92178340D01*
X112429629Y-92189414D01*
X112387730Y-92198146D01*
X112355638Y-92204720D01*
X112332488Y-92209320D01*
X112317412Y-92212128D01*
X112309544Y-92213329D01*
X112308384Y-92213404D01*
X112301744Y-92206106D01*
X112286605Y-92185387D01*
X112264161Y-92153011D01*
X112235606Y-92110739D01*
X112202134Y-92060335D01*
X112164941Y-92003561D01*
X112137348Y-91960999D01*
X112098455Y-91900507D01*
X112062886Y-91844705D01*
X112031784Y-91795424D01*
X112006289Y-91754492D01*
X111987544Y-91723736D01*
X111976689Y-91704987D01*
X111974397Y-91700000D01*
X111979116Y-91690017D01*
X111992347Y-91667369D01*
X112012698Y-91634195D01*
X112038776Y-91592636D01*
X112069189Y-91544832D01*
X112102545Y-91492922D01*
X112137453Y-91439045D01*
X112172520Y-91385343D01*
X112206354Y-91333954D01*
X112237564Y-91287018D01*
X112264757Y-91246675D01*
X112286541Y-91215065D01*
X112301524Y-91194328D01*
X112308315Y-91186604D01*
X112308384Y-91186595D01*
X112314069Y-91187308D01*
G36*
X108097621Y-91196740D02*
G01*
X108113480Y-91217890D01*
X108135927Y-91249992D01*
X108163578Y-91290881D01*
X108195047Y-91338394D01*
X108228948Y-91390366D01*
X108263895Y-91444632D01*
X108298503Y-91499027D01*
X108331386Y-91551387D01*
X108361158Y-91599547D01*
X108386433Y-91641343D01*
X108405826Y-91674611D01*
X108417951Y-91697185D01*
X108421447Y-91706843D01*
X108415657Y-91716933D01*
X108401263Y-91740263D01*
X108379455Y-91774954D01*
X108351424Y-91819129D01*
X108318359Y-91870907D01*
X108281452Y-91928412D01*
X108257350Y-91965824D01*
X108211538Y-92036486D01*
X108174252Y-92093129D01*
X108144549Y-92137058D01*
X108121486Y-92169580D01*
X108104120Y-92191998D01*
X108091508Y-92205620D01*
X108082706Y-92211750D01*
X108079222Y-92212406D01*
X108060298Y-92209843D01*
X108031565Y-92204340D01*
X108011276Y-92199861D01*
X107984814Y-92193840D01*
X107945186Y-92185051D01*
X107891798Y-92173367D01*
X107824058Y-92158658D01*
X107741375Y-92140797D01*
X107643156Y-92119657D01*
X107528808Y-92095107D01*
X107397739Y-92067022D01*
X107322234Y-92050861D01*
X107252343Y-92035897D01*
X107167548Y-92017724D01*
X107070556Y-91996926D01*
X106964074Y-91974082D01*
X106850809Y-91949775D01*
X106733468Y-91924584D01*
X106614757Y-91899093D01*
X106497384Y-91873881D01*
X106384057Y-91849530D01*
X106277481Y-91826622D01*
X106180364Y-91805738D01*
X106095413Y-91787459D01*
X106043227Y-91776221D01*
X105993387Y-91765543D01*
X105933887Y-91752884D01*
X105872700Y-91739936D01*
X105824805Y-91729861D01*
X105781200Y-91720384D01*
X105744737Y-91711818D01*
X105718632Y-91704967D01*
X105706100Y-91700635D01*
X105705461Y-91700000D01*
X105713756Y-91696490D01*
X105736497Y-91690243D01*
X105770468Y-91682063D01*
X105812453Y-91672753D01*
X105824805Y-91670138D01*
X105881062Y-91658298D01*
X105942493Y-91645289D01*
X106001122Y-91632805D01*
X106043227Y-91623778D01*
X106088454Y-91614040D01*
X106149565Y-91600890D01*
X106224830Y-91584700D01*
X106312521Y-91565842D01*
X106410908Y-91544688D01*
X106518262Y-91521608D01*
X106632855Y-91496974D01*
X106752957Y-91471159D01*
X106876839Y-91444534D01*
X107002772Y-91417471D01*
X107129027Y-91390340D01*
X107253876Y-91363515D01*
X107375588Y-91337366D01*
X107492436Y-91312265D01*
X107556418Y-91298522D01*
X107650900Y-91278306D01*
X107740248Y-91259340D01*
X107822890Y-91241946D01*
X107897253Y-91226449D01*
X107961763Y-91213173D01*
X108014850Y-91202440D01*
X108054939Y-91194576D01*
X108080459Y-91189904D01*
X108089738Y-91188707D01*
X108097621Y-91196740D01*
G37*
X108097621Y-91196740D02*
X108113480Y-91217890D01*
X108135927Y-91249992D01*
X108163578Y-91290881D01*
X108195047Y-91338394D01*
X108228948Y-91390366D01*
X108263895Y-91444632D01*
X108298503Y-91499027D01*
X108331386Y-91551387D01*
X108361158Y-91599547D01*
X108386433Y-91641343D01*
X108405826Y-91674611D01*
X108417951Y-91697185D01*
X108421447Y-91706843D01*
X108415657Y-91716933D01*
X108401263Y-91740263D01*
X108379455Y-91774954D01*
X108351424Y-91819129D01*
X108318359Y-91870907D01*
X108281452Y-91928412D01*
X108257350Y-91965824D01*
X108211538Y-92036486D01*
X108174252Y-92093129D01*
X108144549Y-92137058D01*
X108121486Y-92169580D01*
X108104120Y-92191998D01*
X108091508Y-92205620D01*
X108082706Y-92211750D01*
X108079222Y-92212406D01*
X108060298Y-92209843D01*
X108031565Y-92204340D01*
X108011276Y-92199861D01*
X107984814Y-92193840D01*
X107945186Y-92185051D01*
X107891798Y-92173367D01*
X107824058Y-92158658D01*
X107741375Y-92140797D01*
X107643156Y-92119657D01*
X107528808Y-92095107D01*
X107397739Y-92067022D01*
X107322234Y-92050861D01*
X107252343Y-92035897D01*
X107167548Y-92017724D01*
X107070556Y-91996926D01*
X106964074Y-91974082D01*
X106850809Y-91949775D01*
X106733468Y-91924584D01*
X106614757Y-91899093D01*
X106497384Y-91873881D01*
X106384057Y-91849530D01*
X106277481Y-91826622D01*
X106180364Y-91805738D01*
X106095413Y-91787459D01*
X106043227Y-91776221D01*
X105993387Y-91765543D01*
X105933887Y-91752884D01*
X105872700Y-91739936D01*
X105824805Y-91729861D01*
X105781200Y-91720384D01*
X105744737Y-91711818D01*
X105718632Y-91704967D01*
X105706100Y-91700635D01*
X105705461Y-91700000D01*
X105713756Y-91696490D01*
X105736497Y-91690243D01*
X105770468Y-91682063D01*
X105812453Y-91672753D01*
X105824805Y-91670138D01*
X105881062Y-91658298D01*
X105942493Y-91645289D01*
X106001122Y-91632805D01*
X106043227Y-91623778D01*
X106088454Y-91614040D01*
X106149565Y-91600890D01*
X106224830Y-91584700D01*
X106312521Y-91565842D01*
X106410908Y-91544688D01*
X106518262Y-91521608D01*
X106632855Y-91496974D01*
X106752957Y-91471159D01*
X106876839Y-91444534D01*
X107002772Y-91417471D01*
X107129027Y-91390340D01*
X107253876Y-91363515D01*
X107375588Y-91337366D01*
X107492436Y-91312265D01*
X107556418Y-91298522D01*
X107650900Y-91278306D01*
X107740248Y-91259340D01*
X107822890Y-91241946D01*
X107897253Y-91226449D01*
X107961763Y-91213173D01*
X108014850Y-91202440D01*
X108054939Y-91194576D01*
X108080459Y-91189904D01*
X108089738Y-91188707D01*
X108097621Y-91196740D01*
G36*
X113372071Y-88530904D02*
G01*
X113359915Y-88551737D01*
X113340792Y-88582986D01*
X113316137Y-88622312D01*
X113287384Y-88667377D01*
X113283142Y-88673966D01*
X113261188Y-88708004D01*
X113230285Y-88755879D01*
X113191266Y-88816301D01*
X113144965Y-88887981D01*
X113092216Y-88969628D01*
X113033853Y-89059953D01*
X112970709Y-89157666D01*
X112903617Y-89261478D01*
X112833413Y-89370099D01*
X112760928Y-89482239D01*
X112686997Y-89596609D01*
X112612454Y-89711918D01*
X112538132Y-89826878D01*
X112464866Y-89940199D01*
X112393487Y-90050590D01*
X112324831Y-90156763D01*
X112259731Y-90257427D01*
X112199021Y-90351294D01*
X112143534Y-90437072D01*
X112094104Y-90513473D01*
X112051564Y-90579207D01*
X112037370Y-90601134D01*
X111987004Y-90678952D01*
X111933210Y-90762091D01*
X111878295Y-90846983D01*
X111824567Y-90930062D01*
X111774333Y-91007760D01*
X111729898Y-91076512D01*
X111702423Y-91119042D01*
X111658032Y-91187754D01*
X111609223Y-91263269D01*
X111559084Y-91340816D01*
X111510698Y-91415622D01*
X111467152Y-91482917D01*
X111444713Y-91517577D01*
X111326618Y-91699942D01*
X111601831Y-92125556D01*
X111655085Y-92207902D01*
X111707201Y-92288468D01*
X111757026Y-92365472D01*
X111803407Y-92437136D01*
X111845193Y-92501678D01*
X111881231Y-92557318D01*
X111910367Y-92602276D01*
X111931450Y-92634771D01*
X111938582Y-92645744D01*
X111962652Y-92682808D01*
X111993871Y-92730985D01*
X112029630Y-92786247D01*
X112067323Y-92844563D01*
X112104342Y-92901904D01*
X112110502Y-92911454D01*
X112131431Y-92943883D01*
X112161267Y-92990086D01*
X112199135Y-93048708D01*
X112244160Y-93118397D01*
X112295467Y-93197798D01*
X112352182Y-93285558D01*
X112413430Y-93380324D01*
X112478336Y-93480740D01*
X112546024Y-93585455D01*
X112615621Y-93693113D01*
X112686252Y-93802363D01*
X112704235Y-93830177D01*
X112798926Y-93976635D01*
X112884315Y-94108712D01*
X112960880Y-94227154D01*
X113029098Y-94332706D01*
X113089447Y-94426114D01*
X113142406Y-94508126D01*
X113188453Y-94579488D01*
X113228065Y-94640944D01*
X113261720Y-94693243D01*
X113289897Y-94737129D01*
X113313074Y-94773349D01*
X113331728Y-94802649D01*
X113346338Y-94825776D01*
X113357381Y-94843475D01*
X113365336Y-94856493D01*
X113370680Y-94865576D01*
X113373893Y-94871469D01*
X113375450Y-94874921D01*
X113375832Y-94876675D01*
X113375515Y-94877479D01*
X113375292Y-94877709D01*
X113366763Y-94874749D01*
X113347514Y-94863757D01*
X113321572Y-94847049D01*
X113319399Y-94845583D01*
X113301931Y-94833996D01*
X113270921Y-94813689D01*
X113227968Y-94785700D01*
X113174673Y-94751068D01*
X113112635Y-94710830D01*
X113043455Y-94666025D01*
X112968732Y-94617691D01*
X112890067Y-94566867D01*
X112848085Y-94539766D01*
X112755700Y-94480137D01*
X112656432Y-94416047D01*
X112553488Y-94349567D01*
X112450076Y-94282771D01*
X112349405Y-94217730D01*
X112254682Y-94156517D01*
X112169116Y-94101204D01*
X112105000Y-94059740D01*
X112029512Y-94010918D01*
X111942142Y-93954424D01*
X111846140Y-93892357D01*
X111744755Y-93826818D01*
X111641238Y-93759909D01*
X111538839Y-93693729D01*
X111440806Y-93630381D01*
X111366418Y-93582318D01*
X111271501Y-93520993D01*
X111167217Y-93453612D01*
X111057234Y-93382543D01*
X110945219Y-93310156D01*
X110834838Y-93238823D01*
X110729760Y-93170912D01*
X110633652Y-93108793D01*
X110575265Y-93071052D01*
X110198438Y-92827465D01*
X110003314Y-92954047D01*
X109950419Y-92988339D01*
X109885512Y-93030382D01*
X109811716Y-93078154D01*
X109732154Y-93129635D01*
X109649949Y-93182805D01*
X109568223Y-93235643D01*
X109490099Y-93286129D01*
X109488439Y-93287201D01*
X109410785Y-93337371D01*
X109329760Y-93389724D01*
X109248428Y-93442281D01*
X109169852Y-93493061D01*
X109097096Y-93540084D01*
X109033224Y-93581370D01*
X108981299Y-93614940D01*
X108979539Y-93616079D01*
X108775864Y-93747779D01*
X108586778Y-93870048D01*
X108411739Y-93983232D01*
X108250207Y-94087679D01*
X108101640Y-94183737D01*
X107965500Y-94271754D01*
X107841244Y-94352077D01*
X107728333Y-94425054D01*
X107626226Y-94491033D01*
X107534383Y-94550360D01*
X107452262Y-94603384D01*
X107379323Y-94650453D01*
X107315026Y-94691914D01*
X107258830Y-94728114D01*
X107210195Y-94759402D01*
X107168579Y-94786125D01*
X107133443Y-94808630D01*
X107104246Y-94827265D01*
X107080447Y-94842379D01*
X107061506Y-94854318D01*
X107046882Y-94863430D01*
X107036034Y-94870063D01*
X107028423Y-94874564D01*
X107023507Y-94877281D01*
X107020746Y-94878562D01*
X107019599Y-94878754D01*
X107019525Y-94878206D01*
X107019985Y-94877263D01*
X107020438Y-94876276D01*
X107020496Y-94875939D01*
X107025219Y-94867553D01*
X107038630Y-94845849D01*
X107059597Y-94812608D01*
X107086985Y-94769615D01*
X107119659Y-94718649D01*
X107156487Y-94661494D01*
X107185622Y-94616454D01*
X107220452Y-94562673D01*
X107263639Y-94495954D01*
X107313764Y-94418488D01*
X107369409Y-94332468D01*
X107429156Y-94240087D01*
X107491586Y-94143538D01*
X107555283Y-94045013D01*
X107618827Y-93946704D01*
X107680801Y-93850806D01*
X107682490Y-93848191D01*
X107745625Y-93750491D01*
X107811322Y-93648838D01*
X107878025Y-93545641D01*
X107944177Y-93443307D01*
X108008220Y-93344244D01*
X108068599Y-93250862D01*
X108123755Y-93165568D01*
X108172133Y-93090771D01*
X108209476Y-93033049D01*
X108322156Y-92858883D01*
X108425362Y-92699302D01*
X108519431Y-92553785D01*
X108604698Y-92421807D01*
X108681499Y-92302845D01*
X108750171Y-92196377D01*
X108811048Y-92101879D01*
X108864467Y-92018828D01*
X108910764Y-91946700D01*
X108950275Y-91884973D01*
X108983335Y-91833124D01*
X109010281Y-91790628D01*
X109031448Y-91756964D01*
X109047173Y-91731607D01*
X109057790Y-91714035D01*
X109063636Y-91703725D01*
X109065106Y-91700304D01*
X109060357Y-91691165D01*
X109046737Y-91668407D01*
X109025184Y-91633518D01*
X108996637Y-91587986D01*
X108962034Y-91533303D01*
X108922315Y-91470955D01*
X108878419Y-91402432D01*
X108831283Y-91329222D01*
X108825065Y-91319592D01*
X108555310Y-90901985D01*
X108278399Y-90473472D01*
X107997031Y-90038229D01*
X107880520Y-89858049D01*
X107823410Y-89769731D01*
X107762284Y-89675189D01*
X107699234Y-89577661D01*
X107636352Y-89480383D01*
X107575730Y-89386592D01*
X107519460Y-89299524D01*
X107469635Y-89222415D01*
X107443858Y-89182517D01*
X107395610Y-89107851D01*
X107344801Y-89029256D01*
X107293615Y-88950110D01*
X107244238Y-88873790D01*
X107198854Y-88803674D01*
X107159649Y-88743139D01*
X107138683Y-88710790D01*
X107105809Y-88659789D01*
X107076661Y-88613991D01*
X107052540Y-88575488D01*
X107034743Y-88546369D01*
X107024572Y-88528724D01*
X107022702Y-88524295D01*
X107030819Y-88528013D01*
X107051686Y-88540138D01*
X107082962Y-88559236D01*
X107122307Y-88583875D01*
X107167380Y-88612622D01*
X107173966Y-88616862D01*
X107214252Y-88642843D01*
X107268018Y-88677540D01*
X107333614Y-88719887D01*
X107409393Y-88768820D01*
X107493705Y-88823273D01*
X107584903Y-88882181D01*
X107681338Y-88944479D01*
X107781361Y-89009102D01*
X107883324Y-89074985D01*
X107985578Y-89141062D01*
X108086476Y-89206269D01*
X108184368Y-89269540D01*
X108277606Y-89329810D01*
X108364541Y-89386015D01*
X108443526Y-89437088D01*
X108512912Y-89481965D01*
X108565212Y-89515804D01*
X108617101Y-89549372D01*
X108681699Y-89591143D01*
X108756581Y-89639551D01*
X108839322Y-89693027D01*
X108927496Y-89750005D01*
X109018678Y-89808918D01*
X109110443Y-89868197D01*
X109200366Y-89926276D01*
X109227234Y-89943628D01*
X109318021Y-90002270D01*
X109412940Y-90063606D01*
X109509317Y-90125908D01*
X109604479Y-90187445D01*
X109695751Y-90246488D01*
X109780461Y-90301308D01*
X109855934Y-90350176D01*
X109919497Y-90391363D01*
X109930901Y-90398757D01*
X110197724Y-90571783D01*
X110282177Y-90517547D01*
X110311307Y-90498809D01*
X110354080Y-90471252D01*
X110409014Y-90435833D01*
X110474622Y-90393511D01*
X110549420Y-90345246D01*
X110631923Y-90291995D01*
X110720648Y-90234719D01*
X110814108Y-90174375D01*
X110910820Y-90111923D01*
X111009299Y-90048321D01*
X111108059Y-89984528D01*
X111205617Y-89921502D01*
X111300488Y-89860203D01*
X111391186Y-89801590D01*
X111476228Y-89746620D01*
X111554128Y-89696254D01*
X111623403Y-89651449D01*
X111659149Y-89628321D01*
X111722106Y-89587591D01*
X111797789Y-89538647D01*
X111883787Y-89483046D01*
X111977693Y-89422344D01*
X112077098Y-89358099D01*
X112179592Y-89291868D01*
X112282766Y-89225207D01*
X112384212Y-89159674D01*
X112474290Y-89101494D01*
X112567685Y-89041169D01*
X112661679Y-88980440D01*
X112754343Y-88920554D01*
X112843751Y-88862756D01*
X112927975Y-88808294D01*
X113005088Y-88758414D01*
X113073162Y-88714363D01*
X113130270Y-88677385D01*
X113174484Y-88648729D01*
X113180324Y-88644940D01*
X113232617Y-88611187D01*
X113279739Y-88581113D01*
X113319654Y-88555988D01*
X113350325Y-88537084D01*
X113369718Y-88525673D01*
X113375827Y-88522825D01*
X113372071Y-88530904D01*
G37*
X113372071Y-88530904D02*
X113359915Y-88551737D01*
X113340792Y-88582986D01*
X113316137Y-88622312D01*
X113287384Y-88667377D01*
X113283142Y-88673966D01*
X113261188Y-88708004D01*
X113230285Y-88755879D01*
X113191266Y-88816301D01*
X113144965Y-88887981D01*
X113092216Y-88969628D01*
X113033853Y-89059953D01*
X112970709Y-89157666D01*
X112903617Y-89261478D01*
X112833413Y-89370099D01*
X112760928Y-89482239D01*
X112686997Y-89596609D01*
X112612454Y-89711918D01*
X112538132Y-89826878D01*
X112464866Y-89940199D01*
X112393487Y-90050590D01*
X112324831Y-90156763D01*
X112259731Y-90257427D01*
X112199021Y-90351294D01*
X112143534Y-90437072D01*
X112094104Y-90513473D01*
X112051564Y-90579207D01*
X112037370Y-90601134D01*
X111987004Y-90678952D01*
X111933210Y-90762091D01*
X111878295Y-90846983D01*
X111824567Y-90930062D01*
X111774333Y-91007760D01*
X111729898Y-91076512D01*
X111702423Y-91119042D01*
X111658032Y-91187754D01*
X111609223Y-91263269D01*
X111559084Y-91340816D01*
X111510698Y-91415622D01*
X111467152Y-91482917D01*
X111444713Y-91517577D01*
X111326618Y-91699942D01*
X111601831Y-92125556D01*
X111655085Y-92207902D01*
X111707201Y-92288468D01*
X111757026Y-92365472D01*
X111803407Y-92437136D01*
X111845193Y-92501678D01*
X111881231Y-92557318D01*
X111910367Y-92602276D01*
X111931450Y-92634771D01*
X111938582Y-92645744D01*
X111962652Y-92682808D01*
X111993871Y-92730985D01*
X112029630Y-92786247D01*
X112067323Y-92844563D01*
X112104342Y-92901904D01*
X112110502Y-92911454D01*
X112131431Y-92943883D01*
X112161267Y-92990086D01*
X112199135Y-93048708D01*
X112244160Y-93118397D01*
X112295467Y-93197798D01*
X112352182Y-93285558D01*
X112413430Y-93380324D01*
X112478336Y-93480740D01*
X112546024Y-93585455D01*
X112615621Y-93693113D01*
X112686252Y-93802363D01*
X112704235Y-93830177D01*
X112798926Y-93976635D01*
X112884315Y-94108712D01*
X112960880Y-94227154D01*
X113029098Y-94332706D01*
X113089447Y-94426114D01*
X113142406Y-94508126D01*
X113188453Y-94579488D01*
X113228065Y-94640944D01*
X113261720Y-94693243D01*
X113289897Y-94737129D01*
X113313074Y-94773349D01*
X113331728Y-94802649D01*
X113346338Y-94825776D01*
X113357381Y-94843475D01*
X113365336Y-94856493D01*
X113370680Y-94865576D01*
X113373893Y-94871469D01*
X113375450Y-94874921D01*
X113375832Y-94876675D01*
X113375515Y-94877479D01*
X113375292Y-94877709D01*
X113366763Y-94874749D01*
X113347514Y-94863757D01*
X113321572Y-94847049D01*
X113319399Y-94845583D01*
X113301931Y-94833996D01*
X113270921Y-94813689D01*
X113227968Y-94785700D01*
X113174673Y-94751068D01*
X113112635Y-94710830D01*
X113043455Y-94666025D01*
X112968732Y-94617691D01*
X112890067Y-94566867D01*
X112848085Y-94539766D01*
X112755700Y-94480137D01*
X112656432Y-94416047D01*
X112553488Y-94349567D01*
X112450076Y-94282771D01*
X112349405Y-94217730D01*
X112254682Y-94156517D01*
X112169116Y-94101204D01*
X112105000Y-94059740D01*
X112029512Y-94010918D01*
X111942142Y-93954424D01*
X111846140Y-93892357D01*
X111744755Y-93826818D01*
X111641238Y-93759909D01*
X111538839Y-93693729D01*
X111440806Y-93630381D01*
X111366418Y-93582318D01*
X111271501Y-93520993D01*
X111167217Y-93453612D01*
X111057234Y-93382543D01*
X110945219Y-93310156D01*
X110834838Y-93238823D01*
X110729760Y-93170912D01*
X110633652Y-93108793D01*
X110575265Y-93071052D01*
X110198438Y-92827465D01*
X110003314Y-92954047D01*
X109950419Y-92988339D01*
X109885512Y-93030382D01*
X109811716Y-93078154D01*
X109732154Y-93129635D01*
X109649949Y-93182805D01*
X109568223Y-93235643D01*
X109490099Y-93286129D01*
X109488439Y-93287201D01*
X109410785Y-93337371D01*
X109329760Y-93389724D01*
X109248428Y-93442281D01*
X109169852Y-93493061D01*
X109097096Y-93540084D01*
X109033224Y-93581370D01*
X108981299Y-93614940D01*
X108979539Y-93616079D01*
X108775864Y-93747779D01*
X108586778Y-93870048D01*
X108411739Y-93983232D01*
X108250207Y-94087679D01*
X108101640Y-94183737D01*
X107965500Y-94271754D01*
X107841244Y-94352077D01*
X107728333Y-94425054D01*
X107626226Y-94491033D01*
X107534383Y-94550360D01*
X107452262Y-94603384D01*
X107379323Y-94650453D01*
X107315026Y-94691914D01*
X107258830Y-94728114D01*
X107210195Y-94759402D01*
X107168579Y-94786125D01*
X107133443Y-94808630D01*
X107104246Y-94827265D01*
X107080447Y-94842379D01*
X107061506Y-94854318D01*
X107046882Y-94863430D01*
X107036034Y-94870063D01*
X107028423Y-94874564D01*
X107023507Y-94877281D01*
X107020746Y-94878562D01*
X107019599Y-94878754D01*
X107019525Y-94878206D01*
X107019985Y-94877263D01*
X107020438Y-94876276D01*
X107020496Y-94875939D01*
X107025219Y-94867553D01*
X107038630Y-94845849D01*
X107059597Y-94812608D01*
X107086985Y-94769615D01*
X107119659Y-94718649D01*
X107156487Y-94661494D01*
X107185622Y-94616454D01*
X107220452Y-94562673D01*
X107263639Y-94495954D01*
X107313764Y-94418488D01*
X107369409Y-94332468D01*
X107429156Y-94240087D01*
X107491586Y-94143538D01*
X107555283Y-94045013D01*
X107618827Y-93946704D01*
X107680801Y-93850806D01*
X107682490Y-93848191D01*
X107745625Y-93750491D01*
X107811322Y-93648838D01*
X107878025Y-93545641D01*
X107944177Y-93443307D01*
X108008220Y-93344244D01*
X108068599Y-93250862D01*
X108123755Y-93165568D01*
X108172133Y-93090771D01*
X108209476Y-93033049D01*
X108322156Y-92858883D01*
X108425362Y-92699302D01*
X108519431Y-92553785D01*
X108604698Y-92421807D01*
X108681499Y-92302845D01*
X108750171Y-92196377D01*
X108811048Y-92101879D01*
X108864467Y-92018828D01*
X108910764Y-91946700D01*
X108950275Y-91884973D01*
X108983335Y-91833124D01*
X109010281Y-91790628D01*
X109031448Y-91756964D01*
X109047173Y-91731607D01*
X109057790Y-91714035D01*
X109063636Y-91703725D01*
X109065106Y-91700304D01*
X109060357Y-91691165D01*
X109046737Y-91668407D01*
X109025184Y-91633518D01*
X108996637Y-91587986D01*
X108962034Y-91533303D01*
X108922315Y-91470955D01*
X108878419Y-91402432D01*
X108831283Y-91329222D01*
X108825065Y-91319592D01*
X108555310Y-90901985D01*
X108278399Y-90473472D01*
X107997031Y-90038229D01*
X107880520Y-89858049D01*
X107823410Y-89769731D01*
X107762284Y-89675189D01*
X107699234Y-89577661D01*
X107636352Y-89480383D01*
X107575730Y-89386592D01*
X107519460Y-89299524D01*
X107469635Y-89222415D01*
X107443858Y-89182517D01*
X107395610Y-89107851D01*
X107344801Y-89029256D01*
X107293615Y-88950110D01*
X107244238Y-88873790D01*
X107198854Y-88803674D01*
X107159649Y-88743139D01*
X107138683Y-88710790D01*
X107105809Y-88659789D01*
X107076661Y-88613991D01*
X107052540Y-88575488D01*
X107034743Y-88546369D01*
X107024572Y-88528724D01*
X107022702Y-88524295D01*
X107030819Y-88528013D01*
X107051686Y-88540138D01*
X107082962Y-88559236D01*
X107122307Y-88583875D01*
X107167380Y-88612622D01*
X107173966Y-88616862D01*
X107214252Y-88642843D01*
X107268018Y-88677540D01*
X107333614Y-88719887D01*
X107409393Y-88768820D01*
X107493705Y-88823273D01*
X107584903Y-88882181D01*
X107681338Y-88944479D01*
X107781361Y-89009102D01*
X107883324Y-89074985D01*
X107985578Y-89141062D01*
X108086476Y-89206269D01*
X108184368Y-89269540D01*
X108277606Y-89329810D01*
X108364541Y-89386015D01*
X108443526Y-89437088D01*
X108512912Y-89481965D01*
X108565212Y-89515804D01*
X108617101Y-89549372D01*
X108681699Y-89591143D01*
X108756581Y-89639551D01*
X108839322Y-89693027D01*
X108927496Y-89750005D01*
X109018678Y-89808918D01*
X109110443Y-89868197D01*
X109200366Y-89926276D01*
X109227234Y-89943628D01*
X109318021Y-90002270D01*
X109412940Y-90063606D01*
X109509317Y-90125908D01*
X109604479Y-90187445D01*
X109695751Y-90246488D01*
X109780461Y-90301308D01*
X109855934Y-90350176D01*
X109919497Y-90391363D01*
X109930901Y-90398757D01*
X110197724Y-90571783D01*
X110282177Y-90517547D01*
X110311307Y-90498809D01*
X110354080Y-90471252D01*
X110409014Y-90435833D01*
X110474622Y-90393511D01*
X110549420Y-90345246D01*
X110631923Y-90291995D01*
X110720648Y-90234719D01*
X110814108Y-90174375D01*
X110910820Y-90111923D01*
X111009299Y-90048321D01*
X111108059Y-89984528D01*
X111205617Y-89921502D01*
X111300488Y-89860203D01*
X111391186Y-89801590D01*
X111476228Y-89746620D01*
X111554128Y-89696254D01*
X111623403Y-89651449D01*
X111659149Y-89628321D01*
X111722106Y-89587591D01*
X111797789Y-89538647D01*
X111883787Y-89483046D01*
X111977693Y-89422344D01*
X112077098Y-89358099D01*
X112179592Y-89291868D01*
X112282766Y-89225207D01*
X112384212Y-89159674D01*
X112474290Y-89101494D01*
X112567685Y-89041169D01*
X112661679Y-88980440D01*
X112754343Y-88920554D01*
X112843751Y-88862756D01*
X112927975Y-88808294D01*
X113005088Y-88758414D01*
X113073162Y-88714363D01*
X113130270Y-88677385D01*
X113174484Y-88648729D01*
X113180324Y-88644940D01*
X113232617Y-88611187D01*
X113279739Y-88581113D01*
X113319654Y-88555988D01*
X113350325Y-88537084D01*
X113369718Y-88525673D01*
X113375827Y-88522825D01*
X113372071Y-88530904D01*
G36*
X110226912Y-93489704D02*
G01*
X110247395Y-93501928D01*
X110278712Y-93521423D01*
X110318672Y-93546759D01*
X110365082Y-93576503D01*
X110415750Y-93609222D01*
X110468482Y-93643486D01*
X110521086Y-93677860D01*
X110571370Y-93710914D01*
X110617141Y-93741214D01*
X110656207Y-93767330D01*
X110686374Y-93787828D01*
X110705451Y-93801277D01*
X110711315Y-93806113D01*
X110710004Y-93816164D01*
X110705256Y-93841926D01*
X110697456Y-93881510D01*
X110686990Y-93933022D01*
X110674244Y-93994573D01*
X110659604Y-94064271D01*
X110643457Y-94140224D01*
X110636447Y-94172934D01*
X110617712Y-94260191D01*
X110598467Y-94349886D01*
X110579430Y-94438672D01*
X110561317Y-94523201D01*
X110544846Y-94600127D01*
X110530734Y-94666104D01*
X110519784Y-94717375D01*
X110511132Y-94757874D01*
X110499120Y-94813994D01*
X110484174Y-94883745D01*
X110466722Y-94965137D01*
X110447192Y-95056179D01*
X110426009Y-95154882D01*
X110403601Y-95259255D01*
X110380395Y-95367308D01*
X110356818Y-95477051D01*
X110344705Y-95533417D01*
X110322363Y-95637576D01*
X110301168Y-95736782D01*
X110281421Y-95829599D01*
X110263424Y-95914593D01*
X110247479Y-95990326D01*
X110233886Y-96055363D01*
X110222948Y-96108268D01*
X110214965Y-96147606D01*
X110210239Y-96171940D01*
X110209007Y-96179676D01*
X110205585Y-96192520D01*
X110202142Y-96194539D01*
X110197565Y-96186311D01*
X110190567Y-96164067D01*
X110182201Y-96131470D01*
X110175616Y-96102216D01*
X110163370Y-96044846D01*
X110147765Y-95971966D01*
X110129253Y-95885675D01*
X110108283Y-95788070D01*
X110085307Y-95681249D01*
X110060774Y-95567310D01*
X110042602Y-95482978D01*
X110026760Y-95409420D01*
X110008831Y-95326065D01*
X109990356Y-95240082D01*
X109972875Y-95158645D01*
X109960341Y-95100177D01*
X109945292Y-95029929D01*
X109928670Y-94952354D01*
X109911864Y-94873938D01*
X109896267Y-94801170D01*
X109885061Y-94748900D01*
X109875400Y-94703841D01*
X109862597Y-94644128D01*
X109847287Y-94572722D01*
X109830105Y-94492583D01*
X109811686Y-94406671D01*
X109792663Y-94317947D01*
X109773673Y-94229371D01*
X109768447Y-94204994D01*
X109751224Y-94124408D01*
X109735233Y-94049100D01*
X109720861Y-93980931D01*
X109708497Y-93921760D01*
X109698528Y-93873451D01*
X109691341Y-93837863D01*
X109687324Y-93816858D01*
X109686595Y-93811959D01*
X109693900Y-93804561D01*
X109714642Y-93788703D01*
X109747063Y-93765598D01*
X109789406Y-93736461D01*
X109839911Y-93702506D01*
X109896822Y-93664949D01*
X109940937Y-93636255D01*
X110195278Y-93471807D01*
X110226912Y-93489704D01*
G37*
X110226912Y-93489704D02*
X110247395Y-93501928D01*
X110278712Y-93521423D01*
X110318672Y-93546759D01*
X110365082Y-93576503D01*
X110415750Y-93609222D01*
X110468482Y-93643486D01*
X110521086Y-93677860D01*
X110571370Y-93710914D01*
X110617141Y-93741214D01*
X110656207Y-93767330D01*
X110686374Y-93787828D01*
X110705451Y-93801277D01*
X110711315Y-93806113D01*
X110710004Y-93816164D01*
X110705256Y-93841926D01*
X110697456Y-93881510D01*
X110686990Y-93933022D01*
X110674244Y-93994573D01*
X110659604Y-94064271D01*
X110643457Y-94140224D01*
X110636447Y-94172934D01*
X110617712Y-94260191D01*
X110598467Y-94349886D01*
X110579430Y-94438672D01*
X110561317Y-94523201D01*
X110544846Y-94600127D01*
X110530734Y-94666104D01*
X110519784Y-94717375D01*
X110511132Y-94757874D01*
X110499120Y-94813994D01*
X110484174Y-94883745D01*
X110466722Y-94965137D01*
X110447192Y-95056179D01*
X110426009Y-95154882D01*
X110403601Y-95259255D01*
X110380395Y-95367308D01*
X110356818Y-95477051D01*
X110344705Y-95533417D01*
X110322363Y-95637576D01*
X110301168Y-95736782D01*
X110281421Y-95829599D01*
X110263424Y-95914593D01*
X110247479Y-95990326D01*
X110233886Y-96055363D01*
X110222948Y-96108268D01*
X110214965Y-96147606D01*
X110210239Y-96171940D01*
X110209007Y-96179676D01*
X110205585Y-96192520D01*
X110202142Y-96194539D01*
X110197565Y-96186311D01*
X110190567Y-96164067D01*
X110182201Y-96131470D01*
X110175616Y-96102216D01*
X110163370Y-96044846D01*
X110147765Y-95971966D01*
X110129253Y-95885675D01*
X110108283Y-95788070D01*
X110085307Y-95681249D01*
X110060774Y-95567310D01*
X110042602Y-95482978D01*
X110026760Y-95409420D01*
X110008831Y-95326065D01*
X109990356Y-95240082D01*
X109972875Y-95158645D01*
X109960341Y-95100177D01*
X109945292Y-95029929D01*
X109928670Y-94952354D01*
X109911864Y-94873938D01*
X109896267Y-94801170D01*
X109885061Y-94748900D01*
X109875400Y-94703841D01*
X109862597Y-94644128D01*
X109847287Y-94572722D01*
X109830105Y-94492583D01*
X109811686Y-94406671D01*
X109792663Y-94317947D01*
X109773673Y-94229371D01*
X109768447Y-94204994D01*
X109751224Y-94124408D01*
X109735233Y-94049100D01*
X109720861Y-93980931D01*
X109708497Y-93921760D01*
X109698528Y-93873451D01*
X109691341Y-93837863D01*
X109687324Y-93816858D01*
X109686595Y-93811959D01*
X109693900Y-93804561D01*
X109714642Y-93788703D01*
X109747063Y-93765598D01*
X109789406Y-93736461D01*
X109839911Y-93702506D01*
X109896822Y-93664949D01*
X109940937Y-93636255D01*
X110195278Y-93471807D01*
X110226912Y-93489704D01*
D11*
X119050000Y-67742000D03*
X119050000Y-70282000D03*
X119050000Y-72822000D03*
X119050000Y-75362000D03*
X119050000Y-77902000D03*
X119050000Y-80442000D03*
X119050000Y-82982000D03*
X119050000Y-85522000D03*
X119050000Y-88062000D03*
X119050000Y-90602000D03*
X119050000Y-93142000D03*
X119050000Y-95682000D03*
X101270000Y-95682000D03*
X101270000Y-93142000D03*
X101270000Y-90602000D03*
X101270000Y-88062000D03*
X101270000Y-85522000D03*
X101270000Y-82982000D03*
X101270000Y-80442000D03*
X101270000Y-77902000D03*
X101270000Y-75362000D03*
X101270000Y-72822000D03*
X101270000Y-70282000D03*
X101270000Y-67742000D03*
D12*
X112740000Y-70700000D03*
X112740000Y-74700000D03*
X111470000Y-70700000D03*
X111470000Y-74700000D03*
X110200000Y-70700000D03*
X110200000Y-74700000D03*
X108930000Y-70700000D03*
X108930000Y-74700000D03*
X107660000Y-70700000D03*
X107660000Y-74700000D03*
G36*
G01*
X114521738Y-85475000D02*
X115478262Y-85475000D01*
G75*
G02*
X115750000Y-85746738I0J-271738D01*
G01*
X115750000Y-86453262D01*
G75*
G02*
X115478262Y-86725000I-271738J0D01*
G01*
X114521738Y-86725000D01*
G75*
G02*
X114250000Y-86453262I0J271738D01*
G01*
X114250000Y-85746738D01*
G75*
G02*
X114521738Y-85475000I271738J0D01*
G01*
G37*
G36*
G01*
X114521738Y-83425000D02*
X115478262Y-83425000D01*
G75*
G02*
X115750000Y-83696738I0J-271738D01*
G01*
X115750000Y-84403262D01*
G75*
G02*
X115478262Y-84675000I-271738J0D01*
G01*
X114521738Y-84675000D01*
G75*
G02*
X114250000Y-84403262I0J271738D01*
G01*
X114250000Y-83696738D01*
G75*
G02*
X114521738Y-83425000I271738J0D01*
G01*
G37*
G36*
G01*
X114521738Y-80375000D02*
X115478262Y-80375000D01*
G75*
G02*
X115750000Y-80646738I0J-271738D01*
G01*
X115750000Y-81353262D01*
G75*
G02*
X115478262Y-81625000I-271738J0D01*
G01*
X114521738Y-81625000D01*
G75*
G02*
X114250000Y-81353262I0J271738D01*
G01*
X114250000Y-80646738D01*
G75*
G02*
X114521738Y-80375000I271738J0D01*
G01*
G37*
G36*
G01*
X114521738Y-78325000D02*
X115478262Y-78325000D01*
G75*
G02*
X115750000Y-78596738I0J-271738D01*
G01*
X115750000Y-79303262D01*
G75*
G02*
X115478262Y-79575000I-271738J0D01*
G01*
X114521738Y-79575000D01*
G75*
G02*
X114250000Y-79303262I0J271738D01*
G01*
X114250000Y-78596738D01*
G75*
G02*
X114521738Y-78325000I271738J0D01*
G01*
G37*
G36*
G01*
X111321738Y-85475000D02*
X112278262Y-85475000D01*
G75*
G02*
X112550000Y-85746738I0J-271738D01*
G01*
X112550000Y-86453262D01*
G75*
G02*
X112278262Y-86725000I-271738J0D01*
G01*
X111321738Y-86725000D01*
G75*
G02*
X111050000Y-86453262I0J271738D01*
G01*
X111050000Y-85746738D01*
G75*
G02*
X111321738Y-85475000I271738J0D01*
G01*
G37*
G36*
G01*
X111321738Y-83425000D02*
X112278262Y-83425000D01*
G75*
G02*
X112550000Y-83696738I0J-271738D01*
G01*
X112550000Y-84403262D01*
G75*
G02*
X112278262Y-84675000I-271738J0D01*
G01*
X111321738Y-84675000D01*
G75*
G02*
X111050000Y-84403262I0J271738D01*
G01*
X111050000Y-83696738D01*
G75*
G02*
X111321738Y-83425000I271738J0D01*
G01*
G37*
G36*
G01*
X111321738Y-80375000D02*
X112278262Y-80375000D01*
G75*
G02*
X112550000Y-80646738I0J-271738D01*
G01*
X112550000Y-81353262D01*
G75*
G02*
X112278262Y-81625000I-271738J0D01*
G01*
X111321738Y-81625000D01*
G75*
G02*
X111050000Y-81353262I0J271738D01*
G01*
X111050000Y-80646738D01*
G75*
G02*
X111321738Y-80375000I271738J0D01*
G01*
G37*
G36*
G01*
X111321738Y-78325000D02*
X112278262Y-78325000D01*
G75*
G02*
X112550000Y-78596738I0J-271738D01*
G01*
X112550000Y-79303262D01*
G75*
G02*
X112278262Y-79575000I-271738J0D01*
G01*
X111321738Y-79575000D01*
G75*
G02*
X111050000Y-79303262I0J271738D01*
G01*
X111050000Y-78596738D01*
G75*
G02*
X111321738Y-78325000I271738J0D01*
G01*
G37*
G36*
G01*
X108121738Y-85475000D02*
X109078262Y-85475000D01*
G75*
G02*
X109350000Y-85746738I0J-271738D01*
G01*
X109350000Y-86453262D01*
G75*
G02*
X109078262Y-86725000I-271738J0D01*
G01*
X108121738Y-86725000D01*
G75*
G02*
X107850000Y-86453262I0J271738D01*
G01*
X107850000Y-85746738D01*
G75*
G02*
X108121738Y-85475000I271738J0D01*
G01*
G37*
G36*
G01*
X108121738Y-83425000D02*
X109078262Y-83425000D01*
G75*
G02*
X109350000Y-83696738I0J-271738D01*
G01*
X109350000Y-84403262D01*
G75*
G02*
X109078262Y-84675000I-271738J0D01*
G01*
X108121738Y-84675000D01*
G75*
G02*
X107850000Y-84403262I0J271738D01*
G01*
X107850000Y-83696738D01*
G75*
G02*
X108121738Y-83425000I271738J0D01*
G01*
G37*
G36*
G01*
X108121738Y-80375000D02*
X109078262Y-80375000D01*
G75*
G02*
X109350000Y-80646738I0J-271738D01*
G01*
X109350000Y-81353262D01*
G75*
G02*
X109078262Y-81625000I-271738J0D01*
G01*
X108121738Y-81625000D01*
G75*
G02*
X107850000Y-81353262I0J271738D01*
G01*
X107850000Y-80646738D01*
G75*
G02*
X108121738Y-80375000I271738J0D01*
G01*
G37*
G36*
G01*
X108121738Y-78325000D02*
X109078262Y-78325000D01*
G75*
G02*
X109350000Y-78596738I0J-271738D01*
G01*
X109350000Y-79303262D01*
G75*
G02*
X109078262Y-79575000I-271738J0D01*
G01*
X108121738Y-79575000D01*
G75*
G02*
X107850000Y-79303262I0J271738D01*
G01*
X107850000Y-78596738D01*
G75*
G02*
X108121738Y-78325000I271738J0D01*
G01*
G37*
G36*
G01*
X104921738Y-85475000D02*
X105878262Y-85475000D01*
G75*
G02*
X106150000Y-85746738I0J-271738D01*
G01*
X106150000Y-86453262D01*
G75*
G02*
X105878262Y-86725000I-271738J0D01*
G01*
X104921738Y-86725000D01*
G75*
G02*
X104650000Y-86453262I0J271738D01*
G01*
X104650000Y-85746738D01*
G75*
G02*
X104921738Y-85475000I271738J0D01*
G01*
G37*
G36*
G01*
X104921738Y-83425000D02*
X105878262Y-83425000D01*
G75*
G02*
X106150000Y-83696738I0J-271738D01*
G01*
X106150000Y-84403262D01*
G75*
G02*
X105878262Y-84675000I-271738J0D01*
G01*
X104921738Y-84675000D01*
G75*
G02*
X104650000Y-84403262I0J271738D01*
G01*
X104650000Y-83696738D01*
G75*
G02*
X104921738Y-83425000I271738J0D01*
G01*
G37*
G36*
G01*
X104921738Y-80375000D02*
X105878262Y-80375000D01*
G75*
G02*
X106150000Y-80646738I0J-271738D01*
G01*
X106150000Y-81353262D01*
G75*
G02*
X105878262Y-81625000I-271738J0D01*
G01*
X104921738Y-81625000D01*
G75*
G02*
X104650000Y-81353262I0J271738D01*
G01*
X104650000Y-80646738D01*
G75*
G02*
X104921738Y-80375000I271738J0D01*
G01*
G37*
G36*
G01*
X104921738Y-78325000D02*
X105878262Y-78325000D01*
G75*
G02*
X106150000Y-78596738I0J-271738D01*
G01*
X106150000Y-79303262D01*
G75*
G02*
X105878262Y-79575000I-271738J0D01*
G01*
X104921738Y-79575000D01*
G75*
G02*
X104650000Y-79303262I0J271738D01*
G01*
X104650000Y-78596738D01*
G75*
G02*
X104921738Y-78325000I271738J0D01*
G01*
G37*
M02*
