G04 #@! TF.GenerationSoftware,KiCad,Pcbnew,(5.1.6-0-10_14)*
G04 #@! TF.CreationDate,2020-08-29T20:41:38-05:00*
G04 #@! TF.ProjectId,gen2-jtag-adapter,67656e32-2d6a-4746-9167-2d6164617074,rev?*
G04 #@! TF.SameCoordinates,Original*
G04 #@! TF.FileFunction,Paste,Top*
G04 #@! TF.FilePolarity,Positive*
%FSLAX46Y46*%
G04 Gerber Fmt 4.6, Leading zero omitted, Abs format (unit mm)*
G04 Created by KiCad (PCBNEW (5.1.6-0-10_14)) date 2020-08-29 20:41:38*
%MOMM*%
%LPD*%
G01*
G04 APERTURE LIST*
%ADD10R,0.700000X2.100000*%
G04 APERTURE END LIST*
D10*
X112740000Y-70700000D03*
X112740000Y-74700000D03*
X111470000Y-70700000D03*
X111470000Y-74700000D03*
X110200000Y-70700000D03*
X110200000Y-74700000D03*
X108930000Y-70700000D03*
X108930000Y-74700000D03*
X107660000Y-70700000D03*
X107660000Y-74700000D03*
G36*
G01*
X114549999Y-85525000D02*
X115450001Y-85525000D01*
G75*
G02*
X115700000Y-85774999I0J-249999D01*
G01*
X115700000Y-86425001D01*
G75*
G02*
X115450001Y-86675000I-249999J0D01*
G01*
X114549999Y-86675000D01*
G75*
G02*
X114300000Y-86425001I0J249999D01*
G01*
X114300000Y-85774999D01*
G75*
G02*
X114549999Y-85525000I249999J0D01*
G01*
G37*
G36*
G01*
X114549999Y-83475000D02*
X115450001Y-83475000D01*
G75*
G02*
X115700000Y-83724999I0J-249999D01*
G01*
X115700000Y-84375001D01*
G75*
G02*
X115450001Y-84625000I-249999J0D01*
G01*
X114549999Y-84625000D01*
G75*
G02*
X114300000Y-84375001I0J249999D01*
G01*
X114300000Y-83724999D01*
G75*
G02*
X114549999Y-83475000I249999J0D01*
G01*
G37*
G36*
G01*
X114549999Y-80425000D02*
X115450001Y-80425000D01*
G75*
G02*
X115700000Y-80674999I0J-249999D01*
G01*
X115700000Y-81325001D01*
G75*
G02*
X115450001Y-81575000I-249999J0D01*
G01*
X114549999Y-81575000D01*
G75*
G02*
X114300000Y-81325001I0J249999D01*
G01*
X114300000Y-80674999D01*
G75*
G02*
X114549999Y-80425000I249999J0D01*
G01*
G37*
G36*
G01*
X114549999Y-78375000D02*
X115450001Y-78375000D01*
G75*
G02*
X115700000Y-78624999I0J-249999D01*
G01*
X115700000Y-79275001D01*
G75*
G02*
X115450001Y-79525000I-249999J0D01*
G01*
X114549999Y-79525000D01*
G75*
G02*
X114300000Y-79275001I0J249999D01*
G01*
X114300000Y-78624999D01*
G75*
G02*
X114549999Y-78375000I249999J0D01*
G01*
G37*
G36*
G01*
X111349999Y-85525000D02*
X112250001Y-85525000D01*
G75*
G02*
X112500000Y-85774999I0J-249999D01*
G01*
X112500000Y-86425001D01*
G75*
G02*
X112250001Y-86675000I-249999J0D01*
G01*
X111349999Y-86675000D01*
G75*
G02*
X111100000Y-86425001I0J249999D01*
G01*
X111100000Y-85774999D01*
G75*
G02*
X111349999Y-85525000I249999J0D01*
G01*
G37*
G36*
G01*
X111349999Y-83475000D02*
X112250001Y-83475000D01*
G75*
G02*
X112500000Y-83724999I0J-249999D01*
G01*
X112500000Y-84375001D01*
G75*
G02*
X112250001Y-84625000I-249999J0D01*
G01*
X111349999Y-84625000D01*
G75*
G02*
X111100000Y-84375001I0J249999D01*
G01*
X111100000Y-83724999D01*
G75*
G02*
X111349999Y-83475000I249999J0D01*
G01*
G37*
G36*
G01*
X111349999Y-80425000D02*
X112250001Y-80425000D01*
G75*
G02*
X112500000Y-80674999I0J-249999D01*
G01*
X112500000Y-81325001D01*
G75*
G02*
X112250001Y-81575000I-249999J0D01*
G01*
X111349999Y-81575000D01*
G75*
G02*
X111100000Y-81325001I0J249999D01*
G01*
X111100000Y-80674999D01*
G75*
G02*
X111349999Y-80425000I249999J0D01*
G01*
G37*
G36*
G01*
X111349999Y-78375000D02*
X112250001Y-78375000D01*
G75*
G02*
X112500000Y-78624999I0J-249999D01*
G01*
X112500000Y-79275001D01*
G75*
G02*
X112250001Y-79525000I-249999J0D01*
G01*
X111349999Y-79525000D01*
G75*
G02*
X111100000Y-79275001I0J249999D01*
G01*
X111100000Y-78624999D01*
G75*
G02*
X111349999Y-78375000I249999J0D01*
G01*
G37*
G36*
G01*
X108149999Y-85525000D02*
X109050001Y-85525000D01*
G75*
G02*
X109300000Y-85774999I0J-249999D01*
G01*
X109300000Y-86425001D01*
G75*
G02*
X109050001Y-86675000I-249999J0D01*
G01*
X108149999Y-86675000D01*
G75*
G02*
X107900000Y-86425001I0J249999D01*
G01*
X107900000Y-85774999D01*
G75*
G02*
X108149999Y-85525000I249999J0D01*
G01*
G37*
G36*
G01*
X108149999Y-83475000D02*
X109050001Y-83475000D01*
G75*
G02*
X109300000Y-83724999I0J-249999D01*
G01*
X109300000Y-84375001D01*
G75*
G02*
X109050001Y-84625000I-249999J0D01*
G01*
X108149999Y-84625000D01*
G75*
G02*
X107900000Y-84375001I0J249999D01*
G01*
X107900000Y-83724999D01*
G75*
G02*
X108149999Y-83475000I249999J0D01*
G01*
G37*
G36*
G01*
X108149999Y-80425000D02*
X109050001Y-80425000D01*
G75*
G02*
X109300000Y-80674999I0J-249999D01*
G01*
X109300000Y-81325001D01*
G75*
G02*
X109050001Y-81575000I-249999J0D01*
G01*
X108149999Y-81575000D01*
G75*
G02*
X107900000Y-81325001I0J249999D01*
G01*
X107900000Y-80674999D01*
G75*
G02*
X108149999Y-80425000I249999J0D01*
G01*
G37*
G36*
G01*
X108149999Y-78375000D02*
X109050001Y-78375000D01*
G75*
G02*
X109300000Y-78624999I0J-249999D01*
G01*
X109300000Y-79275001D01*
G75*
G02*
X109050001Y-79525000I-249999J0D01*
G01*
X108149999Y-79525000D01*
G75*
G02*
X107900000Y-79275001I0J249999D01*
G01*
X107900000Y-78624999D01*
G75*
G02*
X108149999Y-78375000I249999J0D01*
G01*
G37*
G36*
G01*
X104949999Y-85525000D02*
X105850001Y-85525000D01*
G75*
G02*
X106100000Y-85774999I0J-249999D01*
G01*
X106100000Y-86425001D01*
G75*
G02*
X105850001Y-86675000I-249999J0D01*
G01*
X104949999Y-86675000D01*
G75*
G02*
X104700000Y-86425001I0J249999D01*
G01*
X104700000Y-85774999D01*
G75*
G02*
X104949999Y-85525000I249999J0D01*
G01*
G37*
G36*
G01*
X104949999Y-83475000D02*
X105850001Y-83475000D01*
G75*
G02*
X106100000Y-83724999I0J-249999D01*
G01*
X106100000Y-84375001D01*
G75*
G02*
X105850001Y-84625000I-249999J0D01*
G01*
X104949999Y-84625000D01*
G75*
G02*
X104700000Y-84375001I0J249999D01*
G01*
X104700000Y-83724999D01*
G75*
G02*
X104949999Y-83475000I249999J0D01*
G01*
G37*
G36*
G01*
X104949999Y-80425000D02*
X105850001Y-80425000D01*
G75*
G02*
X106100000Y-80674999I0J-249999D01*
G01*
X106100000Y-81325001D01*
G75*
G02*
X105850001Y-81575000I-249999J0D01*
G01*
X104949999Y-81575000D01*
G75*
G02*
X104700000Y-81325001I0J249999D01*
G01*
X104700000Y-80674999D01*
G75*
G02*
X104949999Y-80425000I249999J0D01*
G01*
G37*
G36*
G01*
X104949999Y-78375000D02*
X105850001Y-78375000D01*
G75*
G02*
X106100000Y-78624999I0J-249999D01*
G01*
X106100000Y-79275001D01*
G75*
G02*
X105850001Y-79525000I-249999J0D01*
G01*
X104949999Y-79525000D01*
G75*
G02*
X104700000Y-79275001I0J249999D01*
G01*
X104700000Y-78624999D01*
G75*
G02*
X104949999Y-78375000I249999J0D01*
G01*
G37*
M02*
