G04 #@! TF.GenerationSoftware,KiCad,Pcbnew,(5.1.6-0-10_14)*
G04 #@! TF.CreationDate,2020-08-14T16:39:20-05:00*
G04 #@! TF.ProjectId,gen2-jtag-adapter,67656e32-2d6a-4746-9167-2d6164617074,rev?*
G04 #@! TF.SameCoordinates,Original*
G04 #@! TF.FileFunction,Soldermask,Bot*
G04 #@! TF.FilePolarity,Negative*
%FSLAX46Y46*%
G04 Gerber Fmt 4.6, Leading zero omitted, Abs format (unit mm)*
G04 Created by KiCad (PCBNEW (5.1.6-0-10_14)) date 2020-08-14 16:39:20*
%MOMM*%
%LPD*%
G01*
G04 APERTURE LIST*
%ADD10C,1.979600*%
%ADD11C,0.100000*%
G04 APERTURE END LIST*
D10*
X119050000Y-67742000D03*
X119050000Y-70282000D03*
X119050000Y-72822000D03*
X119050000Y-75362000D03*
X119050000Y-77902000D03*
X119050000Y-80442000D03*
X119050000Y-82982000D03*
X119050000Y-85522000D03*
X119050000Y-88062000D03*
X119050000Y-90602000D03*
X119050000Y-93142000D03*
X119050000Y-95682000D03*
X101270000Y-95682000D03*
X101270000Y-93142000D03*
X101270000Y-90602000D03*
X101270000Y-88062000D03*
X101270000Y-85522000D03*
X101270000Y-82982000D03*
X101270000Y-80442000D03*
X101270000Y-77902000D03*
X101270000Y-75362000D03*
X101270000Y-72822000D03*
X101270000Y-70282000D03*
X101270000Y-67742000D03*
D11*
G36*
X103593889Y-76099398D02*
G01*
X103575466Y-76099398D01*
X103570565Y-76099157D01*
X103521734Y-76094347D01*
X103516881Y-76093627D01*
X103468756Y-76084055D01*
X103463995Y-76082863D01*
X103417040Y-76068619D01*
X103412421Y-76066966D01*
X103367088Y-76048189D01*
X103362651Y-76046091D01*
X103319378Y-76022960D01*
X103315171Y-76020438D01*
X103274372Y-75993178D01*
X103270430Y-75990254D01*
X103232501Y-75959126D01*
X103228866Y-75955831D01*
X103194169Y-75921134D01*
X103190874Y-75917499D01*
X103159746Y-75879570D01*
X103156822Y-75875628D01*
X103129562Y-75834829D01*
X103127040Y-75830622D01*
X103103909Y-75787349D01*
X103101811Y-75782912D01*
X103083034Y-75737579D01*
X103081381Y-75732960D01*
X103067137Y-75686005D01*
X103065945Y-75681244D01*
X103056373Y-75633119D01*
X103055653Y-75628266D01*
X103050843Y-75579435D01*
X103050602Y-75574534D01*
X103050602Y-75556111D01*
X103050000Y-75550000D01*
X103050000Y-75050000D01*
X103050602Y-75043889D01*
X103050602Y-75025466D01*
X103050843Y-75020565D01*
X103055653Y-74971734D01*
X103056373Y-74966881D01*
X103065945Y-74918756D01*
X103067137Y-74913995D01*
X103081381Y-74867040D01*
X103083034Y-74862421D01*
X103101811Y-74817088D01*
X103103909Y-74812651D01*
X103127040Y-74769378D01*
X103129562Y-74765171D01*
X103156822Y-74724372D01*
X103159746Y-74720430D01*
X103190874Y-74682501D01*
X103194169Y-74678866D01*
X103228866Y-74644169D01*
X103232501Y-74640874D01*
X103270430Y-74609746D01*
X103274372Y-74606822D01*
X103315171Y-74579562D01*
X103319378Y-74577040D01*
X103362651Y-74553909D01*
X103367088Y-74551811D01*
X103412421Y-74533034D01*
X103417040Y-74531381D01*
X103463995Y-74517137D01*
X103468756Y-74515945D01*
X103516881Y-74506373D01*
X103521734Y-74505653D01*
X103570565Y-74500843D01*
X103575466Y-74500602D01*
X103593889Y-74500602D01*
X103600000Y-74500000D01*
X104100000Y-74500000D01*
X104109755Y-74500961D01*
X104119134Y-74503806D01*
X104127779Y-74508427D01*
X104135355Y-74514645D01*
X104141573Y-74522221D01*
X104146194Y-74530866D01*
X104149039Y-74540245D01*
X104150000Y-74550000D01*
X104150000Y-76050000D01*
X104149039Y-76059755D01*
X104146194Y-76069134D01*
X104141573Y-76077779D01*
X104135355Y-76085355D01*
X104127779Y-76091573D01*
X104119134Y-76096194D01*
X104109755Y-76099039D01*
X104100000Y-76100000D01*
X103600000Y-76100000D01*
X103593889Y-76099398D01*
G37*
G36*
X104390245Y-76099039D02*
G01*
X104380866Y-76096194D01*
X104372221Y-76091573D01*
X104364645Y-76085355D01*
X104358427Y-76077779D01*
X104353806Y-76069134D01*
X104350961Y-76059755D01*
X104350000Y-76050000D01*
X104350000Y-74550000D01*
X104350961Y-74540245D01*
X104353806Y-74530866D01*
X104358427Y-74522221D01*
X104364645Y-74514645D01*
X104372221Y-74508427D01*
X104380866Y-74503806D01*
X104390245Y-74500961D01*
X104400000Y-74500000D01*
X104900000Y-74500000D01*
X104906111Y-74500602D01*
X104924534Y-74500602D01*
X104929435Y-74500843D01*
X104978266Y-74505653D01*
X104983119Y-74506373D01*
X105031244Y-74515945D01*
X105036005Y-74517137D01*
X105082960Y-74531381D01*
X105087579Y-74533034D01*
X105132912Y-74551811D01*
X105137349Y-74553909D01*
X105180622Y-74577040D01*
X105184829Y-74579562D01*
X105225628Y-74606822D01*
X105229570Y-74609746D01*
X105267499Y-74640874D01*
X105271134Y-74644169D01*
X105305831Y-74678866D01*
X105309126Y-74682501D01*
X105340254Y-74720430D01*
X105343178Y-74724372D01*
X105370438Y-74765171D01*
X105372960Y-74769378D01*
X105396091Y-74812651D01*
X105398189Y-74817088D01*
X105416966Y-74862421D01*
X105418619Y-74867040D01*
X105432863Y-74913995D01*
X105434055Y-74918756D01*
X105443627Y-74966881D01*
X105444347Y-74971734D01*
X105449157Y-75020565D01*
X105449398Y-75025466D01*
X105449398Y-75043889D01*
X105450000Y-75050000D01*
X105450000Y-75550000D01*
X105449398Y-75556111D01*
X105449398Y-75574534D01*
X105449157Y-75579435D01*
X105444347Y-75628266D01*
X105443627Y-75633119D01*
X105434055Y-75681244D01*
X105432863Y-75686005D01*
X105418619Y-75732960D01*
X105416966Y-75737579D01*
X105398189Y-75782912D01*
X105396091Y-75787349D01*
X105372960Y-75830622D01*
X105370438Y-75834829D01*
X105343178Y-75875628D01*
X105340254Y-75879570D01*
X105309126Y-75917499D01*
X105305831Y-75921134D01*
X105271134Y-75955831D01*
X105267499Y-75959126D01*
X105229570Y-75990254D01*
X105225628Y-75993178D01*
X105184829Y-76020438D01*
X105180622Y-76022960D01*
X105137349Y-76046091D01*
X105132912Y-76048189D01*
X105087579Y-76066966D01*
X105082960Y-76068619D01*
X105036005Y-76082863D01*
X105031244Y-76084055D01*
X104983119Y-76093627D01*
X104978266Y-76094347D01*
X104929435Y-76099157D01*
X104924534Y-76099398D01*
X104906111Y-76099398D01*
X104900000Y-76100000D01*
X104400000Y-76100000D01*
X104390245Y-76099039D01*
G37*
G36*
X103593889Y-73599398D02*
G01*
X103575466Y-73599398D01*
X103570565Y-73599157D01*
X103521734Y-73594347D01*
X103516881Y-73593627D01*
X103468756Y-73584055D01*
X103463995Y-73582863D01*
X103417040Y-73568619D01*
X103412421Y-73566966D01*
X103367088Y-73548189D01*
X103362651Y-73546091D01*
X103319378Y-73522960D01*
X103315171Y-73520438D01*
X103274372Y-73493178D01*
X103270430Y-73490254D01*
X103232501Y-73459126D01*
X103228866Y-73455831D01*
X103194169Y-73421134D01*
X103190874Y-73417499D01*
X103159746Y-73379570D01*
X103156822Y-73375628D01*
X103129562Y-73334829D01*
X103127040Y-73330622D01*
X103103909Y-73287349D01*
X103101811Y-73282912D01*
X103083034Y-73237579D01*
X103081381Y-73232960D01*
X103067137Y-73186005D01*
X103065945Y-73181244D01*
X103056373Y-73133119D01*
X103055653Y-73128266D01*
X103050843Y-73079435D01*
X103050602Y-73074534D01*
X103050602Y-73056111D01*
X103050000Y-73050000D01*
X103050000Y-72550000D01*
X103050602Y-72543889D01*
X103050602Y-72525466D01*
X103050843Y-72520565D01*
X103055653Y-72471734D01*
X103056373Y-72466881D01*
X103065945Y-72418756D01*
X103067137Y-72413995D01*
X103081381Y-72367040D01*
X103083034Y-72362421D01*
X103101811Y-72317088D01*
X103103909Y-72312651D01*
X103127040Y-72269378D01*
X103129562Y-72265171D01*
X103156822Y-72224372D01*
X103159746Y-72220430D01*
X103190874Y-72182501D01*
X103194169Y-72178866D01*
X103228866Y-72144169D01*
X103232501Y-72140874D01*
X103270430Y-72109746D01*
X103274372Y-72106822D01*
X103315171Y-72079562D01*
X103319378Y-72077040D01*
X103362651Y-72053909D01*
X103367088Y-72051811D01*
X103412421Y-72033034D01*
X103417040Y-72031381D01*
X103463995Y-72017137D01*
X103468756Y-72015945D01*
X103516881Y-72006373D01*
X103521734Y-72005653D01*
X103570565Y-72000843D01*
X103575466Y-72000602D01*
X103593889Y-72000602D01*
X103600000Y-72000000D01*
X104100000Y-72000000D01*
X104109755Y-72000961D01*
X104119134Y-72003806D01*
X104127779Y-72008427D01*
X104135355Y-72014645D01*
X104141573Y-72022221D01*
X104146194Y-72030866D01*
X104149039Y-72040245D01*
X104150000Y-72050000D01*
X104150000Y-73550000D01*
X104149039Y-73559755D01*
X104146194Y-73569134D01*
X104141573Y-73577779D01*
X104135355Y-73585355D01*
X104127779Y-73591573D01*
X104119134Y-73596194D01*
X104109755Y-73599039D01*
X104100000Y-73600000D01*
X103600000Y-73600000D01*
X103593889Y-73599398D01*
G37*
G36*
X104390245Y-73599039D02*
G01*
X104380866Y-73596194D01*
X104372221Y-73591573D01*
X104364645Y-73585355D01*
X104358427Y-73577779D01*
X104353806Y-73569134D01*
X104350961Y-73559755D01*
X104350000Y-73550000D01*
X104350000Y-72050000D01*
X104350961Y-72040245D01*
X104353806Y-72030866D01*
X104358427Y-72022221D01*
X104364645Y-72014645D01*
X104372221Y-72008427D01*
X104380866Y-72003806D01*
X104390245Y-72000961D01*
X104400000Y-72000000D01*
X104900000Y-72000000D01*
X104906111Y-72000602D01*
X104924534Y-72000602D01*
X104929435Y-72000843D01*
X104978266Y-72005653D01*
X104983119Y-72006373D01*
X105031244Y-72015945D01*
X105036005Y-72017137D01*
X105082960Y-72031381D01*
X105087579Y-72033034D01*
X105132912Y-72051811D01*
X105137349Y-72053909D01*
X105180622Y-72077040D01*
X105184829Y-72079562D01*
X105225628Y-72106822D01*
X105229570Y-72109746D01*
X105267499Y-72140874D01*
X105271134Y-72144169D01*
X105305831Y-72178866D01*
X105309126Y-72182501D01*
X105340254Y-72220430D01*
X105343178Y-72224372D01*
X105370438Y-72265171D01*
X105372960Y-72269378D01*
X105396091Y-72312651D01*
X105398189Y-72317088D01*
X105416966Y-72362421D01*
X105418619Y-72367040D01*
X105432863Y-72413995D01*
X105434055Y-72418756D01*
X105443627Y-72466881D01*
X105444347Y-72471734D01*
X105449157Y-72520565D01*
X105449398Y-72525466D01*
X105449398Y-72543889D01*
X105450000Y-72550000D01*
X105450000Y-73050000D01*
X105449398Y-73056111D01*
X105449398Y-73074534D01*
X105449157Y-73079435D01*
X105444347Y-73128266D01*
X105443627Y-73133119D01*
X105434055Y-73181244D01*
X105432863Y-73186005D01*
X105418619Y-73232960D01*
X105416966Y-73237579D01*
X105398189Y-73282912D01*
X105396091Y-73287349D01*
X105372960Y-73330622D01*
X105370438Y-73334829D01*
X105343178Y-73375628D01*
X105340254Y-73379570D01*
X105309126Y-73417499D01*
X105305831Y-73421134D01*
X105271134Y-73455831D01*
X105267499Y-73459126D01*
X105229570Y-73490254D01*
X105225628Y-73493178D01*
X105184829Y-73520438D01*
X105180622Y-73522960D01*
X105137349Y-73546091D01*
X105132912Y-73548189D01*
X105087579Y-73566966D01*
X105082960Y-73568619D01*
X105036005Y-73582863D01*
X105031244Y-73584055D01*
X104983119Y-73593627D01*
X104978266Y-73594347D01*
X104929435Y-73599157D01*
X104924534Y-73599398D01*
X104906111Y-73599398D01*
X104900000Y-73600000D01*
X104400000Y-73600000D01*
X104390245Y-73599039D01*
G37*
G36*
X115443889Y-68549398D02*
G01*
X115425466Y-68549398D01*
X115420565Y-68549157D01*
X115371734Y-68544347D01*
X115366881Y-68543627D01*
X115318756Y-68534055D01*
X115313995Y-68532863D01*
X115267040Y-68518619D01*
X115262421Y-68516966D01*
X115217088Y-68498189D01*
X115212651Y-68496091D01*
X115169378Y-68472960D01*
X115165171Y-68470438D01*
X115124372Y-68443178D01*
X115120430Y-68440254D01*
X115082501Y-68409126D01*
X115078866Y-68405831D01*
X115044169Y-68371134D01*
X115040874Y-68367499D01*
X115009746Y-68329570D01*
X115006822Y-68325628D01*
X114979562Y-68284829D01*
X114977040Y-68280622D01*
X114953909Y-68237349D01*
X114951811Y-68232912D01*
X114933034Y-68187579D01*
X114931381Y-68182960D01*
X114917137Y-68136005D01*
X114915945Y-68131244D01*
X114906373Y-68083119D01*
X114905653Y-68078266D01*
X114900843Y-68029435D01*
X114900602Y-68024534D01*
X114900602Y-68006111D01*
X114900000Y-68000000D01*
X114900000Y-67500000D01*
X114900602Y-67493889D01*
X114900602Y-67475466D01*
X114900843Y-67470565D01*
X114905653Y-67421734D01*
X114906373Y-67416881D01*
X114915945Y-67368756D01*
X114917137Y-67363995D01*
X114931381Y-67317040D01*
X114933034Y-67312421D01*
X114951811Y-67267088D01*
X114953909Y-67262651D01*
X114977040Y-67219378D01*
X114979562Y-67215171D01*
X115006822Y-67174372D01*
X115009746Y-67170430D01*
X115040874Y-67132501D01*
X115044169Y-67128866D01*
X115078866Y-67094169D01*
X115082501Y-67090874D01*
X115120430Y-67059746D01*
X115124372Y-67056822D01*
X115165171Y-67029562D01*
X115169378Y-67027040D01*
X115212651Y-67003909D01*
X115217088Y-67001811D01*
X115262421Y-66983034D01*
X115267040Y-66981381D01*
X115313995Y-66967137D01*
X115318756Y-66965945D01*
X115366881Y-66956373D01*
X115371734Y-66955653D01*
X115420565Y-66950843D01*
X115425466Y-66950602D01*
X115443889Y-66950602D01*
X115450000Y-66950000D01*
X115950000Y-66950000D01*
X115959755Y-66950961D01*
X115969134Y-66953806D01*
X115977779Y-66958427D01*
X115985355Y-66964645D01*
X115991573Y-66972221D01*
X115996194Y-66980866D01*
X115999039Y-66990245D01*
X116000000Y-67000000D01*
X116000000Y-68500000D01*
X115999039Y-68509755D01*
X115996194Y-68519134D01*
X115991573Y-68527779D01*
X115985355Y-68535355D01*
X115977779Y-68541573D01*
X115969134Y-68546194D01*
X115959755Y-68549039D01*
X115950000Y-68550000D01*
X115450000Y-68550000D01*
X115443889Y-68549398D01*
G37*
G36*
X116240245Y-68549039D02*
G01*
X116230866Y-68546194D01*
X116222221Y-68541573D01*
X116214645Y-68535355D01*
X116208427Y-68527779D01*
X116203806Y-68519134D01*
X116200961Y-68509755D01*
X116200000Y-68500000D01*
X116200000Y-67000000D01*
X116200961Y-66990245D01*
X116203806Y-66980866D01*
X116208427Y-66972221D01*
X116214645Y-66964645D01*
X116222221Y-66958427D01*
X116230866Y-66953806D01*
X116240245Y-66950961D01*
X116250000Y-66950000D01*
X116750000Y-66950000D01*
X116756111Y-66950602D01*
X116774534Y-66950602D01*
X116779435Y-66950843D01*
X116828266Y-66955653D01*
X116833119Y-66956373D01*
X116881244Y-66965945D01*
X116886005Y-66967137D01*
X116932960Y-66981381D01*
X116937579Y-66983034D01*
X116982912Y-67001811D01*
X116987349Y-67003909D01*
X117030622Y-67027040D01*
X117034829Y-67029562D01*
X117075628Y-67056822D01*
X117079570Y-67059746D01*
X117117499Y-67090874D01*
X117121134Y-67094169D01*
X117155831Y-67128866D01*
X117159126Y-67132501D01*
X117190254Y-67170430D01*
X117193178Y-67174372D01*
X117220438Y-67215171D01*
X117222960Y-67219378D01*
X117246091Y-67262651D01*
X117248189Y-67267088D01*
X117266966Y-67312421D01*
X117268619Y-67317040D01*
X117282863Y-67363995D01*
X117284055Y-67368756D01*
X117293627Y-67416881D01*
X117294347Y-67421734D01*
X117299157Y-67470565D01*
X117299398Y-67475466D01*
X117299398Y-67493889D01*
X117300000Y-67500000D01*
X117300000Y-68000000D01*
X117299398Y-68006111D01*
X117299398Y-68024534D01*
X117299157Y-68029435D01*
X117294347Y-68078266D01*
X117293627Y-68083119D01*
X117284055Y-68131244D01*
X117282863Y-68136005D01*
X117268619Y-68182960D01*
X117266966Y-68187579D01*
X117248189Y-68232912D01*
X117246091Y-68237349D01*
X117222960Y-68280622D01*
X117220438Y-68284829D01*
X117193178Y-68325628D01*
X117190254Y-68329570D01*
X117159126Y-68367499D01*
X117155831Y-68371134D01*
X117121134Y-68405831D01*
X117117499Y-68409126D01*
X117079570Y-68440254D01*
X117075628Y-68443178D01*
X117034829Y-68470438D01*
X117030622Y-68472960D01*
X116987349Y-68496091D01*
X116982912Y-68498189D01*
X116937579Y-68516966D01*
X116932960Y-68518619D01*
X116886005Y-68532863D01*
X116881244Y-68534055D01*
X116833119Y-68543627D01*
X116828266Y-68544347D01*
X116779435Y-68549157D01*
X116774534Y-68549398D01*
X116756111Y-68549398D01*
X116750000Y-68550000D01*
X116250000Y-68550000D01*
X116240245Y-68549039D01*
G37*
M02*
